<svg width="344" height="260" viewBox="0 0 344 260" fill="none" xmlns="http://www.w3.org/2000/svg">
<g filter="url(#filter0_d_274_328)">
<path d="M10.0002 158.471C16.0002 167.471 30.0002 178.006 30.0002 178.006L47.5002 186.506L69.0001 196.506C69.0001 196.506 79.0001 201.425 105 206.006C125.189 209.564 101 253.506 101 253.506C101 253.506 134.5 221.506 151.5 212.506C206.661 213.051 239.522 213.814 258 212.506C281.097 210.872 324.03 197.351 328.5 158.471C332.949 119.776 340.809 70.0792 333.5 51.0063C326.191 31.9333 320.802 21.2796 303.007 14.244C288.849 8.64634 243.466 3.20695 223 3.20695C202.534 3.20695 104.038 6.47651 71.0001 3.20687C37.9621 -0.0627809 15.5552 36.2929 10.0002 51.0063C4.4451 65.7197 3.00008 112.652 3.00008 123.006L3.00004 123.448C2.99858 133.768 2.99657 147.966 10.0002 158.471Z" fill="#F0BD96"/>
<path d="M10.0002 158.471C16.0002 167.471 30.0002 178.006 30.0002 178.006L47.5002 186.506L69.0001 196.506C69.0001 196.506 79.0001 201.425 105 206.006C125.189 209.564 101 253.506 101 253.506C101 253.506 134.5 221.506 151.5 212.506C206.661 213.051 239.522 213.814 258 212.506C281.097 210.872 324.03 197.351 328.5 158.471C332.949 119.776 340.809 70.0792 333.5 51.0063C326.191 31.9333 320.802 21.2796 303.007 14.244C288.849 8.64634 243.466 3.20695 223 3.20695C202.534 3.20695 104.038 6.47651 71.0001 3.20687C37.9621 -0.0627809 15.5552 36.2929 10.0002 51.0063C4.4451 65.7197 3.00008 112.652 3.00008 123.006L3.00004 123.448C2.99858 133.768 2.99657 147.966 10.0002 158.471Z" stroke="#500001" stroke-width="6"/>
</g>
<path d="M96.9793 62.2623C95.2726 62.2623 93.6939 61.9637 92.2433 61.3663C90.8139 60.769 89.5659 59.937 88.4993 58.8703C87.4539 57.8037 86.6219 56.545 86.0033 55.0943C85.4059 53.6437 85.1073 52.065 85.1073 50.3583C85.1073 48.6303 85.3953 47.041 85.9713 45.5903C86.5473 44.1183 87.3686 42.8597 88.4353 41.8143C89.4806 40.7477 90.7499 39.9263 92.2433 39.3503C93.7579 38.7743 95.4433 38.4863 97.2993 38.4863C98.4726 38.4863 99.5179 38.561 100.435 38.7103C101.353 38.8597 102.227 39.073 103.059 39.3503C103.913 39.6063 104.777 39.9263 105.651 40.3103V43.3823L103.219 43.7023C102.387 43.297 101.438 43.0197 100.371 42.8703C99.3259 42.6997 98.2699 42.6143 97.2033 42.6143C95.7313 42.6143 94.4726 42.945 93.4273 43.6063C92.3819 44.2463 91.5713 45.153 90.9953 46.3263C90.4406 47.4783 90.1633 48.833 90.1633 50.3903C90.1633 52.0117 90.4513 53.4303 91.0273 54.6463C91.6246 55.841 92.4673 56.7797 93.5553 57.4623C94.6433 58.1237 95.9019 58.4543 97.3313 58.4543C98.1419 58.4543 98.8673 58.3797 99.5073 58.2303C100.147 58.0597 100.755 57.8463 101.331 57.5903V53.7503H98.7713C98.4513 53.7503 98.1953 53.665 98.0033 53.4943C97.8326 53.3237 97.7473 53.1103 97.7473 52.8543V50.1343H105.779V59.7663C104.585 60.641 103.262 61.281 101.811 61.6863C100.382 62.0703 98.7713 62.2623 96.9793 62.2623ZM102.323 42.6463L105.651 43.3823V46.1663H103.923C103.603 46.1663 103.358 46.0703 103.187 45.8783C103.017 45.6863 102.889 45.409 102.803 45.0463L102.323 42.6463ZM111.233 62.0063V45.4623H113.921C114.369 45.4623 114.678 45.5477 114.849 45.7183C115.041 45.889 115.169 46.177 115.233 46.5823L115.521 48.3103C116.097 47.3503 116.769 46.593 117.537 46.0383C118.305 45.4623 119.158 45.1743 120.097 45.1743C120.502 45.1743 120.865 45.2277 121.185 45.3343C121.505 45.4197 121.782 45.5477 122.017 45.7183L121.441 49.0463C121.398 49.2597 121.313 49.409 121.185 49.4943C121.078 49.5797 120.918 49.6223 120.705 49.6223C120.641 49.6223 120.427 49.601 120.065 49.5583C119.702 49.4943 119.371 49.4623 119.073 49.4623C118.347 49.4623 117.707 49.665 117.153 50.0703C116.598 50.4543 116.139 51.0303 115.777 51.7983V62.0063H111.233ZM115.073 62.0063L115.489 58.4863L117.089 58.8383C117.43 58.9023 117.697 59.0197 117.889 59.1903C118.102 59.361 118.209 59.6063 118.209 59.9263V62.0063H115.073ZM108.801 62.0063V59.9263C108.801 59.6063 108.897 59.361 109.089 59.1903C109.302 59.0197 109.579 58.9023 109.921 58.8383L111.521 58.4863L111.937 62.0063H108.801ZM111.937 45.4623L111.521 48.9823L109.921 48.6623C109.579 48.577 109.302 48.4597 109.089 48.3103C108.897 48.1397 108.801 47.8837 108.801 47.5423V45.4623H111.937ZM131.18 62.2623C129.494 62.2623 128.033 61.889 126.796 61.1423C125.558 60.3957 124.598 59.361 123.916 58.0383C123.233 56.6943 122.892 55.137 122.892 53.3663C122.892 51.8517 123.222 50.4757 123.884 49.2383C124.566 48.001 125.516 47.0197 126.732 46.2943C127.948 45.569 129.356 45.2063 130.956 45.2063C132.428 45.2063 133.708 45.5157 134.796 46.1343C135.884 46.753 136.726 47.6277 137.324 48.7583C137.942 49.8677 138.252 51.201 138.252 52.7583C138.252 53.377 138.188 53.8143 138.06 54.0703C137.953 54.3263 137.676 54.4543 137.228 54.4543H127.404C127.404 54.5183 127.404 54.5823 127.404 54.6463C127.425 54.689 127.446 54.7423 127.468 54.8063C127.66 56.1717 128.108 57.185 128.812 57.8463C129.516 58.5077 130.433 58.8383 131.564 58.8383C132.118 58.8383 132.662 58.7317 133.196 58.5183C133.75 58.2837 134.273 58.049 134.764 57.8143C135.254 57.5797 135.67 57.4623 136.012 57.4623C136.332 57.4623 136.609 57.5903 136.844 57.8463L138.156 59.4783C137.537 60.1823 136.833 60.737 136.044 61.1423C135.276 61.5477 134.476 61.8357 133.644 62.0063C132.812 62.177 131.99 62.2623 131.18 62.2623ZM127.468 51.7983H134.22C134.22 50.8383 133.953 50.0277 133.42 49.3663C132.908 48.705 132.118 48.3743 131.052 48.3743C130.028 48.3743 129.217 48.673 128.62 49.2703C128.044 49.8677 127.66 50.7103 127.468 51.7983ZM147.992 62.2623C146.307 62.2623 144.845 61.889 143.608 61.1423C142.371 60.3957 141.411 59.361 140.728 58.0383C140.045 56.6943 139.704 55.137 139.704 53.3663C139.704 51.8517 140.035 50.4757 140.696 49.2383C141.379 48.001 142.328 47.0197 143.544 46.2943C144.76 45.569 146.168 45.2063 147.768 45.2063C149.24 45.2063 150.52 45.5157 151.608 46.1343C152.696 46.753 153.539 47.6277 154.136 48.7583C154.755 49.8677 155.064 51.201 155.064 52.7583C155.064 53.377 155 53.8143 154.872 54.0703C154.765 54.3263 154.488 54.4543 154.04 54.4543H144.216C144.216 54.5183 144.216 54.5823 144.216 54.6463C144.237 54.689 144.259 54.7423 144.28 54.8063C144.472 56.1717 144.92 57.185 145.624 57.8463C146.328 58.5077 147.245 58.8383 148.376 58.8383C148.931 58.8383 149.475 58.7317 150.008 58.5183C150.563 58.2837 151.085 58.049 151.576 57.8143C152.067 57.5797 152.483 57.4623 152.824 57.4623C153.144 57.4623 153.421 57.5903 153.656 57.8463L154.968 59.4783C154.349 60.1823 153.645 60.737 152.856 61.1423C152.088 61.5477 151.288 61.8357 150.456 62.0063C149.624 62.177 148.803 62.2623 147.992 62.2623ZM144.28 51.7983H151.032C151.032 50.8383 150.765 50.0277 150.232 49.3663C149.72 48.705 148.931 48.3743 147.864 48.3743C146.84 48.3743 146.029 48.673 145.432 49.2703C144.856 49.8677 144.472 50.7103 144.28 51.7983ZM159.077 62.0063V45.4623H161.861C162.458 45.4623 162.842 45.729 163.013 46.2623L163.269 47.3823C163.951 46.7423 164.687 46.2197 165.477 45.8143C166.266 45.409 167.183 45.2063 168.229 45.2063C169.423 45.2063 170.437 45.4837 171.269 46.0383C172.101 46.5717 172.73 47.3077 173.157 48.2463C173.583 49.185 173.797 50.2623 173.797 51.4783V62.0063H169.285V51.4783C169.285 50.6037 169.071 49.921 168.645 49.4303C168.239 48.9183 167.631 48.6623 166.821 48.6623C166.223 48.6623 165.658 48.801 165.125 49.0783C164.591 49.3343 164.09 49.6863 163.621 50.1343V62.0063H159.077ZM156.645 62.0063V59.9263C156.645 59.6063 156.741 59.361 156.933 59.1903C157.146 59.0197 157.423 58.9023 157.765 58.8383L159.365 58.4863L159.781 62.0063H156.645ZM162.917 62.0063L163.333 58.4863L164.933 58.8383C165.274 58.9023 165.541 59.0197 165.733 59.1903C165.946 59.361 166.053 59.6063 166.053 59.9263V62.0063H162.917ZM173.093 62.0063L173.541 58.4863L175.141 58.8383C175.482 58.9023 175.749 59.0197 175.941 59.1903C176.133 59.361 176.229 59.6063 176.229 59.9263V62.0063H173.093ZM159.781 45.4623L159.365 48.9823L157.765 48.6623C157.423 48.577 157.146 48.4597 156.933 48.3103C156.741 48.1397 156.645 47.8837 156.645 47.5423V45.4623H159.781ZM191.699 62.0063V42.7103H184.947V38.7423H203.379V42.7103H196.627V62.0063H191.699ZM189.267 62.0063V59.9263C189.267 59.6063 189.363 59.361 189.555 59.1903C189.769 59.0197 190.046 58.9023 190.387 58.8383L191.987 58.4863L192.403 62.0063H189.267ZM195.923 62.0063L196.371 58.4863L197.971 58.8383C198.313 58.9023 198.579 59.0197 198.771 59.1903C198.963 59.361 199.059 59.6063 199.059 59.9263V62.0063H195.923ZM200.051 41.9743L203.379 42.7103V45.4943H201.651C201.331 45.4943 201.086 45.3983 200.915 45.2063C200.745 45.0143 200.617 44.7477 200.531 44.4063L200.051 41.9743ZM188.275 41.9743L187.795 44.4063C187.71 44.7477 187.582 45.0143 187.411 45.2063C187.262 45.3983 187.017 45.4943 186.675 45.4943H184.947V42.7103L188.275 41.9743ZM211.805 62.2623C210.119 62.2623 208.658 61.889 207.421 61.1423C206.183 60.3957 205.223 59.361 204.541 58.0383C203.858 56.6943 203.517 55.137 203.517 53.3663C203.517 51.8517 203.847 50.4757 204.509 49.2383C205.191 48.001 206.141 47.0197 207.357 46.2943C208.573 45.569 209.981 45.2063 211.581 45.2063C213.053 45.2063 214.333 45.5157 215.421 46.1343C216.509 46.753 217.351 47.6277 217.949 48.7583C218.567 49.8677 218.877 51.201 218.877 52.7583C218.877 53.377 218.813 53.8143 218.685 54.0703C218.578 54.3263 218.301 54.4543 217.853 54.4543H208.029C208.029 54.5183 208.029 54.5823 208.029 54.6463C208.05 54.689 208.071 54.7423 208.093 54.8063C208.285 56.1717 208.733 57.185 209.437 57.8463C210.141 58.5077 211.058 58.8383 212.189 58.8383C212.743 58.8383 213.287 58.7317 213.821 58.5183C214.375 58.2837 214.898 58.049 215.389 57.8143C215.879 57.5797 216.295 57.4623 216.637 57.4623C216.957 57.4623 217.234 57.5903 217.469 57.8463L218.781 59.4783C218.162 60.1823 217.458 60.737 216.669 61.1423C215.901 61.5477 215.101 61.8357 214.269 62.0063C213.437 62.177 212.615 62.2623 211.805 62.2623ZM208.093 51.7983H214.845C214.845 50.8383 214.578 50.0277 214.045 49.3663C213.533 48.705 212.743 48.3743 211.677 48.3743C210.653 48.3743 209.842 48.673 209.245 49.2703C208.669 49.8677 208.285 50.7103 208.093 51.7983ZM225.289 62.2623C224.329 62.2623 223.476 62.0917 222.729 61.7503C221.982 61.3877 221.406 60.8757 221.001 60.2143C220.596 59.5317 220.393 58.7103 220.393 57.7503C220.393 57.1317 220.553 56.5237 220.873 55.9263C221.193 55.3077 221.726 54.7423 222.473 54.2303C223.22 53.761 224.212 53.3663 225.449 53.0463C226.708 52.705 228.276 52.513 230.153 52.4703V51.6383C230.153 50.593 229.94 49.8357 229.513 49.3663C229.086 48.897 228.468 48.6623 227.657 48.6623C226.996 48.6623 226.42 48.7797 225.929 49.0143C225.46 49.2277 225.022 49.4517 224.617 49.6863C224.212 49.8997 223.774 50.0063 223.305 50.0063C222.985 50.0063 222.718 49.9317 222.505 49.7823C222.292 49.6117 222.121 49.4197 221.993 49.2063L221.161 47.7663C222.142 46.8917 223.23 46.241 224.425 45.8143C225.62 45.3877 226.889 45.1743 228.233 45.1743C229.534 45.1743 230.654 45.4517 231.593 46.0063C232.553 46.5397 233.289 47.297 233.801 48.2783C234.313 49.2383 234.569 50.3583 234.569 51.6383V62.0063H232.489C232.062 62.0063 231.732 61.953 231.497 61.8463C231.284 61.7183 231.102 61.4623 230.953 61.0783L230.633 60.0223C229.822 60.7477 229.001 61.3023 228.169 61.6863C227.358 62.0703 226.398 62.2623 225.289 62.2623ZM226.697 59.2223C227.422 59.2223 228.041 59.0943 228.553 58.8383C229.086 58.5823 229.62 58.1877 230.153 57.6543V55.1263C229.278 55.1477 228.5 55.2223 227.817 55.3503C227.156 55.457 226.59 55.6063 226.121 55.7983C225.673 55.9903 225.321 56.225 225.065 56.5023C224.83 56.7797 224.713 57.1103 224.713 57.4943C224.713 58.1343 224.884 58.5823 225.225 58.8383C225.588 59.0943 226.078 59.2223 226.697 59.2223ZM233.865 62.0063L234.281 58.4863L235.881 58.8383C236.222 58.9023 236.489 59.0197 236.681 59.1903C236.894 59.361 237.001 59.6063 237.001 59.9263V62.0063H233.865ZM240.827 62.0063V45.4623H243.611C244.208 45.4623 244.592 45.729 244.763 46.2623L245.019 47.3183C245.595 46.721 246.224 46.2197 246.907 45.8143C247.611 45.409 248.421 45.2063 249.339 45.2063C250.363 45.2063 251.205 45.4837 251.867 46.0383C252.528 46.5717 253.029 47.2863 253.371 48.1823C253.883 47.1583 254.629 46.4117 255.611 45.9423C256.592 45.4517 257.605 45.2063 258.651 45.2063C260.528 45.2063 261.957 45.7717 262.939 46.9023C263.941 48.0117 264.443 49.537 264.443 51.4783V62.0063H259.931V51.4783C259.931 50.561 259.728 49.8677 259.323 49.3983C258.917 48.9077 258.309 48.6623 257.499 48.6623C256.773 48.6623 256.155 48.9077 255.642 49.3983C255.152 49.889 254.907 50.5823 254.907 51.4783V62.0063H250.395V51.4783C250.395 50.4757 250.192 49.761 249.787 49.3343C249.381 48.8863 248.795 48.6623 248.027 48.6623C247.515 48.6623 247.035 48.7797 246.587 49.0143C246.16 49.249 245.755 49.569 245.371 49.9743V62.0063H240.827ZM238.395 62.0063V59.9263C238.395 59.6063 238.491 59.361 238.683 59.1903C238.896 59.0197 239.173 58.9023 239.515 58.8383L241.115 58.4863L241.531 62.0063H238.395ZM244.667 62.0063L245.083 58.4863L246.683 58.8383C247.024 58.9023 247.291 59.0197 247.483 59.1903C247.696 59.361 247.803 59.6063 247.803 59.9263V62.0063H244.667ZM254.203 62.0063L254.651 58.4863L256.251 58.8383C256.592 58.9023 256.859 59.0197 257.051 59.1903C257.243 59.361 257.339 59.6063 257.339 59.9263V62.0063H254.203ZM241.531 45.4623L241.115 48.9823L239.515 48.6623C239.173 48.577 238.896 48.4597 238.683 48.3103C238.491 48.1397 238.395 47.8837 238.395 47.5423V45.4623H241.531ZM263.739 62.0063L264.155 58.4863L265.787 58.8383C266.128 58.9023 266.395 59.0197 266.587 59.1903C266.779 59.361 266.875 59.6063 266.875 59.9263V62.0063H263.739Z" fill="#009051"/>
<path d="M52.9309 88.8823H48.8269V87.2623H58.7629V88.8823H54.6589V100.006H52.9309V88.8823ZM60.1888 86.3983H61.8088V92.7883H61.8448C62.0488 92.3323 62.4028 91.9663 62.9068 91.6903C63.4108 91.4023 63.9928 91.2583 64.6528 91.2583C65.0608 91.2583 65.4508 91.3243 65.8228 91.4563C66.2068 91.5763 66.5368 91.7683 66.8128 92.0323C67.1008 92.2963 67.3288 92.6383 67.4968 93.0583C67.6648 93.4663 67.7488 93.9523 67.7488 94.5163V100.006H66.1288V94.9663C66.1288 94.5703 66.0748 94.2343 65.9668 93.9583C65.8588 93.6703 65.7148 93.4423 65.5348 93.2743C65.3548 93.0943 65.1448 92.9683 64.9048 92.8963C64.6768 92.8123 64.4368 92.7703 64.1848 92.7703C63.8488 92.7703 63.5368 92.8243 63.2488 92.9323C62.9608 93.0403 62.7088 93.2143 62.4928 93.4543C62.2768 93.6823 62.1088 93.9763 61.9888 94.3363C61.8688 94.6963 61.8088 95.1223 61.8088 95.6143V100.006H60.1888V86.3983ZM71.4148 96.3343C71.4148 96.7063 71.4928 97.0483 71.6488 97.3603C71.8168 97.6603 72.0328 97.9183 72.2968 98.1343C72.5608 98.3503 72.8668 98.5183 73.2148 98.6383C73.5628 98.7583 73.9228 98.8183 74.2948 98.8183C74.7988 98.8183 75.2368 98.7043 75.6088 98.4763C75.9808 98.2363 76.3228 97.9243 76.6348 97.5403L77.8588 98.4763C76.9588 99.6403 75.6988 100.222 74.0788 100.222C73.4068 100.222 72.7948 100.108 72.2428 99.8803C71.7028 99.6523 71.2408 99.3403 70.8568 98.9443C70.4848 98.5363 70.1968 98.0623 69.9928 97.5223C69.7888 96.9703 69.6868 96.3763 69.6868 95.7403C69.6868 95.1043 69.7948 94.5163 70.0108 93.9763C70.2388 93.4243 70.5448 92.9503 70.9288 92.5543C71.3248 92.1463 71.7928 91.8283 72.3328 91.6003C72.8728 91.3723 73.4608 91.2583 74.0968 91.2583C74.8528 91.2583 75.4888 91.3903 76.0048 91.6543C76.5328 91.9183 76.9648 92.2663 77.3008 92.6983C77.6368 93.1183 77.8768 93.5983 78.0208 94.1383C78.1768 94.6663 78.2548 95.2063 78.2548 95.7583V96.3343H71.4148ZM76.5268 95.0383C76.5148 94.6783 76.4548 94.3483 76.3468 94.0483C76.2508 93.7483 76.1008 93.4903 75.8968 93.2743C75.6928 93.0463 75.4348 92.8723 75.1228 92.7523C74.8228 92.6203 74.4688 92.5543 74.0608 92.5543C73.6648 92.5543 73.2988 92.6323 72.9628 92.7883C72.6388 92.9323 72.3628 93.1243 72.1348 93.3643C71.9068 93.6043 71.7268 93.8743 71.5948 94.1743C71.4748 94.4623 71.4148 94.7503 71.4148 95.0383H76.5268ZM93.7525 99.9343C93.7525 100.582 93.6385 101.17 93.4105 101.698C93.1945 102.238 92.8825 102.7 92.4745 103.084C92.0665 103.48 91.5745 103.786 90.9985 104.002C90.4225 104.218 89.7865 104.326 89.0905 104.326C88.2745 104.326 87.5245 104.212 86.8405 103.984C86.1685 103.756 85.5265 103.36 84.9145 102.796L86.0125 101.428C86.4325 101.884 86.8885 102.226 87.3805 102.454C87.8725 102.694 88.4305 102.814 89.0545 102.814C89.6545 102.814 90.1525 102.724 90.5485 102.544C90.9445 102.376 91.2565 102.154 91.4845 101.878C91.7245 101.602 91.8925 101.284 91.9885 100.924C92.0845 100.576 92.1325 100.222 92.1325 99.8623V98.6023H92.0785C91.7665 99.1183 91.3405 99.5023 90.8005 99.7543C90.2725 99.9943 89.7145 100.114 89.1265 100.114C88.5025 100.114 87.9205 100.006 87.3805 99.7903C86.8525 99.5623 86.3965 99.2563 86.0125 98.8723C85.6285 98.4763 85.3285 98.0143 85.1125 97.4863C84.8965 96.9463 84.7885 96.3643 84.7885 95.7403C84.7885 95.1163 84.8905 94.5343 85.0945 93.9943C85.2985 93.4423 85.5865 92.9623 85.9585 92.5543C86.3425 92.1463 86.7985 91.8283 87.3265 91.6003C87.8665 91.3723 88.4665 91.2583 89.1265 91.2583C89.7025 91.2583 90.2605 91.3843 90.8005 91.6363C91.3525 91.8883 91.7845 92.2423 92.0965 92.6983H92.1325V91.4743H93.7525V99.9343ZM89.3245 92.7703C88.8925 92.7703 88.5025 92.8483 88.1545 93.0043C87.8065 93.1483 87.5125 93.3523 87.2725 93.6163C87.0325 93.8683 86.8465 94.1803 86.7145 94.5523C86.5825 94.9123 86.5165 95.3083 86.5165 95.7403C86.5165 96.6043 86.7685 97.3003 87.2725 97.8283C87.7765 98.3443 88.4605 98.6023 89.3245 98.6023C90.1885 98.6023 90.8725 98.3443 91.3765 97.8283C91.8805 97.3003 92.1325 96.6043 92.1325 95.7403C92.1325 95.3083 92.0665 94.9123 91.9345 94.5523C91.8025 94.1803 91.6165 93.8683 91.3765 93.6163C91.1365 93.3523 90.8425 93.1483 90.4945 93.0043C90.1465 92.8483 89.7565 92.7703 89.3245 92.7703ZM96.2064 91.4743H97.8264V92.7883H97.8624C97.9704 92.5603 98.1144 92.3563 98.2944 92.1763C98.4744 91.9843 98.6724 91.8223 98.8884 91.6903C99.1164 91.5583 99.3624 91.4563 99.6264 91.3843C99.8904 91.3003 100.154 91.2583 100.418 91.2583C100.682 91.2583 100.922 91.2943 101.138 91.3663L101.066 93.1123C100.934 93.0763 100.802 93.0463 100.67 93.0223C100.538 92.9983 100.406 92.9863 100.274 92.9863C99.4824 92.9863 98.8764 93.2083 98.4564 93.6523C98.0364 94.0963 97.8264 94.7863 97.8264 95.7223V100.006H96.2064V91.4743ZM103.776 96.3343C103.776 96.7063 103.854 97.0483 104.01 97.3603C104.178 97.6603 104.394 97.9183 104.658 98.1343C104.922 98.3503 105.228 98.5183 105.576 98.6383C105.924 98.7583 106.284 98.8183 106.656 98.8183C107.16 98.8183 107.598 98.7043 107.97 98.4763C108.342 98.2363 108.684 97.9243 108.996 97.5403L110.22 98.4763C109.32 99.6403 108.06 100.222 106.44 100.222C105.768 100.222 105.156 100.108 104.604 99.8803C104.064 99.6523 103.602 99.3403 103.218 98.9443C102.846 98.5363 102.558 98.0623 102.354 97.5223C102.15 96.9703 102.048 96.3763 102.048 95.7403C102.048 95.1043 102.156 94.5163 102.372 93.9763C102.6 93.4243 102.906 92.9503 103.29 92.5543C103.686 92.1463 104.154 91.8283 104.694 91.6003C105.234 91.3723 105.822 91.2583 106.458 91.2583C107.214 91.2583 107.85 91.3903 108.366 91.6543C108.894 91.9183 109.326 92.2663 109.662 92.6983C109.998 93.1183 110.238 93.5983 110.382 94.1383C110.538 94.6663 110.616 95.2063 110.616 95.7583V96.3343H103.776ZM108.888 95.0383C108.876 94.6783 108.816 94.3483 108.708 94.0483C108.612 93.7483 108.462 93.4903 108.258 93.2743C108.054 93.0463 107.796 92.8723 107.484 92.7523C107.184 92.6203 106.83 92.5543 106.422 92.5543C106.026 92.5543 105.66 92.6323 105.324 92.7883C105 92.9323 104.724 93.1243 104.496 93.3643C104.268 93.6043 104.088 93.8743 103.956 94.1743C103.836 94.4623 103.776 94.7503 103.776 95.0383H108.888ZM113.778 96.3343C113.778 96.7063 113.856 97.0483 114.012 97.3603C114.18 97.6603 114.396 97.9183 114.66 98.1343C114.924 98.3503 115.23 98.5183 115.578 98.6383C115.926 98.7583 116.286 98.8183 116.658 98.8183C117.162 98.8183 117.6 98.7043 117.972 98.4763C118.344 98.2363 118.686 97.9243 118.998 97.5403L120.222 98.4763C119.322 99.6403 118.062 100.222 116.442 100.222C115.77 100.222 115.158 100.108 114.606 99.8803C114.066 99.6523 113.604 99.3403 113.22 98.9443C112.848 98.5363 112.56 98.0623 112.356 97.5223C112.152 96.9703 112.05 96.3763 112.05 95.7403C112.05 95.1043 112.158 94.5163 112.374 93.9763C112.602 93.4243 112.908 92.9503 113.292 92.5543C113.688 92.1463 114.156 91.8283 114.696 91.6003C115.236 91.3723 115.824 91.2583 116.46 91.2583C117.216 91.2583 117.852 91.3903 118.368 91.6543C118.896 91.9183 119.328 92.2663 119.664 92.6983C120 93.1183 120.24 93.5983 120.384 94.1383C120.54 94.6663 120.618 95.2063 120.618 95.7583V96.3343H113.778ZM118.89 95.0383C118.878 94.6783 118.818 94.3483 118.71 94.0483C118.614 93.7483 118.464 93.4903 118.26 93.2743C118.056 93.0463 117.798 92.8723 117.486 92.7523C117.186 92.6203 116.832 92.5543 116.424 92.5543C116.028 92.5543 115.662 92.6323 115.326 92.7883C115.002 92.9323 114.726 93.1243 114.498 93.3643C114.27 93.6043 114.09 93.8743 113.958 94.1743C113.838 94.4623 113.778 94.7503 113.778 95.0383H118.89ZM122.556 91.4743H124.176V92.7883H124.212C124.416 92.3323 124.77 91.9663 125.274 91.6903C125.778 91.4023 126.36 91.2583 127.02 91.2583C127.428 91.2583 127.818 91.3243 128.19 91.4563C128.574 91.5763 128.904 91.7683 129.18 92.0323C129.468 92.2963 129.696 92.6383 129.864 93.0583C130.032 93.4663 130.116 93.9523 130.116 94.5163V100.006H128.496V94.9663C128.496 94.5703 128.442 94.2343 128.334 93.9583C128.226 93.6703 128.082 93.4423 127.902 93.2743C127.722 93.0943 127.512 92.9683 127.272 92.8963C127.044 92.8123 126.804 92.7703 126.552 92.7703C126.216 92.7703 125.904 92.8243 125.616 92.9323C125.328 93.0403 125.076 93.2143 124.86 93.4543C124.644 93.6823 124.476 93.9763 124.356 94.3363C124.236 94.6963 124.176 95.1223 124.176 95.6143V100.006H122.556V91.4743ZM142.14 92.8783H139.818V96.7483C139.818 96.9883 139.824 97.2283 139.836 97.4683C139.848 97.6963 139.89 97.9063 139.962 98.0983C140.046 98.2783 140.166 98.4283 140.322 98.5483C140.49 98.6563 140.73 98.7103 141.042 98.7103C141.234 98.7103 141.432 98.6923 141.636 98.6563C141.84 98.6203 142.026 98.5543 142.194 98.4583V99.9343C142.002 100.042 141.75 100.114 141.438 100.15C141.138 100.198 140.904 100.222 140.736 100.222C140.112 100.222 139.626 100.138 139.278 99.9703C138.942 99.7903 138.69 99.5623 138.522 99.2863C138.366 99.0103 138.27 98.7043 138.234 98.3683C138.21 98.0203 138.198 97.6723 138.198 97.3243V92.8783H136.326V91.4743H138.198V89.0803H139.818V91.4743H142.14V92.8783ZM145.454 96.3343C145.454 96.7063 145.532 97.0483 145.688 97.3603C145.856 97.6603 146.072 97.9183 146.336 98.1343C146.6 98.3503 146.906 98.5183 147.254 98.6383C147.602 98.7583 147.962 98.8183 148.334 98.8183C148.838 98.8183 149.276 98.7043 149.648 98.4763C150.02 98.2363 150.362 97.9243 150.674 97.5403L151.898 98.4763C150.998 99.6403 149.738 100.222 148.118 100.222C147.446 100.222 146.834 100.108 146.282 99.8803C145.742 99.6523 145.28 99.3403 144.896 98.9443C144.524 98.5363 144.236 98.0623 144.032 97.5223C143.828 96.9703 143.726 96.3763 143.726 95.7403C143.726 95.1043 143.834 94.5163 144.05 93.9763C144.278 93.4243 144.584 92.9503 144.968 92.5543C145.364 92.1463 145.832 91.8283 146.372 91.6003C146.912 91.3723 147.5 91.2583 148.136 91.2583C148.892 91.2583 149.528 91.3903 150.044 91.6543C150.572 91.9183 151.004 92.2663 151.34 92.6983C151.676 93.1183 151.916 93.5983 152.06 94.1383C152.216 94.6663 152.294 95.2063 152.294 95.7583V96.3343H145.454ZM150.566 95.0383C150.554 94.6783 150.494 94.3483 150.386 94.0483C150.29 93.7483 150.14 93.4903 149.936 93.2743C149.732 93.0463 149.474 92.8723 149.162 92.7523C148.862 92.6203 148.508 92.5543 148.1 92.5543C147.704 92.5543 147.338 92.6323 147.002 92.7883C146.678 92.9323 146.402 93.1243 146.174 93.3643C145.946 93.6043 145.766 93.8743 145.634 94.1743C145.514 94.4623 145.454 94.7503 145.454 95.0383H150.566ZM154.268 92.5183C154.724 92.0983 155.252 91.7863 155.852 91.5823C156.452 91.3663 157.052 91.2583 157.652 91.2583C158.276 91.2583 158.81 91.3363 159.254 91.4923C159.71 91.6483 160.082 91.8583 160.37 92.1223C160.658 92.3863 160.868 92.6923 161 93.0403C161.144 93.3763 161.216 93.7303 161.216 94.1023V98.4583C161.216 98.7583 161.222 99.0343 161.234 99.2863C161.246 99.5383 161.264 99.7783 161.288 100.006H159.848C159.812 99.5743 159.794 99.1423 159.794 98.7103H159.758C159.398 99.2623 158.972 99.6523 158.48 99.8803C157.988 100.108 157.418 100.222 156.77 100.222C156.374 100.222 155.996 100.168 155.636 100.06C155.276 99.9523 154.958 99.7903 154.682 99.5743C154.418 99.3583 154.208 99.0943 154.052 98.7823C153.896 98.4583 153.818 98.0863 153.818 97.6663C153.818 97.1143 153.938 96.6523 154.178 96.2803C154.43 95.9083 154.766 95.6083 155.186 95.3803C155.618 95.1403 156.116 94.9723 156.68 94.8763C157.256 94.7683 157.868 94.7143 158.516 94.7143H159.704V94.3543C159.704 94.1383 159.662 93.9223 159.578 93.7063C159.494 93.4903 159.368 93.2983 159.2 93.1303C159.032 92.9503 158.822 92.8123 158.57 92.7163C158.318 92.6083 158.018 92.5543 157.67 92.5543C157.358 92.5543 157.082 92.5843 156.842 92.6443C156.614 92.7043 156.404 92.7823 156.212 92.8783C156.02 92.9623 155.846 93.0643 155.69 93.1843C155.534 93.3043 155.384 93.4183 155.24 93.5263L154.268 92.5183ZM158.84 95.9023C158.456 95.9023 158.06 95.9263 157.652 95.9743C157.256 96.0103 156.89 96.0883 156.554 96.2083C156.23 96.3283 155.96 96.4963 155.744 96.7123C155.54 96.9283 155.438 97.2043 155.438 97.5403C155.438 98.0323 155.6 98.3863 155.924 98.6023C156.26 98.8183 156.71 98.9263 157.274 98.9263C157.718 98.9263 158.096 98.8543 158.408 98.7103C158.72 98.5543 158.972 98.3563 159.164 98.1163C159.356 97.8763 159.494 97.6123 159.578 97.3243C159.662 97.0243 159.704 96.7303 159.704 96.4423V95.9023H158.84ZM163.566 91.4743H165.078V92.8063H165.114C165.15 92.6863 165.24 92.5363 165.384 92.3563C165.54 92.1763 165.732 92.0083 165.96 91.8523C166.2 91.6843 166.476 91.5463 166.788 91.4383C167.112 91.3183 167.466 91.2583 167.85 91.2583C168.486 91.2583 169.02 91.3903 169.452 91.6543C169.884 91.9183 170.238 92.3143 170.514 92.8423C170.79 92.3143 171.18 91.9183 171.684 91.6543C172.188 91.3903 172.698 91.2583 173.214 91.2583C173.874 91.2583 174.414 91.3663 174.834 91.5823C175.254 91.7983 175.584 92.0863 175.824 92.4463C176.064 92.7943 176.226 93.1963 176.31 93.6523C176.406 94.0963 176.454 94.5583 176.454 95.0383V100.006H174.834V95.2543C174.834 94.9303 174.81 94.6183 174.762 94.3183C174.726 94.0183 174.642 93.7543 174.51 93.5263C174.378 93.2983 174.192 93.1183 173.952 92.9863C173.712 92.8423 173.394 92.7703 172.998 92.7703C172.218 92.7703 171.66 93.0103 171.324 93.4903C170.988 93.9703 170.82 94.5883 170.82 95.3443V100.006H169.2V95.5423C169.2 95.1343 169.176 94.7623 169.128 94.4263C169.092 94.0903 169.008 93.8023 168.876 93.5623C168.756 93.3103 168.576 93.1183 168.336 92.9863C168.108 92.8423 167.796 92.7703 167.4 92.7703C167.112 92.7703 166.83 92.8303 166.554 92.9503C166.29 93.0583 166.056 93.2263 165.852 93.4543C165.648 93.6823 165.486 93.9763 165.366 94.3363C165.246 94.6843 165.186 95.0983 165.186 95.5783V100.006H163.566V91.4743ZM184.03 91.4743H185.65V100.006H184.03V91.4743ZM183.652 88.4143C183.652 88.0903 183.766 87.8143 183.994 87.5863C184.234 87.3463 184.516 87.2263 184.84 87.2263C185.164 87.2263 185.44 87.3463 185.668 87.5863C185.908 87.8143 186.028 88.0903 186.028 88.4143C186.028 88.7383 185.908 89.0203 185.668 89.2603C185.44 89.4883 185.164 89.6023 184.84 89.6023C184.516 89.6023 184.234 89.4883 183.994 89.2603C183.766 89.0203 183.652 88.7383 183.652 88.4143ZM192.764 93.6163C192.572 93.3763 192.332 93.1783 192.044 93.0223C191.768 92.8543 191.426 92.7703 191.018 92.7703C190.634 92.7703 190.298 92.8543 190.01 93.0223C189.734 93.1783 189.596 93.4123 189.596 93.7243C189.596 93.9763 189.674 94.1803 189.83 94.3363C189.998 94.4923 190.19 94.6183 190.406 94.7143C190.634 94.8103 190.874 94.8823 191.126 94.9303C191.378 94.9783 191.594 95.0203 191.774 95.0563C192.122 95.1403 192.446 95.2423 192.746 95.3623C193.058 95.4823 193.322 95.6383 193.538 95.8303C193.766 96.0223 193.94 96.2563 194.06 96.5323C194.192 96.8083 194.258 97.1443 194.258 97.5403C194.258 98.0203 194.156 98.4343 193.952 98.7823C193.748 99.1183 193.484 99.3943 193.16 99.6103C192.836 99.8263 192.464 99.9823 192.044 100.078C191.636 100.174 191.222 100.222 190.802 100.222C190.094 100.222 189.47 100.114 188.93 99.8983C188.402 99.6823 187.928 99.2863 187.508 98.7103L188.732 97.7023C188.996 97.9663 189.29 98.2003 189.614 98.4043C189.938 98.6083 190.334 98.7103 190.802 98.7103C191.006 98.7103 191.21 98.6923 191.414 98.6563C191.63 98.6083 191.816 98.5423 191.972 98.4583C192.14 98.3623 192.272 98.2483 192.368 98.1163C192.476 97.9723 192.53 97.8103 192.53 97.6303C192.53 97.3903 192.452 97.1923 192.296 97.0363C192.152 96.8803 191.972 96.7603 191.756 96.6763C191.552 96.5803 191.33 96.5083 191.09 96.4603C190.862 96.4003 190.658 96.3523 190.478 96.3163C190.13 96.2323 189.8 96.1363 189.488 96.0283C189.176 95.9203 188.9 95.7763 188.66 95.5963C188.42 95.4163 188.228 95.1883 188.084 94.9123C187.94 94.6363 187.868 94.2943 187.868 93.8863C187.868 93.4423 187.958 93.0583 188.138 92.7343C188.33 92.3983 188.576 92.1223 188.876 91.9063C189.188 91.6903 189.536 91.5283 189.92 91.4203C190.316 91.3123 190.712 91.2583 191.108 91.2583C191.684 91.2583 192.236 91.3663 192.764 91.5823C193.292 91.7983 193.712 92.1583 194.024 92.6623L192.764 93.6163ZM303.371 96.3343H285.371V94.9303H303.371V96.3343ZM51.7522 117.518C52.2082 117.098 52.7362 116.786 53.3362 116.582C53.9362 116.366 54.5362 116.258 55.1362 116.258C55.7602 116.258 56.2942 116.336 56.7382 116.492C57.1942 116.648 57.5662 116.858 57.8542 117.122C58.1422 117.386 58.3522 117.692 58.4842 118.04C58.6282 118.376 58.7002 118.73 58.7002 119.102V123.458C58.7002 123.758 58.7062 124.034 58.7182 124.286C58.7302 124.538 58.7482 124.778 58.7722 125.006H57.3322C57.2962 124.574 57.2782 124.142 57.2782 123.71H57.2422C56.8822 124.262 56.4562 124.652 55.9642 124.88C55.4722 125.108 54.9022 125.222 54.2542 125.222C53.8582 125.222 53.4802 125.168 53.1202 125.06C52.7602 124.952 52.4422 124.79 52.1662 124.574C51.9022 124.358 51.6922 124.094 51.5362 123.782C51.3802 123.458 51.3022 123.086 51.3022 122.666C51.3022 122.114 51.4222 121.652 51.6622 121.28C51.9142 120.908 52.2502 120.608 52.6702 120.38C53.1022 120.14 53.6002 119.972 54.1642 119.876C54.7402 119.768 55.3522 119.714 56.0002 119.714H57.1882V119.354C57.1882 119.138 57.1462 118.922 57.0622 118.706C56.9782 118.49 56.8522 118.298 56.6842 118.13C56.5162 117.95 56.3062 117.812 56.0542 117.716C55.8022 117.608 55.5022 117.554 55.1542 117.554C54.8422 117.554 54.5662 117.584 54.3262 117.644C54.0982 117.704 53.8882 117.782 53.6962 117.878C53.5042 117.962 53.3302 118.064 53.1742 118.184C53.0182 118.304 52.8682 118.418 52.7242 118.526L51.7522 117.518ZM56.3242 120.902C55.9402 120.902 55.5442 120.926 55.1362 120.974C54.7402 121.01 54.3742 121.088 54.0382 121.208C53.7142 121.328 53.4442 121.496 53.2282 121.712C53.0242 121.928 52.9222 122.204 52.9222 122.54C52.9222 123.032 53.0842 123.386 53.4082 123.602C53.7442 123.818 54.1942 123.926 54.7582 123.926C55.2022 123.926 55.5802 123.854 55.8922 123.71C56.2042 123.554 56.4562 123.356 56.6482 123.116C56.8402 122.876 56.9782 122.612 57.0622 122.324C57.1462 122.024 57.1882 121.73 57.1882 121.442V120.902H56.3242ZM61.1762 111.398H62.7962V125.006H61.1762V111.398ZM64.3484 116.474H66.1664L68.0924 122.846H68.1284L70.1624 116.474H71.8724L74.0324 122.846H74.0684L75.9044 116.474H77.6144L74.8604 125.006H73.2224L70.9724 118.634H70.9364L68.9024 125.006H67.1564L64.3484 116.474ZM79.0686 117.518C79.5246 117.098 80.0526 116.786 80.6526 116.582C81.2526 116.366 81.8526 116.258 82.4526 116.258C83.0766 116.258 83.6106 116.336 84.0546 116.492C84.5106 116.648 84.8826 116.858 85.1706 117.122C85.4586 117.386 85.6686 117.692 85.8006 118.04C85.9446 118.376 86.0166 118.73 86.0166 119.102V123.458C86.0166 123.758 86.0226 124.034 86.0346 124.286C86.0466 124.538 86.0646 124.778 86.0886 125.006H84.6486C84.6126 124.574 84.5946 124.142 84.5946 123.71H84.5586C84.1986 124.262 83.7726 124.652 83.2806 124.88C82.7886 125.108 82.2186 125.222 81.5706 125.222C81.1746 125.222 80.7966 125.168 80.4366 125.06C80.0766 124.952 79.7586 124.79 79.4826 124.574C79.2186 124.358 79.0086 124.094 78.8526 123.782C78.6966 123.458 78.6186 123.086 78.6186 122.666C78.6186 122.114 78.7386 121.652 78.9786 121.28C79.2306 120.908 79.5666 120.608 79.9866 120.38C80.4186 120.14 80.9166 119.972 81.4806 119.876C82.0566 119.768 82.6686 119.714 83.3166 119.714H84.5046V119.354C84.5046 119.138 84.4626 118.922 84.3786 118.706C84.2946 118.49 84.1686 118.298 84.0006 118.13C83.8326 117.95 83.6226 117.812 83.3706 117.716C83.1186 117.608 82.8186 117.554 82.4706 117.554C82.1586 117.554 81.8826 117.584 81.6426 117.644C81.4146 117.704 81.2046 117.782 81.0126 117.878C80.8206 117.962 80.6466 118.064 80.4906 118.184C80.3346 118.304 80.1846 118.418 80.0406 118.526L79.0686 117.518ZM83.6406 120.902C83.2566 120.902 82.8606 120.926 82.4526 120.974C82.0566 121.01 81.6906 121.088 81.3546 121.208C81.0306 121.328 80.7606 121.496 80.5446 121.712C80.3406 121.928 80.2386 122.204 80.2386 122.54C80.2386 123.032 80.4006 123.386 80.7246 123.602C81.0606 123.818 81.5106 123.926 82.0746 123.926C82.5186 123.926 82.8966 123.854 83.2086 123.71C83.5206 123.554 83.7726 123.356 83.9646 123.116C84.1566 122.876 84.2946 122.612 84.3786 122.324C84.4626 122.024 84.5046 121.73 84.5046 121.442V120.902H83.6406ZM87.3406 116.474H89.2126L91.7506 123.134H91.7866L94.1986 116.474H95.9446L91.8946 126.842C91.7506 127.214 91.6006 127.55 91.4446 127.85C91.2886 128.162 91.1026 128.426 90.8866 128.642C90.6706 128.858 90.4066 129.026 90.0946 129.146C89.7946 129.266 89.4226 129.326 88.9786 129.326C88.7386 129.326 88.4926 129.308 88.2406 129.272C88.0006 129.248 87.7666 129.188 87.5386 129.092L87.7366 127.616C88.0606 127.748 88.3846 127.814 88.7086 127.814C88.9606 127.814 89.1706 127.778 89.3386 127.706C89.5186 127.646 89.6686 127.55 89.7886 127.418C89.9206 127.298 90.0286 127.154 90.1126 126.986C90.1966 126.818 90.2806 126.626 90.3646 126.41L90.8866 125.06L87.3406 116.474ZM101.903 118.616C101.711 118.376 101.471 118.178 101.183 118.022C100.907 117.854 100.565 117.77 100.157 117.77C99.7726 117.77 99.4366 117.854 99.1486 118.022C98.8726 118.178 98.7346 118.412 98.7346 118.724C98.7346 118.976 98.8126 119.18 98.9686 119.336C99.1366 119.492 99.3286 119.618 99.5446 119.714C99.7726 119.81 100.013 119.882 100.265 119.93C100.517 119.978 100.733 120.02 100.913 120.056C101.261 120.14 101.585 120.242 101.885 120.362C102.197 120.482 102.461 120.638 102.677 120.83C102.905 121.022 103.079 121.256 103.199 121.532C103.331 121.808 103.397 122.144 103.397 122.54C103.397 123.02 103.295 123.434 103.091 123.782C102.887 124.118 102.623 124.394 102.299 124.61C101.975 124.826 101.603 124.982 101.183 125.078C100.775 125.174 100.361 125.222 99.9406 125.222C99.2326 125.222 98.6086 125.114 98.0686 124.898C97.5406 124.682 97.0666 124.286 96.6466 123.71L97.8706 122.702C98.1346 122.966 98.4286 123.2 98.7526 123.404C99.0766 123.608 99.4726 123.71 99.9406 123.71C100.145 123.71 100.349 123.692 100.553 123.656C100.769 123.608 100.955 123.542 101.111 123.458C101.279 123.362 101.411 123.248 101.507 123.116C101.615 122.972 101.669 122.81 101.669 122.63C101.669 122.39 101.591 122.192 101.435 122.036C101.291 121.88 101.111 121.76 100.895 121.676C100.691 121.58 100.469 121.508 100.229 121.46C100.001 121.4 99.7966 121.352 99.6166 121.316C99.2686 121.232 98.9386 121.136 98.6266 121.028C98.3146 120.92 98.0386 120.776 97.7986 120.596C97.5586 120.416 97.3666 120.188 97.2226 119.912C97.0786 119.636 97.0066 119.294 97.0066 118.886C97.0066 118.442 97.0966 118.058 97.2766 117.734C97.4686 117.398 97.7146 117.122 98.0146 116.906C98.3266 116.69 98.6746 116.528 99.0586 116.42C99.4546 116.312 99.8506 116.258 100.247 116.258C100.823 116.258 101.375 116.366 101.903 116.582C102.431 116.798 102.851 117.158 103.163 117.662L101.903 118.616ZM186.102 117.518C186.558 117.098 187.086 116.786 187.686 116.582C188.286 116.366 188.886 116.258 189.486 116.258C190.11 116.258 190.644 116.336 191.088 116.492C191.544 116.648 191.916 116.858 192.204 117.122C192.492 117.386 192.702 117.692 192.834 118.04C192.978 118.376 193.05 118.73 193.05 119.102V123.458C193.05 123.758 193.056 124.034 193.068 124.286C193.08 124.538 193.098 124.778 193.122 125.006H191.682C191.646 124.574 191.628 124.142 191.628 123.71H191.592C191.232 124.262 190.806 124.652 190.314 124.88C189.822 125.108 189.252 125.222 188.604 125.222C188.208 125.222 187.83 125.168 187.47 125.06C187.11 124.952 186.792 124.79 186.516 124.574C186.252 124.358 186.042 124.094 185.886 123.782C185.73 123.458 185.652 123.086 185.652 122.666C185.652 122.114 185.772 121.652 186.012 121.28C186.264 120.908 186.6 120.608 187.02 120.38C187.452 120.14 187.95 119.972 188.514 119.876C189.09 119.768 189.702 119.714 190.35 119.714H191.538V119.354C191.538 119.138 191.496 118.922 191.412 118.706C191.328 118.49 191.202 118.298 191.034 118.13C190.866 117.95 190.656 117.812 190.404 117.716C190.152 117.608 189.852 117.554 189.504 117.554C189.192 117.554 188.916 117.584 188.676 117.644C188.448 117.704 188.238 117.782 188.046 117.878C187.854 117.962 187.68 118.064 187.524 118.184C187.368 118.304 187.218 118.418 187.074 118.526L186.102 117.518ZM190.674 120.902C190.29 120.902 189.894 120.926 189.486 120.974C189.09 121.01 188.724 121.088 188.388 121.208C188.064 121.328 187.794 121.496 187.578 121.712C187.374 121.928 187.272 122.204 187.272 122.54C187.272 123.032 187.434 123.386 187.758 123.602C188.094 123.818 188.544 123.926 189.108 123.926C189.552 123.926 189.93 123.854 190.242 123.71C190.554 123.554 190.806 123.356 190.998 123.116C191.19 122.876 191.328 122.612 191.412 122.324C191.496 122.024 191.538 121.73 191.538 121.442V120.902H190.674ZM195.4 116.474H197.02V117.788H197.056C197.26 117.332 197.614 116.966 198.118 116.69C198.622 116.402 199.204 116.258 199.864 116.258C200.272 116.258 200.662 116.324 201.034 116.456C201.418 116.576 201.748 116.768 202.024 117.032C202.312 117.296 202.54 117.638 202.708 118.058C202.876 118.466 202.96 118.952 202.96 119.516V125.006H201.34V119.966C201.34 119.57 201.286 119.234 201.178 118.958C201.07 118.67 200.926 118.442 200.746 118.274C200.566 118.094 200.356 117.968 200.116 117.896C199.888 117.812 199.648 117.77 199.396 117.77C199.06 117.77 198.748 117.824 198.46 117.932C198.172 118.04 197.92 118.214 197.704 118.454C197.488 118.682 197.32 118.976 197.2 119.336C197.08 119.696 197.02 120.122 197.02 120.614V125.006H195.4V116.474ZM213.952 125.006H212.332V123.782H212.296C211.984 124.238 211.552 124.592 211 124.844C210.46 125.096 209.902 125.222 209.326 125.222C208.666 125.222 208.066 125.108 207.526 124.88C206.998 124.652 206.542 124.334 206.158 123.926C205.786 123.518 205.498 123.044 205.294 122.504C205.09 121.964 204.988 121.376 204.988 120.74C204.988 120.104 205.09 119.516 205.294 118.976C205.498 118.424 205.786 117.95 206.158 117.554C206.542 117.146 206.998 116.828 207.526 116.6C208.066 116.372 208.666 116.258 209.326 116.258C209.938 116.258 210.514 116.39 211.054 116.654C211.594 116.906 212.008 117.254 212.296 117.698H212.332V111.398H213.952V125.006ZM209.524 123.71C209.956 123.71 210.346 123.638 210.694 123.494C211.042 123.338 211.336 123.134 211.576 122.882C211.816 122.618 212.002 122.306 212.134 121.946C212.266 121.574 212.332 121.172 212.332 120.74C212.332 120.308 212.266 119.912 212.134 119.552C212.002 119.18 211.816 118.868 211.576 118.616C211.336 118.352 211.042 118.148 210.694 118.004C210.346 117.848 209.956 117.77 209.524 117.77C209.092 117.77 208.702 117.848 208.354 118.004C208.006 118.148 207.712 118.352 207.472 118.616C207.232 118.868 207.046 119.18 206.914 119.552C206.782 119.912 206.716 120.308 206.716 120.74C206.716 121.172 206.782 121.574 206.914 121.946C207.046 122.306 207.232 122.618 207.472 122.882C207.712 123.134 208.006 123.338 208.354 123.494C208.702 123.638 209.092 123.71 209.524 123.71ZM225.987 117.878H223.665V121.748C223.665 121.988 223.671 122.228 223.683 122.468C223.695 122.696 223.737 122.906 223.809 123.098C223.893 123.278 224.013 123.428 224.169 123.548C224.337 123.656 224.577 123.71 224.889 123.71C225.081 123.71 225.279 123.692 225.483 123.656C225.687 123.62 225.873 123.554 226.041 123.458V124.934C225.849 125.042 225.597 125.114 225.285 125.15C224.985 125.198 224.751 125.222 224.583 125.222C223.959 125.222 223.473 125.138 223.125 124.97C222.789 124.79 222.537 124.562 222.369 124.286C222.213 124.01 222.117 123.704 222.081 123.368C222.057 123.02 222.045 122.672 222.045 122.324V117.878H220.173V116.474H222.045V114.08H223.665V116.474H225.987V117.878ZM228.078 111.398H229.698V117.788H229.734C229.938 117.332 230.292 116.966 230.796 116.69C231.3 116.402 231.882 116.258 232.542 116.258C232.95 116.258 233.34 116.324 233.712 116.456C234.096 116.576 234.426 116.768 234.702 117.032C234.99 117.296 235.218 117.638 235.386 118.058C235.554 118.466 235.638 118.952 235.638 119.516V125.006H234.018V119.966C234.018 119.57 233.964 119.234 233.856 118.958C233.748 118.67 233.604 118.442 233.424 118.274C233.244 118.094 233.034 117.968 232.794 117.896C232.566 117.812 232.326 117.77 232.074 117.77C231.738 117.77 231.426 117.824 231.138 117.932C230.85 118.04 230.598 118.214 230.382 118.454C230.166 118.682 229.998 118.976 229.878 119.336C229.758 119.696 229.698 120.122 229.698 120.614V125.006H228.078V111.398ZM238.079 116.474H239.699V117.788H239.735C239.843 117.56 239.987 117.356 240.167 117.176C240.347 116.984 240.545 116.822 240.761 116.69C240.989 116.558 241.235 116.456 241.499 116.384C241.763 116.3 242.027 116.258 242.291 116.258C242.555 116.258 242.795 116.294 243.011 116.366L242.939 118.112C242.807 118.076 242.675 118.046 242.543 118.022C242.411 117.998 242.279 117.986 242.147 117.986C241.355 117.986 240.749 118.208 240.329 118.652C239.909 119.096 239.699 119.786 239.699 120.722V125.006H238.079V116.474ZM244.868 116.474H246.488V125.006H244.868V116.474ZM244.49 113.414C244.49 113.09 244.604 112.814 244.832 112.586C245.072 112.346 245.354 112.226 245.678 112.226C246.002 112.226 246.278 112.346 246.506 112.586C246.746 112.814 246.866 113.09 246.866 113.414C246.866 113.738 246.746 114.02 246.506 114.26C246.278 114.488 246.002 114.602 245.678 114.602C245.354 114.602 245.072 114.488 244.832 114.26C244.604 114.02 244.49 113.738 244.49 113.414ZM248.04 116.474H249.912L252.468 123.008L254.916 116.474H256.644L253.296 125.006H251.514L248.04 116.474ZM258.192 116.474H259.812V125.006H258.192V116.474ZM257.814 113.414C257.814 113.09 257.928 112.814 258.156 112.586C258.396 112.346 258.678 112.226 259.002 112.226C259.326 112.226 259.602 112.346 259.83 112.586C260.07 112.814 260.19 113.09 260.19 113.414C260.19 113.738 260.07 114.02 259.83 114.26C259.602 114.488 259.326 114.602 259.002 114.602C258.678 114.602 258.396 114.488 258.156 114.26C257.928 114.02 257.814 113.738 257.814 113.414ZM262.39 116.474H264.01V117.788H264.046C264.25 117.332 264.604 116.966 265.108 116.69C265.612 116.402 266.194 116.258 266.854 116.258C267.262 116.258 267.652 116.324 268.024 116.456C268.408 116.576 268.738 116.768 269.014 117.032C269.302 117.296 269.53 117.638 269.698 118.058C269.866 118.466 269.95 118.952 269.95 119.516V125.006H268.33V119.966C268.33 119.57 268.276 119.234 268.168 118.958C268.06 118.67 267.916 118.442 267.736 118.274C267.556 118.094 267.346 117.968 267.106 117.896C266.878 117.812 266.638 117.77 266.386 117.77C266.05 117.77 265.738 117.824 265.45 117.932C265.162 118.04 264.91 118.214 264.694 118.454C264.478 118.682 264.31 118.976 264.19 119.336C264.07 119.696 264.01 120.122 264.01 120.614V125.006H262.39V116.474ZM280.942 124.934C280.942 125.582 280.828 126.17 280.6 126.698C280.384 127.238 280.072 127.7 279.664 128.084C279.256 128.48 278.764 128.786 278.188 129.002C277.612 129.218 276.976 129.326 276.28 129.326C275.464 129.326 274.714 129.212 274.03 128.984C273.358 128.756 272.716 128.36 272.104 127.796L273.202 126.428C273.622 126.884 274.078 127.226 274.57 127.454C275.062 127.694 275.62 127.814 276.244 127.814C276.844 127.814 277.342 127.724 277.738 127.544C278.134 127.376 278.446 127.154 278.674 126.878C278.914 126.602 279.082 126.284 279.178 125.924C279.274 125.576 279.322 125.222 279.322 124.862V123.602H279.268C278.956 124.118 278.53 124.502 277.99 124.754C277.462 124.994 276.904 125.114 276.316 125.114C275.692 125.114 275.11 125.006 274.57 124.79C274.042 124.562 273.586 124.256 273.202 123.872C272.818 123.476 272.518 123.014 272.302 122.486C272.086 121.946 271.978 121.364 271.978 120.74C271.978 120.116 272.08 119.534 272.284 118.994C272.488 118.442 272.776 117.962 273.148 117.554C273.532 117.146 273.988 116.828 274.516 116.6C275.056 116.372 275.656 116.258 276.316 116.258C276.892 116.258 277.45 116.384 277.99 116.636C278.542 116.888 278.974 117.242 279.286 117.698H279.322V116.474H280.942V124.934ZM276.514 117.77C276.082 117.77 275.692 117.848 275.344 118.004C274.996 118.148 274.702 118.352 274.462 118.616C274.222 118.868 274.036 119.18 273.904 119.552C273.772 119.912 273.706 120.308 273.706 120.74C273.706 121.604 273.958 122.3 274.462 122.828C274.966 123.344 275.65 123.602 276.514 123.602C277.378 123.602 278.062 123.344 278.566 122.828C279.07 122.3 279.322 121.604 279.322 120.74C279.322 120.308 279.256 119.912 279.124 119.552C278.992 119.18 278.806 118.868 278.566 118.616C278.326 118.352 278.032 118.148 277.684 118.004C277.336 117.848 276.946 117.77 276.514 117.77ZM288.532 116.474H290.152V125.006H288.532V116.474ZM288.154 113.414C288.154 113.09 288.268 112.814 288.496 112.586C288.736 112.346 289.018 112.226 289.342 112.226C289.666 112.226 289.942 112.346 290.17 112.586C290.41 112.814 290.53 113.09 290.53 113.414C290.53 113.738 290.41 114.02 290.17 114.26C289.942 114.488 289.666 114.602 289.342 114.602C289.018 114.602 288.736 114.488 288.496 114.26C288.268 114.02 288.154 113.738 288.154 113.414ZM292.73 116.474H294.35V117.788H294.386C294.59 117.332 294.944 116.966 295.448 116.69C295.952 116.402 296.534 116.258 297.194 116.258C297.602 116.258 297.992 116.324 298.364 116.456C298.748 116.576 299.078 116.768 299.354 117.032C299.642 117.296 299.87 117.638 300.038 118.058C300.206 118.466 300.29 118.952 300.29 119.516V125.006H298.67V119.966C298.67 119.57 298.616 119.234 298.508 118.958C298.4 118.67 298.256 118.442 298.076 118.274C297.896 118.094 297.686 117.968 297.446 117.896C297.218 117.812 296.978 117.77 296.726 117.77C296.39 117.77 296.078 117.824 295.79 117.932C295.502 118.04 295.25 118.214 295.034 118.454C294.818 118.682 294.65 118.976 294.53 119.336C294.41 119.696 294.35 120.122 294.35 120.614V125.006H292.73V116.474ZM93.7103 141.474H95.3303V142.788H95.3663C95.5703 142.332 95.9243 141.966 96.4283 141.69C96.9323 141.402 97.5143 141.258 98.1743 141.258C98.5823 141.258 98.9723 141.324 99.3443 141.456C99.7283 141.576 100.058 141.768 100.334 142.032C100.622 142.296 100.85 142.638 101.018 143.058C101.186 143.466 101.27 143.952 101.27 144.516V150.006H99.6503V144.966C99.6503 144.57 99.5963 144.234 99.4883 143.958C99.3803 143.67 99.2363 143.442 99.0563 143.274C98.8763 143.094 98.6663 142.968 98.4263 142.896C98.1983 142.812 97.9583 142.77 97.7063 142.77C97.3703 142.77 97.0583 142.824 96.7703 142.932C96.4823 143.04 96.2303 143.214 96.0143 143.454C95.7983 143.682 95.6303 143.976 95.5103 144.336C95.3903 144.696 95.3303 145.122 95.3303 145.614V150.006H93.7103V141.474ZM104.936 146.334C104.936 146.706 105.014 147.048 105.17 147.36C105.338 147.66 105.554 147.918 105.818 148.134C106.082 148.35 106.388 148.518 106.736 148.638C107.084 148.758 107.444 148.818 107.816 148.818C108.32 148.818 108.758 148.704 109.13 148.476C109.502 148.236 109.844 147.924 110.156 147.54L111.38 148.476C110.48 149.64 109.22 150.222 107.6 150.222C106.928 150.222 106.316 150.108 105.764 149.88C105.224 149.652 104.762 149.34 104.378 148.944C104.006 148.536 103.718 148.062 103.514 147.522C103.31 146.97 103.208 146.376 103.208 145.74C103.208 145.104 103.316 144.516 103.532 143.976C103.76 143.424 104.066 142.95 104.45 142.554C104.846 142.146 105.314 141.828 105.854 141.6C106.394 141.372 106.982 141.258 107.618 141.258C108.374 141.258 109.01 141.39 109.526 141.654C110.054 141.918 110.486 142.266 110.822 142.698C111.158 143.118 111.398 143.598 111.542 144.138C111.698 144.666 111.776 145.206 111.776 145.758V146.334H104.936ZM110.048 145.038C110.036 144.678 109.976 144.348 109.868 144.048C109.772 143.748 109.622 143.49 109.418 143.274C109.214 143.046 108.956 142.872 108.644 142.752C108.344 142.62 107.99 142.554 107.582 142.554C107.186 142.554 106.82 142.632 106.484 142.788C106.16 142.932 105.884 143.124 105.656 143.364C105.428 143.604 105.248 143.874 105.116 144.174C104.996 144.462 104.936 144.75 104.936 145.038H110.048ZM112.688 141.474H114.506L116.432 147.846H116.468L118.502 141.474H120.212L122.372 147.846H122.408L124.244 141.474H125.954L123.2 150.006H121.562L119.312 143.634H119.276L117.242 150.006H115.496L112.688 141.474ZM132.418 142.518C132.874 142.098 133.402 141.786 134.002 141.582C134.602 141.366 135.202 141.258 135.802 141.258C136.426 141.258 136.96 141.336 137.404 141.492C137.86 141.648 138.232 141.858 138.52 142.122C138.808 142.386 139.018 142.692 139.15 143.04C139.294 143.376 139.366 143.73 139.366 144.102V148.458C139.366 148.758 139.372 149.034 139.384 149.286C139.396 149.538 139.414 149.778 139.438 150.006H137.998C137.962 149.574 137.944 149.142 137.944 148.71H137.908C137.548 149.262 137.122 149.652 136.63 149.88C136.138 150.108 135.568 150.222 134.92 150.222C134.524 150.222 134.146 150.168 133.786 150.06C133.426 149.952 133.108 149.79 132.832 149.574C132.568 149.358 132.358 149.094 132.202 148.782C132.046 148.458 131.968 148.086 131.968 147.666C131.968 147.114 132.088 146.652 132.328 146.28C132.58 145.908 132.916 145.608 133.336 145.38C133.768 145.14 134.266 144.972 134.83 144.876C135.406 144.768 136.018 144.714 136.666 144.714H137.854V144.354C137.854 144.138 137.812 143.922 137.728 143.706C137.644 143.49 137.518 143.298 137.35 143.13C137.182 142.95 136.972 142.812 136.72 142.716C136.468 142.608 136.168 142.554 135.82 142.554C135.508 142.554 135.232 142.584 134.992 142.644C134.764 142.704 134.554 142.782 134.362 142.878C134.17 142.962 133.996 143.064 133.84 143.184C133.684 143.304 133.534 143.418 133.39 143.526L132.418 142.518ZM136.99 145.902C136.606 145.902 136.21 145.926 135.802 145.974C135.406 146.01 135.04 146.088 134.704 146.208C134.38 146.328 134.11 146.496 133.894 146.712C133.69 146.928 133.588 147.204 133.588 147.54C133.588 148.032 133.75 148.386 134.074 148.602C134.41 148.818 134.86 148.926 135.424 148.926C135.868 148.926 136.246 148.854 136.558 148.71C136.87 148.554 137.122 148.356 137.314 148.116C137.506 147.876 137.644 147.612 137.728 147.324C137.812 147.024 137.854 146.73 137.854 146.442V145.902H136.99ZM141.716 141.474H143.336V142.788H143.372C143.576 142.332 143.93 141.966 144.434 141.69C144.938 141.402 145.52 141.258 146.18 141.258C146.588 141.258 146.978 141.324 147.35 141.456C147.734 141.576 148.064 141.768 148.34 142.032C148.628 142.296 148.856 142.638 149.024 143.058C149.192 143.466 149.276 143.952 149.276 144.516V150.006H147.656V144.966C147.656 144.57 147.602 144.234 147.494 143.958C147.386 143.67 147.242 143.442 147.062 143.274C146.882 143.094 146.672 142.968 146.432 142.896C146.204 142.812 145.964 142.77 145.712 142.77C145.376 142.77 145.064 142.824 144.776 142.932C144.488 143.04 144.236 143.214 144.02 143.454C143.804 143.682 143.636 143.976 143.516 144.336C143.396 144.696 143.336 145.122 143.336 145.614V150.006H141.716V141.474ZM160.268 150.006H158.648V148.782H158.612C158.3 149.238 157.868 149.592 157.316 149.844C156.776 150.096 156.218 150.222 155.642 150.222C154.982 150.222 154.382 150.108 153.842 149.88C153.314 149.652 152.858 149.334 152.474 148.926C152.102 148.518 151.814 148.044 151.61 147.504C151.406 146.964 151.304 146.376 151.304 145.74C151.304 145.104 151.406 144.516 151.61 143.976C151.814 143.424 152.102 142.95 152.474 142.554C152.858 142.146 153.314 141.828 153.842 141.6C154.382 141.372 154.982 141.258 155.642 141.258C156.254 141.258 156.83 141.39 157.37 141.654C157.91 141.906 158.324 142.254 158.612 142.698H158.648V136.398H160.268V150.006ZM155.84 148.71C156.272 148.71 156.662 148.638 157.01 148.494C157.358 148.338 157.652 148.134 157.892 147.882C158.132 147.618 158.318 147.306 158.45 146.946C158.582 146.574 158.648 146.172 158.648 145.74C158.648 145.308 158.582 144.912 158.45 144.552C158.318 144.18 158.132 143.868 157.892 143.616C157.652 143.352 157.358 143.148 157.01 143.004C156.662 142.848 156.272 142.77 155.84 142.77C155.408 142.77 155.018 142.848 154.67 143.004C154.322 143.148 154.028 143.352 153.788 143.616C153.548 143.868 153.362 144.18 153.23 144.552C153.098 144.912 153.032 145.308 153.032 145.74C153.032 146.172 153.098 146.574 153.23 146.946C153.362 147.306 153.548 147.618 153.788 147.882C154.028 148.134 154.322 148.338 154.67 148.494C155.018 148.638 155.408 148.71 155.84 148.71ZM173.834 143.742C173.534 143.43 173.216 143.196 172.88 143.04C172.556 142.872 172.166 142.788 171.71 142.788C171.266 142.788 170.876 142.872 170.54 143.04C170.216 143.196 169.94 143.418 169.712 143.706C169.496 143.982 169.328 144.306 169.208 144.678C169.1 145.038 169.046 145.416 169.046 145.812C169.046 146.208 169.112 146.586 169.244 146.946C169.376 147.294 169.562 147.6 169.802 147.864C170.042 148.128 170.33 148.338 170.666 148.494C171.002 148.638 171.38 148.71 171.8 148.71C172.256 148.71 172.646 148.632 172.97 148.476C173.294 148.308 173.594 148.068 173.87 147.756L175.022 148.908C174.602 149.376 174.11 149.712 173.546 149.916C172.994 150.12 172.406 150.222 171.782 150.222C171.122 150.222 170.516 150.114 169.964 149.898C169.424 149.682 168.956 149.382 168.56 148.998C168.164 148.602 167.858 148.134 167.642 147.594C167.426 147.042 167.318 146.436 167.318 145.776C167.318 145.116 167.426 144.51 167.642 143.958C167.858 143.406 168.158 142.932 168.542 142.536C168.938 142.14 169.406 141.834 169.946 141.618C170.498 141.39 171.11 141.276 171.782 141.276C172.406 141.276 173 141.39 173.564 141.618C174.14 141.834 174.638 142.17 175.058 142.626L173.834 143.742ZM176.415 136.398H178.035V142.788H178.071C178.275 142.332 178.629 141.966 179.133 141.69C179.637 141.402 180.219 141.258 180.879 141.258C181.287 141.258 181.677 141.324 182.049 141.456C182.433 141.576 182.763 141.768 183.039 142.032C183.327 142.296 183.555 142.638 183.723 143.058C183.891 143.466 183.975 143.952 183.975 144.516V150.006H182.355V144.966C182.355 144.57 182.301 144.234 182.193 143.958C182.085 143.67 181.941 143.442 181.761 143.274C181.581 143.094 181.371 142.968 181.131 142.896C180.903 142.812 180.663 142.77 180.411 142.77C180.075 142.77 179.763 142.824 179.475 142.932C179.187 143.04 178.935 143.214 178.719 143.454C178.503 143.682 178.335 143.976 178.215 144.336C178.095 144.696 178.035 145.122 178.035 145.614V150.006H176.415V136.398ZM186.453 142.518C186.909 142.098 187.437 141.786 188.037 141.582C188.637 141.366 189.237 141.258 189.837 141.258C190.461 141.258 190.995 141.336 191.439 141.492C191.895 141.648 192.267 141.858 192.555 142.122C192.843 142.386 193.053 142.692 193.185 143.04C193.329 143.376 193.401 143.73 193.401 144.102V148.458C193.401 148.758 193.407 149.034 193.419 149.286C193.431 149.538 193.449 149.778 193.473 150.006H192.033C191.997 149.574 191.979 149.142 191.979 148.71H191.943C191.583 149.262 191.157 149.652 190.665 149.88C190.173 150.108 189.603 150.222 188.955 150.222C188.559 150.222 188.181 150.168 187.821 150.06C187.461 149.952 187.143 149.79 186.867 149.574C186.603 149.358 186.393 149.094 186.237 148.782C186.081 148.458 186.003 148.086 186.003 147.666C186.003 147.114 186.123 146.652 186.363 146.28C186.615 145.908 186.951 145.608 187.371 145.38C187.803 145.14 188.301 144.972 188.865 144.876C189.441 144.768 190.053 144.714 190.701 144.714H191.889V144.354C191.889 144.138 191.847 143.922 191.763 143.706C191.679 143.49 191.553 143.298 191.385 143.13C191.217 142.95 191.007 142.812 190.755 142.716C190.503 142.608 190.203 142.554 189.855 142.554C189.543 142.554 189.267 142.584 189.027 142.644C188.799 142.704 188.589 142.782 188.397 142.878C188.205 142.962 188.031 143.064 187.875 143.184C187.719 143.304 187.569 143.418 187.425 143.526L186.453 142.518ZM191.025 145.902C190.641 145.902 190.245 145.926 189.837 145.974C189.441 146.01 189.075 146.088 188.739 146.208C188.415 146.328 188.145 146.496 187.929 146.712C187.725 146.928 187.623 147.204 187.623 147.54C187.623 148.032 187.785 148.386 188.109 148.602C188.445 148.818 188.895 148.926 189.459 148.926C189.903 148.926 190.281 148.854 190.593 148.71C190.905 148.554 191.157 148.356 191.349 148.116C191.541 147.876 191.679 147.612 191.763 147.324C191.847 147.024 191.889 146.73 191.889 146.442V145.902H191.025ZM195.877 136.398H197.497V150.006H195.877V136.398ZM200.202 136.398H201.822V150.006H200.202V136.398ZM205.624 146.334C205.624 146.706 205.702 147.048 205.858 147.36C206.026 147.66 206.242 147.918 206.506 148.134C206.77 148.35 207.076 148.518 207.424 148.638C207.772 148.758 208.132 148.818 208.504 148.818C209.008 148.818 209.446 148.704 209.818 148.476C210.19 148.236 210.532 147.924 210.844 147.54L212.068 148.476C211.168 149.64 209.908 150.222 208.288 150.222C207.616 150.222 207.004 150.108 206.452 149.88C205.912 149.652 205.45 149.34 205.066 148.944C204.694 148.536 204.406 148.062 204.202 147.522C203.998 146.97 203.896 146.376 203.896 145.74C203.896 145.104 204.004 144.516 204.22 143.976C204.448 143.424 204.754 142.95 205.138 142.554C205.534 142.146 206.002 141.828 206.542 141.6C207.082 141.372 207.67 141.258 208.306 141.258C209.062 141.258 209.698 141.39 210.214 141.654C210.742 141.918 211.174 142.266 211.51 142.698C211.846 143.118 212.086 143.598 212.23 144.138C212.386 144.666 212.464 145.206 212.464 145.758V146.334H205.624ZM210.736 145.038C210.724 144.678 210.664 144.348 210.556 144.048C210.46 143.748 210.31 143.49 210.106 143.274C209.902 143.046 209.644 142.872 209.332 142.752C209.032 142.62 208.678 142.554 208.27 142.554C207.874 142.554 207.508 142.632 207.172 142.788C206.848 142.932 206.572 143.124 206.344 143.364C206.116 143.604 205.936 143.874 205.804 144.174C205.684 144.462 205.624 144.75 205.624 145.038H210.736ZM214.402 141.474H216.022V142.788H216.058C216.262 142.332 216.616 141.966 217.12 141.69C217.624 141.402 218.206 141.258 218.866 141.258C219.274 141.258 219.664 141.324 220.036 141.456C220.42 141.576 220.75 141.768 221.026 142.032C221.314 142.296 221.542 142.638 221.71 143.058C221.878 143.466 221.962 143.952 221.962 144.516V150.006H220.342V144.966C220.342 144.57 220.288 144.234 220.18 143.958C220.072 143.67 219.928 143.442 219.748 143.274C219.568 143.094 219.358 142.968 219.118 142.896C218.89 142.812 218.65 142.77 218.398 142.77C218.062 142.77 217.75 142.824 217.462 142.932C217.174 143.04 216.922 143.214 216.706 143.454C216.49 143.682 216.322 143.976 216.202 144.336C216.082 144.696 216.022 145.122 216.022 145.614V150.006H214.402V141.474ZM232.954 149.934C232.954 150.582 232.84 151.17 232.612 151.698C232.396 152.238 232.084 152.7 231.676 153.084C231.268 153.48 230.776 153.786 230.2 154.002C229.624 154.218 228.988 154.326 228.292 154.326C227.476 154.326 226.726 154.212 226.042 153.984C225.37 153.756 224.728 153.36 224.116 152.796L225.214 151.428C225.634 151.884 226.09 152.226 226.582 152.454C227.074 152.694 227.632 152.814 228.256 152.814C228.856 152.814 229.354 152.724 229.75 152.544C230.146 152.376 230.458 152.154 230.686 151.878C230.926 151.602 231.094 151.284 231.19 150.924C231.286 150.576 231.334 150.222 231.334 149.862V148.602H231.28C230.968 149.118 230.542 149.502 230.002 149.754C229.474 149.994 228.916 150.114 228.328 150.114C227.704 150.114 227.122 150.006 226.582 149.79C226.054 149.562 225.598 149.256 225.214 148.872C224.83 148.476 224.53 148.014 224.314 147.486C224.098 146.946 223.99 146.364 223.99 145.74C223.99 145.116 224.092 144.534 224.296 143.994C224.5 143.442 224.788 142.962 225.16 142.554C225.544 142.146 226 141.828 226.528 141.6C227.068 141.372 227.668 141.258 228.328 141.258C228.904 141.258 229.462 141.384 230.002 141.636C230.554 141.888 230.986 142.242 231.298 142.698H231.334V141.474H232.954V149.934ZM228.526 142.77C228.094 142.77 227.704 142.848 227.356 143.004C227.008 143.148 226.714 143.352 226.474 143.616C226.234 143.868 226.048 144.18 225.916 144.552C225.784 144.912 225.718 145.308 225.718 145.74C225.718 146.604 225.97 147.3 226.474 147.828C226.978 148.344 227.662 148.602 228.526 148.602C229.39 148.602 230.074 148.344 230.578 147.828C231.082 147.3 231.334 146.604 231.334 145.74C231.334 145.308 231.268 144.912 231.136 144.552C231.004 144.18 230.818 143.868 230.578 143.616C230.338 143.352 230.044 143.148 229.696 143.004C229.348 142.848 228.958 142.77 228.526 142.77ZM235.534 141.474H237.154V150.006H235.534V141.474ZM235.156 138.414C235.156 138.09 235.27 137.814 235.498 137.586C235.738 137.346 236.02 137.226 236.344 137.226C236.668 137.226 236.944 137.346 237.172 137.586C237.412 137.814 237.532 138.09 237.532 138.414C237.532 138.738 237.412 139.02 237.172 139.26C236.944 139.488 236.668 139.602 236.344 139.602C236.02 139.602 235.738 139.488 235.498 139.26C235.27 139.02 235.156 138.738 235.156 138.414ZM239.732 141.474H241.352V142.788H241.388C241.592 142.332 241.946 141.966 242.45 141.69C242.954 141.402 243.536 141.258 244.196 141.258C244.604 141.258 244.994 141.324 245.366 141.456C245.75 141.576 246.08 141.768 246.356 142.032C246.644 142.296 246.872 142.638 247.04 143.058C247.208 143.466 247.292 143.952 247.292 144.516V150.006H245.672V144.966C245.672 144.57 245.618 144.234 245.51 143.958C245.402 143.67 245.258 143.442 245.078 143.274C244.898 143.094 244.688 142.968 244.448 142.896C244.22 142.812 243.98 142.77 243.728 142.77C243.392 142.77 243.08 142.824 242.792 142.932C242.504 143.04 242.252 143.214 242.036 143.454C241.82 143.682 241.652 143.976 241.532 144.336C241.412 144.696 241.352 145.122 241.352 145.614V150.006H239.732V141.474ZM258.284 149.934C258.284 150.582 258.17 151.17 257.942 151.698C257.726 152.238 257.414 152.7 257.006 153.084C256.598 153.48 256.106 153.786 255.53 154.002C254.954 154.218 254.318 154.326 253.622 154.326C252.806 154.326 252.056 154.212 251.372 153.984C250.7 153.756 250.058 153.36 249.446 152.796L250.544 151.428C250.964 151.884 251.42 152.226 251.912 152.454C252.404 152.694 252.962 152.814 253.586 152.814C254.186 152.814 254.684 152.724 255.08 152.544C255.476 152.376 255.788 152.154 256.016 151.878C256.256 151.602 256.424 151.284 256.52 150.924C256.616 150.576 256.664 150.222 256.664 149.862V148.602H256.61C256.298 149.118 255.872 149.502 255.332 149.754C254.804 149.994 254.246 150.114 253.658 150.114C253.034 150.114 252.452 150.006 251.912 149.79C251.384 149.562 250.928 149.256 250.544 148.872C250.16 148.476 249.86 148.014 249.644 147.486C249.428 146.946 249.32 146.364 249.32 145.74C249.32 145.116 249.422 144.534 249.626 143.994C249.83 143.442 250.118 142.962 250.49 142.554C250.874 142.146 251.33 141.828 251.858 141.6C252.398 141.372 252.998 141.258 253.658 141.258C254.234 141.258 254.792 141.384 255.332 141.636C255.884 141.888 256.316 142.242 256.628 142.698H256.664V141.474H258.284V149.934ZM253.856 142.77C253.424 142.77 253.034 142.848 252.686 143.004C252.338 143.148 252.044 143.352 251.804 143.616C251.564 143.868 251.378 144.18 251.246 144.552C251.114 144.912 251.048 145.308 251.048 145.74C251.048 146.604 251.3 147.3 251.804 147.828C252.308 148.344 252.992 148.602 253.856 148.602C254.72 148.602 255.404 148.344 255.908 147.828C256.412 147.3 256.664 146.604 256.664 145.74C256.664 145.308 256.598 144.912 256.466 144.552C256.334 144.18 256.148 143.868 255.908 143.616C255.668 143.352 255.374 143.148 255.026 143.004C254.678 142.848 254.288 142.77 253.856 142.77ZM123.798 168.742C123.498 168.43 123.18 168.196 122.844 168.04C122.52 167.872 122.13 167.788 121.674 167.788C121.23 167.788 120.84 167.872 120.504 168.04C120.18 168.196 119.904 168.418 119.676 168.706C119.46 168.982 119.292 169.306 119.172 169.678C119.064 170.038 119.01 170.416 119.01 170.812C119.01 171.208 119.076 171.586 119.208 171.946C119.34 172.294 119.526 172.6 119.766 172.864C120.006 173.128 120.294 173.338 120.63 173.494C120.966 173.638 121.344 173.71 121.764 173.71C122.22 173.71 122.61 173.632 122.934 173.476C123.258 173.308 123.558 173.068 123.834 172.756L124.986 173.908C124.566 174.376 124.074 174.712 123.51 174.916C122.958 175.12 122.37 175.222 121.746 175.222C121.086 175.222 120.48 175.114 119.928 174.898C119.388 174.682 118.92 174.382 118.524 173.998C118.128 173.602 117.822 173.134 117.606 172.594C117.39 172.042 117.282 171.436 117.282 170.776C117.282 170.116 117.39 169.51 117.606 168.958C117.822 168.406 118.122 167.932 118.506 167.536C118.902 167.14 119.37 166.834 119.91 166.618C120.462 166.39 121.074 166.276 121.746 166.276C122.37 166.276 122.964 166.39 123.528 166.618C124.104 166.834 124.602 167.17 125.022 167.626L123.798 168.742ZM126.505 166.474H128.125V175.006H126.505V166.474ZM126.127 163.414C126.127 163.09 126.241 162.814 126.469 162.586C126.709 162.346 126.991 162.226 127.315 162.226C127.639 162.226 127.915 162.346 128.143 162.586C128.383 162.814 128.503 163.09 128.503 163.414C128.503 163.738 128.383 164.02 128.143 164.26C127.915 164.488 127.639 164.602 127.315 164.602C126.991 164.602 126.709 164.488 126.469 164.26C126.241 164.02 126.127 163.738 126.127 163.414ZM130.703 166.474H132.323V167.788H132.359C132.467 167.56 132.611 167.356 132.791 167.176C132.971 166.984 133.169 166.822 133.385 166.69C133.613 166.558 133.859 166.456 134.123 166.384C134.387 166.3 134.651 166.258 134.915 166.258C135.179 166.258 135.419 166.294 135.635 166.366L135.563 168.112C135.431 168.076 135.299 168.046 135.167 168.022C135.035 167.998 134.903 167.986 134.771 167.986C133.979 167.986 133.373 168.208 132.953 168.652C132.533 169.096 132.323 169.786 132.323 170.722V175.006H130.703V166.474ZM143.151 168.742C142.851 168.43 142.533 168.196 142.197 168.04C141.873 167.872 141.483 167.788 141.027 167.788C140.583 167.788 140.193 167.872 139.857 168.04C139.533 168.196 139.257 168.418 139.029 168.706C138.813 168.982 138.645 169.306 138.525 169.678C138.417 170.038 138.363 170.416 138.363 170.812C138.363 171.208 138.429 171.586 138.561 171.946C138.693 172.294 138.879 172.6 139.119 172.864C139.359 173.128 139.647 173.338 139.983 173.494C140.319 173.638 140.697 173.71 141.117 173.71C141.573 173.71 141.963 173.632 142.287 173.476C142.611 173.308 142.911 173.068 143.187 172.756L144.339 173.908C143.919 174.376 143.427 174.712 142.863 174.916C142.311 175.12 141.723 175.222 141.099 175.222C140.439 175.222 139.833 175.114 139.281 174.898C138.741 174.682 138.273 174.382 137.877 173.998C137.481 173.602 137.175 173.134 136.959 172.594C136.743 172.042 136.635 171.436 136.635 170.776C136.635 170.116 136.743 169.51 136.959 168.958C137.175 168.406 137.475 167.932 137.859 167.536C138.255 167.14 138.723 166.834 139.263 166.618C139.815 166.39 140.427 166.276 141.099 166.276C141.723 166.276 142.317 166.39 142.881 166.618C143.457 166.834 143.955 167.17 144.375 167.626L143.151 168.742ZM153.293 175.006H151.673V173.692H151.637C151.433 174.148 151.079 174.52 150.575 174.808C150.071 175.084 149.489 175.222 148.829 175.222C148.409 175.222 148.013 175.156 147.641 175.024C147.269 174.904 146.939 174.712 146.651 174.448C146.375 174.184 146.153 173.848 145.985 173.44C145.817 173.02 145.733 172.528 145.733 171.964V166.474H147.353V171.514C147.353 171.91 147.407 172.252 147.515 172.54C147.623 172.816 147.767 173.044 147.947 173.224C148.127 173.392 148.331 173.518 148.559 173.602C148.799 173.674 149.045 173.71 149.297 173.71C149.633 173.71 149.945 173.656 150.233 173.548C150.521 173.44 150.773 173.272 150.989 173.044C151.205 172.804 151.373 172.504 151.493 172.144C151.613 171.784 151.673 171.358 151.673 170.866V166.474H153.293V175.006ZM155.735 166.474H157.247V167.806H157.283C157.319 167.686 157.409 167.536 157.553 167.356C157.709 167.176 157.901 167.008 158.129 166.852C158.369 166.684 158.645 166.546 158.957 166.438C159.281 166.318 159.635 166.258 160.019 166.258C160.655 166.258 161.189 166.39 161.621 166.654C162.053 166.918 162.407 167.314 162.683 167.842C162.959 167.314 163.349 166.918 163.853 166.654C164.357 166.39 164.867 166.258 165.383 166.258C166.043 166.258 166.583 166.366 167.003 166.582C167.423 166.798 167.753 167.086 167.993 167.446C168.233 167.794 168.395 168.196 168.479 168.652C168.575 169.096 168.623 169.558 168.623 170.038V175.006H167.003V170.254C167.003 169.93 166.979 169.618 166.931 169.318C166.895 169.018 166.811 168.754 166.679 168.526C166.547 168.298 166.361 168.118 166.121 167.986C165.881 167.842 165.563 167.77 165.167 167.77C164.387 167.77 163.829 168.01 163.493 168.49C163.157 168.97 162.989 169.588 162.989 170.344V175.006H161.369V170.542C161.369 170.134 161.345 169.762 161.297 169.426C161.261 169.09 161.177 168.802 161.045 168.562C160.925 168.31 160.745 168.118 160.505 167.986C160.277 167.842 159.965 167.77 159.569 167.77C159.281 167.77 158.999 167.83 158.723 167.95C158.459 168.058 158.225 168.226 158.021 168.454C157.817 168.682 157.655 168.976 157.535 169.336C157.415 169.684 157.355 170.098 157.355 170.578V175.006H155.735V166.474ZM175.599 168.616C175.407 168.376 175.167 168.178 174.879 168.022C174.603 167.854 174.261 167.77 173.853 167.77C173.469 167.77 173.133 167.854 172.845 168.022C172.569 168.178 172.431 168.412 172.431 168.724C172.431 168.976 172.509 169.18 172.665 169.336C172.833 169.492 173.025 169.618 173.241 169.714C173.469 169.81 173.709 169.882 173.961 169.93C174.213 169.978 174.429 170.02 174.609 170.056C174.957 170.14 175.281 170.242 175.581 170.362C175.893 170.482 176.157 170.638 176.373 170.83C176.601 171.022 176.775 171.256 176.895 171.532C177.027 171.808 177.093 172.144 177.093 172.54C177.093 173.02 176.991 173.434 176.787 173.782C176.583 174.118 176.319 174.394 175.995 174.61C175.671 174.826 175.299 174.982 174.879 175.078C174.471 175.174 174.057 175.222 173.637 175.222C172.929 175.222 172.305 175.114 171.765 174.898C171.237 174.682 170.763 174.286 170.343 173.71L171.567 172.702C171.831 172.966 172.125 173.2 172.449 173.404C172.773 173.608 173.169 173.71 173.637 173.71C173.841 173.71 174.045 173.692 174.249 173.656C174.465 173.608 174.651 173.542 174.807 173.458C174.975 173.362 175.107 173.248 175.203 173.116C175.311 172.972 175.365 172.81 175.365 172.63C175.365 172.39 175.287 172.192 175.131 172.036C174.987 171.88 174.807 171.76 174.591 171.676C174.387 171.58 174.165 171.508 173.925 171.46C173.697 171.4 173.493 171.352 173.313 171.316C172.965 171.232 172.635 171.136 172.323 171.028C172.011 170.92 171.735 170.776 171.495 170.596C171.255 170.416 171.063 170.188 170.919 169.912C170.775 169.636 170.703 169.294 170.703 168.886C170.703 168.442 170.793 168.058 170.973 167.734C171.165 167.398 171.411 167.122 171.711 166.906C172.023 166.69 172.371 166.528 172.755 166.42C173.151 166.312 173.547 166.258 173.943 166.258C174.519 166.258 175.071 166.366 175.599 166.582C176.127 166.798 176.547 167.158 176.859 167.662L175.599 168.616ZM183.633 167.878H181.311V171.748C181.311 171.988 181.317 172.228 181.329 172.468C181.341 172.696 181.383 172.906 181.455 173.098C181.539 173.278 181.659 173.428 181.815 173.548C181.983 173.656 182.223 173.71 182.535 173.71C182.727 173.71 182.925 173.692 183.129 173.656C183.333 173.62 183.519 173.554 183.687 173.458V174.934C183.495 175.042 183.243 175.114 182.931 175.15C182.631 175.198 182.397 175.222 182.229 175.222C181.605 175.222 181.119 175.138 180.771 174.97C180.435 174.79 180.183 174.562 180.015 174.286C179.859 174.01 179.763 173.704 179.727 173.368C179.703 173.02 179.691 172.672 179.691 172.324V167.878H177.819V166.474H179.691V164.08H181.311V166.474H183.633V167.878ZM185.759 167.518C186.215 167.098 186.743 166.786 187.343 166.582C187.943 166.366 188.543 166.258 189.143 166.258C189.767 166.258 190.301 166.336 190.745 166.492C191.201 166.648 191.573 166.858 191.861 167.122C192.149 167.386 192.359 167.692 192.491 168.04C192.635 168.376 192.707 168.73 192.707 169.102V173.458C192.707 173.758 192.713 174.034 192.725 174.286C192.737 174.538 192.755 174.778 192.779 175.006H191.339C191.303 174.574 191.285 174.142 191.285 173.71H191.249C190.889 174.262 190.463 174.652 189.971 174.88C189.479 175.108 188.909 175.222 188.261 175.222C187.865 175.222 187.487 175.168 187.127 175.06C186.767 174.952 186.449 174.79 186.173 174.574C185.909 174.358 185.699 174.094 185.543 173.782C185.387 173.458 185.309 173.086 185.309 172.666C185.309 172.114 185.429 171.652 185.669 171.28C185.921 170.908 186.257 170.608 186.677 170.38C187.109 170.14 187.607 169.972 188.171 169.876C188.747 169.768 189.359 169.714 190.007 169.714H191.195V169.354C191.195 169.138 191.153 168.922 191.069 168.706C190.985 168.49 190.859 168.298 190.691 168.13C190.523 167.95 190.313 167.812 190.061 167.716C189.809 167.608 189.509 167.554 189.161 167.554C188.849 167.554 188.573 167.584 188.333 167.644C188.105 167.704 187.895 167.782 187.703 167.878C187.511 167.962 187.337 168.064 187.181 168.184C187.025 168.304 186.875 168.418 186.731 168.526L185.759 167.518ZM190.331 170.902C189.947 170.902 189.551 170.926 189.143 170.974C188.747 171.01 188.381 171.088 188.045 171.208C187.721 171.328 187.451 171.496 187.235 171.712C187.031 171.928 186.929 172.204 186.929 172.54C186.929 173.032 187.091 173.386 187.415 173.602C187.751 173.818 188.201 173.926 188.765 173.926C189.209 173.926 189.587 173.854 189.899 173.71C190.211 173.554 190.463 173.356 190.655 173.116C190.847 172.876 190.985 172.612 191.069 172.324C191.153 172.024 191.195 171.73 191.195 171.442V170.902H190.331ZM195.057 166.474H196.677V167.788H196.713C196.917 167.332 197.271 166.966 197.775 166.69C198.279 166.402 198.861 166.258 199.521 166.258C199.929 166.258 200.319 166.324 200.691 166.456C201.075 166.576 201.405 166.768 201.681 167.032C201.969 167.296 202.197 167.638 202.365 168.058C202.533 168.466 202.617 168.952 202.617 169.516V175.006H200.997V169.966C200.997 169.57 200.943 169.234 200.835 168.958C200.727 168.67 200.583 168.442 200.403 168.274C200.223 168.094 200.013 167.968 199.773 167.896C199.545 167.812 199.305 167.77 199.053 167.77C198.717 167.77 198.405 167.824 198.117 167.932C197.829 168.04 197.577 168.214 197.361 168.454C197.145 168.682 196.977 168.976 196.857 169.336C196.737 169.696 196.677 170.122 196.677 170.614V175.006H195.057V166.474ZM211.161 168.742C210.861 168.43 210.543 168.196 210.207 168.04C209.883 167.872 209.493 167.788 209.037 167.788C208.593 167.788 208.203 167.872 207.867 168.04C207.543 168.196 207.267 168.418 207.039 168.706C206.823 168.982 206.655 169.306 206.535 169.678C206.427 170.038 206.373 170.416 206.373 170.812C206.373 171.208 206.439 171.586 206.571 171.946C206.703 172.294 206.889 172.6 207.129 172.864C207.369 173.128 207.657 173.338 207.993 173.494C208.329 173.638 208.707 173.71 209.127 173.71C209.583 173.71 209.973 173.632 210.297 173.476C210.621 173.308 210.921 173.068 211.197 172.756L212.349 173.908C211.929 174.376 211.437 174.712 210.873 174.916C210.321 175.12 209.733 175.222 209.109 175.222C208.449 175.222 207.843 175.114 207.291 174.898C206.751 174.682 206.283 174.382 205.887 173.998C205.491 173.602 205.185 173.134 204.969 172.594C204.753 172.042 204.645 171.436 204.645 170.776C204.645 170.116 204.753 169.51 204.969 168.958C205.185 168.406 205.485 167.932 205.869 167.536C206.265 167.14 206.733 166.834 207.273 166.618C207.825 166.39 208.437 166.276 209.109 166.276C209.733 166.276 210.327 166.39 210.891 166.618C211.467 166.834 211.965 167.17 212.385 167.626L211.161 168.742ZM214.967 171.334C214.967 171.706 215.045 172.048 215.201 172.36C215.369 172.66 215.585 172.918 215.849 173.134C216.113 173.35 216.419 173.518 216.767 173.638C217.115 173.758 217.475 173.818 217.847 173.818C218.351 173.818 218.789 173.704 219.161 173.476C219.533 173.236 219.875 172.924 220.187 172.54L221.411 173.476C220.511 174.64 219.251 175.222 217.631 175.222C216.959 175.222 216.347 175.108 215.795 174.88C215.255 174.652 214.793 174.34 214.409 173.944C214.037 173.536 213.749 173.062 213.545 172.522C213.341 171.97 213.239 171.376 213.239 170.74C213.239 170.104 213.347 169.516 213.563 168.976C213.791 168.424 214.097 167.95 214.481 167.554C214.877 167.146 215.345 166.828 215.885 166.6C216.425 166.372 217.013 166.258 217.649 166.258C218.405 166.258 219.041 166.39 219.557 166.654C220.085 166.918 220.517 167.266 220.853 167.698C221.189 168.118 221.429 168.598 221.573 169.138C221.729 169.666 221.807 170.206 221.807 170.758V171.334H214.967ZM220.079 170.038C220.067 169.678 220.007 169.348 219.899 169.048C219.803 168.748 219.653 168.49 219.449 168.274C219.245 168.046 218.987 167.872 218.675 167.752C218.375 167.62 218.021 167.554 217.613 167.554C217.217 167.554 216.851 167.632 216.515 167.788C216.191 167.932 215.915 168.124 215.687 168.364C215.459 168.604 215.279 168.874 215.147 169.174C215.027 169.462 214.967 169.75 214.967 170.038H220.079ZM228.281 168.616C228.089 168.376 227.849 168.178 227.561 168.022C227.285 167.854 226.943 167.77 226.535 167.77C226.151 167.77 225.815 167.854 225.527 168.022C225.251 168.178 225.113 168.412 225.113 168.724C225.113 168.976 225.191 169.18 225.347 169.336C225.515 169.492 225.707 169.618 225.923 169.714C226.151 169.81 226.391 169.882 226.643 169.93C226.895 169.978 227.111 170.02 227.291 170.056C227.639 170.14 227.963 170.242 228.263 170.362C228.575 170.482 228.839 170.638 229.055 170.83C229.283 171.022 229.457 171.256 229.577 171.532C229.709 171.808 229.775 172.144 229.775 172.54C229.775 173.02 229.673 173.434 229.469 173.782C229.265 174.118 229.001 174.394 228.677 174.61C228.353 174.826 227.981 174.982 227.561 175.078C227.153 175.174 226.739 175.222 226.319 175.222C225.611 175.222 224.987 175.114 224.447 174.898C223.919 174.682 223.445 174.286 223.025 173.71L224.249 172.702C224.513 172.966 224.807 173.2 225.131 173.404C225.455 173.608 225.851 173.71 226.319 173.71C226.523 173.71 226.727 173.692 226.931 173.656C227.147 173.608 227.333 173.542 227.489 173.458C227.657 173.362 227.789 173.248 227.885 173.116C227.993 172.972 228.047 172.81 228.047 172.63C228.047 172.39 227.969 172.192 227.813 172.036C227.669 171.88 227.489 171.76 227.273 171.676C227.069 171.58 226.847 171.508 226.607 171.46C226.379 171.4 226.175 171.352 225.995 171.316C225.647 171.232 225.317 171.136 225.005 171.028C224.693 170.92 224.417 170.776 224.177 170.596C223.937 170.416 223.745 170.188 223.601 169.912C223.457 169.636 223.385 169.294 223.385 168.886C223.385 168.442 223.475 168.058 223.655 167.734C223.847 167.398 224.093 167.122 224.393 166.906C224.705 166.69 225.053 166.528 225.437 166.42C225.833 166.312 226.229 166.258 226.625 166.258C227.201 166.258 227.753 166.366 228.281 166.582C228.809 166.798 229.229 167.158 229.541 167.662L228.281 168.616ZM233.021 175.114C232.697 175.114 232.415 175 232.175 174.772C231.947 174.532 231.833 174.25 231.833 173.926C231.833 173.602 231.947 173.326 232.175 173.098C232.415 172.858 232.697 172.738 233.021 172.738C233.345 172.738 233.621 172.858 233.849 173.098C234.089 173.326 234.209 173.602 234.209 173.926C234.209 174.25 234.089 174.532 233.849 174.772C233.621 175 233.345 175.114 233.021 175.114Z" fill="#1A2E33"/>
<path d="M206.456 98.9083H206.42C206.12 99.3763 205.718 99.7123 205.214 99.9163C204.722 100.12 204.2 100.222 203.648 100.222C203.24 100.222 202.844 100.162 202.46 100.042C202.088 99.9343 201.758 99.7663 201.47 99.5383C201.182 99.3103 200.954 99.0283 200.786 98.6923C200.618 98.3563 200.534 97.9663 200.534 97.5223C200.534 97.0183 200.624 96.5923 200.804 96.2443C200.996 95.8963 201.248 95.6083 201.56 95.3803C201.884 95.1523 202.25 94.9783 202.658 94.8583C203.066 94.7263 203.486 94.6303 203.918 94.5703C204.362 94.5103 204.8 94.4743 205.232 94.4623C205.676 94.4503 206.084 94.4443 206.456 94.4443C206.456 93.9643 206.282 93.5863 205.934 93.3103C205.598 93.0223 205.196 92.8783 204.728 92.8783C204.284 92.8783 203.876 92.9743 203.504 93.1663C203.144 93.3463 202.82 93.5983 202.532 93.9223L201.092 92.4463C201.596 91.9783 202.184 91.6303 202.856 91.4023C203.528 91.1623 204.224 91.0423 204.944 91.0423C205.736 91.0423 206.384 91.1443 206.888 91.3483C207.404 91.5403 207.812 91.8283 208.112 92.2123C208.424 92.5963 208.64 93.0703 208.76 93.6343C208.88 94.1863 208.94 94.8283 208.94 95.5603V100.006H206.456V98.9083ZM205.79 96.1723C205.586 96.1723 205.328 96.1843 205.016 96.2083C204.716 96.2203 204.422 96.2683 204.134 96.3523C203.858 96.4363 203.618 96.5623 203.414 96.7303C203.222 96.8983 203.126 97.1323 203.126 97.4323C203.126 97.7563 203.264 97.9963 203.54 98.1523C203.816 98.3083 204.104 98.3863 204.404 98.3863C204.668 98.3863 204.92 98.3503 205.16 98.2783C205.412 98.2063 205.634 98.1043 205.826 97.9723C206.018 97.8403 206.168 97.6723 206.276 97.4683C206.396 97.2643 206.456 97.0243 206.456 96.7483V96.1723H205.79ZM219.814 100.006H217.33V98.8543H217.294C217.186 99.0103 217.042 99.1723 216.862 99.3403C216.694 99.4963 216.49 99.6403 216.25 99.7723C216.022 99.9043 215.764 100.012 215.476 100.096C215.2 100.18 214.912 100.222 214.612 100.222C213.964 100.222 213.376 100.114 212.848 99.8983C212.32 99.6703 211.864 99.3583 211.48 98.9623C211.108 98.5543 210.82 98.0743 210.616 97.5223C210.412 96.9703 210.31 96.3643 210.31 95.7043C210.31 95.0923 210.4 94.5103 210.58 93.9583C210.772 93.3943 211.036 92.8963 211.372 92.4643C211.72 92.0323 212.14 91.6903 212.632 91.4383C213.124 91.1743 213.682 91.0423 214.306 91.0423C214.87 91.0423 215.392 91.1323 215.872 91.3123C216.364 91.4803 216.766 91.7743 217.078 92.1943H217.114V86.3983H219.814V100.006ZM217.33 95.6323C217.33 94.9723 217.138 94.4383 216.754 94.0303C216.382 93.6223 215.854 93.4183 215.17 93.4183C214.486 93.4183 213.952 93.6223 213.568 94.0303C213.196 94.4383 213.01 94.9723 213.01 95.6323C213.01 96.2923 213.196 96.8263 213.568 97.2343C213.952 97.6423 214.486 97.8463 215.17 97.8463C215.854 97.8463 216.382 97.6423 216.754 97.2343C217.138 96.8263 217.33 96.2923 217.33 95.6323ZM227.462 98.9083H227.426C227.126 99.3763 226.724 99.7123 226.22 99.9163C225.728 100.12 225.206 100.222 224.654 100.222C224.246 100.222 223.85 100.162 223.466 100.042C223.094 99.9343 222.764 99.7663 222.476 99.5383C222.188 99.3103 221.96 99.0283 221.792 98.6923C221.624 98.3563 221.54 97.9663 221.54 97.5223C221.54 97.0183 221.63 96.5923 221.81 96.2443C222.002 95.8963 222.254 95.6083 222.566 95.3803C222.89 95.1523 223.256 94.9783 223.664 94.8583C224.072 94.7263 224.492 94.6303 224.924 94.5703C225.368 94.5103 225.806 94.4743 226.238 94.4623C226.682 94.4503 227.09 94.4443 227.462 94.4443C227.462 93.9643 227.288 93.5863 226.94 93.3103C226.604 93.0223 226.202 92.8783 225.734 92.8783C225.29 92.8783 224.882 92.9743 224.51 93.1663C224.15 93.3463 223.826 93.5983 223.538 93.9223L222.098 92.4463C222.602 91.9783 223.19 91.6303 223.862 91.4023C224.534 91.1623 225.23 91.0423 225.95 91.0423C226.742 91.0423 227.39 91.1443 227.894 91.3483C228.41 91.5403 228.818 91.8283 229.118 92.2123C229.43 92.5963 229.646 93.0703 229.766 93.6343C229.886 94.1863 229.946 94.8283 229.946 95.5603V100.006H227.462V98.9083ZM226.796 96.1723C226.592 96.1723 226.334 96.1843 226.022 96.2083C225.722 96.2203 225.428 96.2683 225.14 96.3523C224.864 96.4363 224.624 96.5623 224.42 96.7303C224.228 96.8983 224.132 97.1323 224.132 97.4323C224.132 97.7563 224.27 97.9963 224.546 98.1523C224.822 98.3083 225.11 98.3863 225.41 98.3863C225.674 98.3863 225.926 98.3503 226.166 98.2783C226.418 98.2063 226.64 98.1043 226.832 97.9723C227.024 97.8403 227.174 97.6723 227.282 97.4683C227.402 97.2643 227.462 97.0243 227.462 96.7483V96.1723H226.796ZM231.892 91.2583H234.376V92.4103H234.412C234.52 92.2543 234.658 92.0983 234.826 91.9423C235.006 91.7743 235.21 91.6243 235.438 91.4923C235.678 91.3603 235.936 91.2523 236.212 91.1683C236.488 91.0843 236.782 91.0423 237.094 91.0423C237.742 91.0423 238.33 91.1563 238.858 91.3843C239.386 91.6003 239.836 91.9123 240.208 92.3203C240.592 92.7163 240.886 93.1903 241.09 93.7423C241.294 94.2943 241.396 94.9003 241.396 95.5603C241.396 96.1723 241.3 96.7603 241.108 97.3243C240.928 97.8763 240.664 98.3683 240.316 98.8003C239.98 99.2323 239.566 99.5803 239.074 99.8443C238.582 100.096 238.024 100.222 237.4 100.222C236.836 100.222 236.308 100.138 235.816 99.9703C235.336 99.7903 234.94 99.4903 234.628 99.0703H234.592V104.11H231.892V91.2583ZM234.376 95.6323C234.376 96.2923 234.562 96.8263 234.934 97.2343C235.318 97.6423 235.852 97.8463 236.536 97.8463C237.22 97.8463 237.748 97.6423 238.12 97.2343C238.504 96.8263 238.696 96.2923 238.696 95.6323C238.696 94.9723 238.504 94.4383 238.12 94.0303C237.748 93.6223 237.22 93.4183 236.536 93.4183C235.852 93.4183 235.318 93.6223 234.934 94.0303C234.562 94.4383 234.376 94.9723 234.376 95.6323ZM248.935 93.4183H246.559V96.3343C246.559 96.5743 246.571 96.7963 246.595 97.0003C246.619 97.1923 246.673 97.3603 246.757 97.5043C246.841 97.6483 246.967 97.7623 247.135 97.8463C247.315 97.9183 247.549 97.9543 247.837 97.9543C247.981 97.9543 248.167 97.9423 248.395 97.9183C248.635 97.8823 248.815 97.8103 248.935 97.7023V99.9523C248.635 100.06 248.323 100.132 247.999 100.168C247.675 100.204 247.357 100.222 247.045 100.222C246.589 100.222 246.169 100.174 245.785 100.078C245.401 99.9823 245.065 99.8323 244.777 99.6283C244.489 99.4123 244.261 99.1363 244.093 98.8003C243.937 98.4643 243.859 98.0563 243.859 97.5763V93.4183H242.131V91.2583H243.859V88.6663H246.559V91.2583H248.935V93.4183ZM255.798 98.9083H255.762C255.462 99.3763 255.06 99.7123 254.556 99.9163C254.064 100.12 253.542 100.222 252.99 100.222C252.582 100.222 252.186 100.162 251.802 100.042C251.43 99.9343 251.1 99.7663 250.812 99.5383C250.524 99.3103 250.296 99.0283 250.128 98.6923C249.96 98.3563 249.876 97.9663 249.876 97.5223C249.876 97.0183 249.966 96.5923 250.146 96.2443C250.338 95.8963 250.59 95.6083 250.902 95.3803C251.226 95.1523 251.592 94.9783 252 94.8583C252.408 94.7263 252.828 94.6303 253.26 94.5703C253.704 94.5103 254.142 94.4743 254.574 94.4623C255.018 94.4503 255.426 94.4443 255.798 94.4443C255.798 93.9643 255.624 93.5863 255.276 93.3103C254.94 93.0223 254.538 92.8783 254.07 92.8783C253.626 92.8783 253.218 92.9743 252.846 93.1663C252.486 93.3463 252.162 93.5983 251.874 93.9223L250.434 92.4463C250.938 91.9783 251.526 91.6303 252.198 91.4023C252.87 91.1623 253.566 91.0423 254.286 91.0423C255.078 91.0423 255.726 91.1443 256.23 91.3483C256.746 91.5403 257.154 91.8283 257.454 92.2123C257.766 92.5963 257.982 93.0703 258.102 93.6343C258.222 94.1863 258.282 94.8283 258.282 95.5603V100.006H255.798V98.9083ZM255.132 96.1723C254.928 96.1723 254.67 96.1843 254.358 96.2083C254.058 96.2203 253.764 96.2683 253.476 96.3523C253.2 96.4363 252.96 96.5623 252.756 96.7303C252.564 96.8983 252.468 97.1323 252.468 97.4323C252.468 97.7563 252.606 97.9963 252.882 98.1523C253.158 98.3083 253.446 98.3863 253.746 98.3863C254.01 98.3863 254.262 98.3503 254.502 98.2783C254.754 98.2063 254.976 98.1043 255.168 97.9723C255.36 97.8403 255.51 97.6723 255.618 97.4683C255.738 97.2643 255.798 97.0243 255.798 96.7483V96.1723H255.132ZM260.227 86.3983H262.927V92.1943H262.963C263.275 91.7743 263.671 91.4803 264.151 91.3123C264.643 91.1323 265.171 91.0423 265.735 91.0423C266.359 91.0423 266.917 91.1743 267.409 91.4383C267.901 91.6903 268.315 92.0323 268.651 92.4643C268.999 92.8963 269.263 93.3943 269.443 93.9583C269.635 94.5103 269.731 95.0923 269.731 95.7043C269.731 96.3643 269.629 96.9703 269.425 97.5223C269.221 98.0743 268.927 98.5543 268.543 98.9623C268.171 99.3583 267.721 99.6703 267.193 99.8983C266.665 100.114 266.077 100.222 265.429 100.222C265.117 100.222 264.823 100.18 264.547 100.096C264.271 100.012 264.013 99.9043 263.773 99.7723C263.545 99.6403 263.341 99.4963 263.161 99.3403C262.993 99.1723 262.855 99.0103 262.747 98.8543H262.711V100.006H260.227V86.3983ZM262.711 95.6323C262.711 96.2923 262.897 96.8263 263.269 97.2343C263.653 97.6423 264.187 97.8463 264.871 97.8463C265.555 97.8463 266.083 97.6423 266.455 97.2343C266.839 96.8263 267.031 96.2923 267.031 95.6323C267.031 94.9723 266.839 94.4383 266.455 94.0303C266.083 93.6223 265.555 93.4183 264.871 93.4183C264.187 93.4183 263.653 93.6223 263.269 94.0303C262.897 94.4383 262.711 94.9723 262.711 95.6323ZM271.349 86.3983H274.049V100.006H271.349V86.3983ZM284.269 98.4943C283.837 99.0463 283.291 99.4723 282.631 99.7723C281.971 100.072 281.287 100.222 280.579 100.222C279.907 100.222 279.271 100.114 278.671 99.8983C278.083 99.6823 277.567 99.3763 277.123 98.9803C276.691 98.5723 276.349 98.0863 276.097 97.5223C275.845 96.9583 275.719 96.3283 275.719 95.6323C275.719 94.9363 275.845 94.3063 276.097 93.7423C276.349 93.1783 276.691 92.6983 277.123 92.3023C277.567 91.8943 278.083 91.5823 278.671 91.3663C279.271 91.1503 279.907 91.0423 280.579 91.0423C281.203 91.0423 281.767 91.1503 282.271 91.3663C282.787 91.5823 283.219 91.8943 283.567 92.3023C283.927 92.6983 284.203 93.1783 284.395 93.7423C284.587 94.3063 284.683 94.9363 284.683 95.6323V96.4783H278.419C278.527 96.9943 278.761 97.4083 279.121 97.7203C279.481 98.0203 279.925 98.1703 280.453 98.1703C280.897 98.1703 281.269 98.0743 281.569 97.8823C281.881 97.6783 282.151 97.4203 282.379 97.1083L284.269 98.4943ZM281.983 94.6423C281.995 94.1863 281.845 93.7963 281.533 93.4723C281.221 93.1483 280.819 92.9863 280.327 92.9863C280.027 92.9863 279.763 93.0343 279.535 93.1303C279.307 93.2263 279.109 93.3523 278.941 93.5083C278.785 93.6523 278.659 93.8263 278.563 94.0303C278.479 94.2223 278.431 94.4263 278.419 94.6423H281.983ZM119.284 124.268C119.284 125.924 118.864 127.178 118.024 128.03C117.196 128.894 115.93 129.326 114.226 129.326C113.446 129.326 112.678 129.236 111.922 129.056C111.166 128.888 110.47 128.552 109.834 128.048L111.328 125.816C111.748 126.164 112.186 126.44 112.642 126.644C113.11 126.848 113.62 126.95 114.172 126.95C115 126.95 115.606 126.746 115.99 126.338C116.386 125.942 116.584 125.432 116.584 124.808V123.962H116.548C116.236 124.382 115.846 124.682 115.378 124.862C114.922 125.03 114.49 125.114 114.082 125.114C113.434 125.114 112.846 125.006 112.318 124.79C111.79 124.562 111.334 124.25 110.95 123.854C110.578 123.446 110.29 122.966 110.086 122.414C109.882 121.862 109.78 121.256 109.78 120.596C109.78 120.02 109.87 119.456 110.05 118.904C110.242 118.352 110.506 117.866 110.842 117.446C111.19 117.026 111.61 116.69 112.102 116.438C112.594 116.174 113.152 116.042 113.776 116.042C114.16 116.042 114.508 116.084 114.82 116.168C115.144 116.252 115.432 116.36 115.684 116.492C115.936 116.624 116.152 116.774 116.332 116.942C116.512 117.098 116.656 117.254 116.764 117.41H116.8V116.258H119.284V124.268ZM112.48 120.578C112.48 120.866 112.534 121.142 112.642 121.406C112.75 121.658 112.9 121.886 113.092 122.09C113.296 122.282 113.524 122.438 113.776 122.558C114.04 122.678 114.328 122.738 114.64 122.738C114.94 122.738 115.222 122.678 115.486 122.558C115.75 122.438 115.978 122.282 116.17 122.09C116.374 121.886 116.53 121.658 116.638 121.406C116.746 121.142 116.8 120.866 116.8 120.578C116.8 120.29 116.746 120.02 116.638 119.768C116.53 119.504 116.374 119.276 116.17 119.084C115.978 118.88 115.75 118.718 115.486 118.598C115.222 118.478 114.94 118.418 114.64 118.418C114.328 118.418 114.04 118.478 113.776 118.598C113.524 118.718 113.296 118.88 113.092 119.084C112.9 119.276 112.75 119.504 112.642 119.768C112.534 120.02 112.48 120.29 112.48 120.578ZM121.442 116.258H124.142V117.662H124.178C124.466 117.122 124.808 116.72 125.204 116.456C125.6 116.18 126.098 116.042 126.698 116.042C126.854 116.042 127.01 116.048 127.166 116.06C127.322 116.072 127.466 116.096 127.598 116.132V118.598C127.406 118.538 127.214 118.496 127.022 118.472C126.842 118.436 126.65 118.418 126.446 118.418C125.93 118.418 125.522 118.49 125.222 118.634C124.922 118.778 124.688 118.982 124.52 119.246C124.364 119.498 124.262 119.804 124.214 120.164C124.166 120.524 124.142 120.92 124.142 121.352V125.006H121.442V116.258ZM128.132 120.632C128.132 119.936 128.258 119.306 128.51 118.742C128.762 118.178 129.104 117.698 129.536 117.302C129.98 116.894 130.496 116.582 131.084 116.366C131.684 116.15 132.32 116.042 132.992 116.042C133.664 116.042 134.294 116.15 134.882 116.366C135.482 116.582 135.998 116.894 136.43 117.302C136.874 117.698 137.222 118.178 137.474 118.742C137.726 119.306 137.852 119.936 137.852 120.632C137.852 121.328 137.726 121.958 137.474 122.522C137.222 123.086 136.874 123.572 136.43 123.98C135.998 124.376 135.482 124.682 134.882 124.898C134.294 125.114 133.664 125.222 132.992 125.222C132.32 125.222 131.684 125.114 131.084 124.898C130.496 124.682 129.98 124.376 129.536 123.98C129.104 123.572 128.762 123.086 128.51 122.522C128.258 121.958 128.132 121.328 128.132 120.632ZM130.832 120.632C130.832 121.292 131.018 121.826 131.39 122.234C131.774 122.642 132.308 122.846 132.992 122.846C133.676 122.846 134.204 122.642 134.576 122.234C134.96 121.826 135.152 121.292 135.152 120.632C135.152 119.972 134.96 119.438 134.576 119.03C134.204 118.622 133.676 118.418 132.992 118.418C132.308 118.418 131.774 118.622 131.39 119.03C131.018 119.438 130.832 119.972 130.832 120.632ZM138.398 116.258H141.278L143.06 121.748H143.096L144.59 116.258H147.542L149.162 121.748H149.198L150.836 116.258H153.572L150.458 125.006H147.794L145.976 119.192H145.94L144.32 125.006H141.602L138.398 116.258ZM154.472 116.258H157.172V125.006H154.472V116.258ZM154.256 113.504C154.256 113.072 154.406 112.706 154.706 112.406C155.018 112.094 155.39 111.938 155.822 111.938C156.254 111.938 156.62 112.094 156.92 112.406C157.232 112.706 157.388 113.072 157.388 113.504C157.388 113.936 157.232 114.308 156.92 114.62C156.62 114.92 156.254 115.07 155.822 115.07C155.39 115.07 155.018 114.92 154.706 114.62C154.406 114.308 154.256 113.936 154.256 113.504ZM159.112 116.258H161.704V117.446H161.74C161.824 117.278 161.944 117.11 162.1 116.942C162.256 116.774 162.442 116.624 162.658 116.492C162.874 116.36 163.12 116.252 163.396 116.168C163.672 116.084 163.972 116.042 164.296 116.042C164.98 116.042 165.532 116.15 165.952 116.366C166.372 116.57 166.696 116.858 166.924 117.23C167.164 117.602 167.326 118.04 167.41 118.544C167.494 119.048 167.536 119.594 167.536 120.182V125.006H164.836V120.722C164.836 120.47 164.824 120.212 164.8 119.948C164.788 119.672 164.734 119.42 164.638 119.192C164.554 118.964 164.416 118.778 164.224 118.634C164.044 118.49 163.78 118.418 163.432 118.418C163.084 118.418 162.802 118.484 162.586 118.616C162.37 118.736 162.202 118.904 162.082 119.12C161.974 119.324 161.902 119.558 161.866 119.822C161.83 120.086 161.812 120.362 161.812 120.65V125.006H159.112V116.258ZM178.628 124.268C178.628 125.924 178.208 127.178 177.368 128.03C176.54 128.894 175.274 129.326 173.57 129.326C172.79 129.326 172.022 129.236 171.266 129.056C170.51 128.888 169.814 128.552 169.178 128.048L170.672 125.816C171.092 126.164 171.53 126.44 171.986 126.644C172.454 126.848 172.964 126.95 173.516 126.95C174.344 126.95 174.95 126.746 175.334 126.338C175.73 125.942 175.928 125.432 175.928 124.808V123.962H175.892C175.58 124.382 175.19 124.682 174.722 124.862C174.266 125.03 173.834 125.114 173.426 125.114C172.778 125.114 172.19 125.006 171.662 124.79C171.134 124.562 170.678 124.25 170.294 123.854C169.922 123.446 169.634 122.966 169.43 122.414C169.226 121.862 169.124 121.256 169.124 120.596C169.124 120.02 169.214 119.456 169.394 118.904C169.586 118.352 169.85 117.866 170.186 117.446C170.534 117.026 170.954 116.69 171.446 116.438C171.938 116.174 172.496 116.042 173.12 116.042C173.504 116.042 173.852 116.084 174.164 116.168C174.488 116.252 174.776 116.36 175.028 116.492C175.28 116.624 175.496 116.774 175.676 116.942C175.856 117.098 176 117.254 176.108 117.41H176.144V116.258H178.628V124.268ZM171.824 120.578C171.824 120.866 171.878 121.142 171.986 121.406C172.094 121.658 172.244 121.886 172.436 122.09C172.64 122.282 172.868 122.438 173.12 122.558C173.384 122.678 173.672 122.738 173.984 122.738C174.284 122.738 174.566 122.678 174.83 122.558C175.094 122.438 175.322 122.282 175.514 122.09C175.718 121.886 175.874 121.658 175.982 121.406C176.09 121.142 176.144 120.866 176.144 120.578C176.144 120.29 176.09 120.02 175.982 119.768C175.874 119.504 175.718 119.276 175.514 119.084C175.322 118.88 175.094 118.718 174.83 118.598C174.566 118.478 174.284 118.418 173.984 118.418C173.672 118.418 173.384 118.478 173.12 118.598C172.868 118.718 172.64 118.88 172.436 119.084C172.244 119.276 172.094 119.504 171.986 119.768C171.878 120.02 171.824 120.29 171.824 120.578Z" fill="#009051"/>
<defs>
<filter id="filter0_d_274_328" x="0" y="-0.000488281" width="343.485" height="259.676" filterUnits="userSpaceOnUse" color-interpolation-filters="sRGB">
<feFlood flood-opacity="0" result="BackgroundImageFix"/>
<feColorMatrix in="SourceAlpha" type="matrix" values="0 0 0 0 0 0 0 0 0 0 0 0 0 0 0 0 0 0 127 0" result="hardAlpha"/>
<feOffset dx="4" dy="4"/>
<feComposite in2="hardAlpha" operator="out"/>
<feColorMatrix type="matrix" values="0 0 0 0 0.47451 0 0 0 0 0.0941176 0 0 0 0 0.0431373 0 0 0 1 0"/>
<feBlend mode="normal" in2="BackgroundImageFix" result="effect1_dropShadow_274_328"/>
<feBlend mode="normal" in="SourceGraphic" in2="effect1_dropShadow_274_328" result="shape"/>
</filter>
</defs>
</svg>
