<svg width="358" height="248" viewBox="0 0 358 248" fill="none" xmlns="http://www.w3.org/2000/svg">
<g filter="url(#filter0_d_331_389)">
<path d="M5.43284 153.542C8.547 164.799 13.8856 176.759 13.8856 176.759L39.2438 205.919L81.5075 214.751C81.5075 214.751 167.142 219.5 192.5 219.5C213 219.5 237 241 237 241C237 241 220 219.5 237 210.5C292.161 211.045 289.029 207.227 307.507 205.919C330.604 204.284 343.521 197.345 347.991 158.465C352.44 119.77 349.517 58.637 342.208 39.5641C334.898 20.4911 325.302 21.2733 307.507 14.2378C293.349 8.64009 252.343 3.20062 231.877 3.20062C211.411 3.20062 102.534 6.47019 69.4957 3.20054C36.4577 -0.0691066 19.4406 37.5162 13.8856 52.2296C8.3305 66.943 3.19651 115.459 3.19651 125.812C3.19651 136.166 2.01807 141.198 5.43284 153.542Z" fill="#F0BD96"/>
<path d="M5.43284 153.542C8.547 164.799 13.8856 176.759 13.8856 176.759L39.2438 205.919L81.5075 214.751C81.5075 214.751 167.142 219.5 192.5 219.5C213 219.5 237 241 237 241C237 241 220 219.5 237 210.5C292.161 211.045 289.029 207.227 307.507 205.919C330.604 204.284 343.521 197.345 347.991 158.465C352.44 119.77 349.517 58.637 342.208 39.5641C334.898 20.4911 325.302 21.2733 307.507 14.2378C293.349 8.64009 252.343 3.20062 231.877 3.20062C211.411 3.20062 102.534 6.47019 69.4957 3.20054C36.4577 -0.0691066 19.4406 37.5162 13.8856 52.2296C8.3305 66.943 3.19651 115.459 3.19651 125.812C3.19651 136.166 2.01807 141.198 5.43284 153.542Z" stroke="#500001" stroke-width="6"/>
</g>
<rect width="285" height="143" transform="translate(35 35)" fill="#F0BD96"/>
<path d="M106.512 64V40.736H113.872C115.706 40.736 117.306 40.9813 118.672 41.472C120.058 41.9413 121.125 42.6773 121.872 43.68C122.64 44.6827 123.024 45.9733 123.024 47.552C123.024 48.5973 122.832 49.5573 122.448 50.432C122.064 51.2853 121.509 52.032 120.784 52.672C120.08 53.2907 119.205 53.792 118.16 54.176C118.842 54.496 119.397 54.9973 119.824 55.68L125.136 64H120.688C119.834 64 119.237 63.68 118.896 63.04L114.576 55.968C114.405 55.6907 114.202 55.488 113.968 55.36C113.754 55.232 113.434 55.168 113.008 55.168H111.44V64H106.512ZM111.44 51.744H113.84C115.29 51.744 116.378 51.4027 117.104 50.72C117.85 50.016 118.224 49.088 118.224 47.936C118.224 46.8267 117.861 45.9733 117.136 45.376C116.432 44.7787 115.344 44.48 113.872 44.48H111.44V51.744ZM122.128 64L120.4 60.064L122.672 60.512L122.128 64ZM104.08 64V61.92C104.08 61.6 104.176 61.3547 104.368 61.184C104.56 61.0133 104.826 60.896 105.168 60.832L106.768 60.48L107.216 64H104.08ZM107.216 40.736L106.768 44.256L105.168 43.936C104.826 43.8507 104.56 43.7333 104.368 43.584C104.176 43.4133 104.08 43.1573 104.08 42.816V40.736H107.216ZM110.736 64L111.152 60.48L112.784 60.832C113.125 60.896 113.392 61.0133 113.584 61.184C113.776 61.3547 113.872 61.6 113.872 61.92V64H110.736ZM122.128 64L122.544 60.48L124.176 60.832C124.517 60.896 124.784 61.0133 124.976 61.184C125.168 61.3547 125.264 61.6 125.264 61.92V64H122.128ZM133.93 64.256C132.244 64.256 130.783 63.8827 129.546 63.136C128.308 62.3893 127.348 61.3547 126.666 60.032C125.983 58.688 125.642 57.1307 125.642 55.36C125.642 53.8453 125.972 52.4693 126.634 51.232C127.316 49.9947 128.266 49.0133 129.482 48.288C130.698 47.5627 132.106 47.2 133.706 47.2C135.178 47.2 136.458 47.5093 137.546 48.128C138.634 48.7467 139.476 49.6213 140.074 50.752C140.692 51.8613 141.002 53.1947 141.002 54.752C141.002 55.3707 140.938 55.808 140.81 56.064C140.703 56.32 140.426 56.448 139.978 56.448H130.154C130.154 56.512 130.154 56.576 130.154 56.64C130.175 56.6827 130.196 56.736 130.218 56.8C130.41 58.1653 130.858 59.1787 131.562 59.84C132.266 60.5013 133.183 60.832 134.314 60.832C134.868 60.832 135.412 60.7253 135.946 60.512C136.5 60.2773 137.023 60.0427 137.514 59.808C138.004 59.5733 138.42 59.456 138.762 59.456C139.082 59.456 139.359 59.584 139.594 59.84L140.906 61.472C140.287 62.176 139.583 62.7307 138.794 63.136C138.026 63.5413 137.226 63.8293 136.394 64C135.562 64.1707 134.74 64.256 133.93 64.256ZM130.218 53.792H136.97C136.97 52.832 136.703 52.0213 136.17 51.36C135.658 50.6987 134.868 50.368 133.802 50.368C132.778 50.368 131.967 50.6667 131.37 51.264C130.794 51.8613 130.41 52.704 130.218 53.792ZM148.502 64.256C147.265 64.256 146.187 63.904 145.27 63.2C144.374 62.4747 143.681 61.472 143.19 60.192C142.699 58.912 142.454 57.44 142.454 55.776C142.454 54.176 142.742 52.7253 143.318 51.424C143.894 50.1227 144.715 49.088 145.782 48.32C146.849 47.552 148.097 47.168 149.526 47.168C150.422 47.168 151.179 47.3067 151.798 47.584C152.417 47.84 152.971 48.192 153.462 48.64V40.096H157.974V64H155.19C154.593 64 154.219 63.7333 154.07 63.2L153.718 61.792C153.057 62.5387 152.289 63.136 151.414 63.584C150.561 64.032 149.59 64.256 148.502 64.256ZM150.07 60.768C150.817 60.768 151.457 60.6187 151.99 60.32C152.523 60 153.014 59.5627 153.462 59.008V51.808C153.035 51.3387 152.587 51.008 152.118 50.816C151.67 50.624 151.169 50.528 150.614 50.528C149.867 50.528 149.227 50.7307 148.694 51.136C148.182 51.52 147.787 52.1067 147.51 52.896C147.254 53.6853 147.126 54.6453 147.126 55.776C147.126 57.3973 147.361 58.6347 147.83 59.488C148.321 60.3413 149.067 60.768 150.07 60.768ZM154.166 40.096L153.75 43.616L152.118 43.296C151.777 43.2107 151.51 43.0933 151.318 42.944C151.126 42.7733 151.03 42.5173 151.03 42.176V40.096H154.166ZM157.27 64L157.686 60.48L159.318 60.832C159.659 60.896 159.926 61.0133 160.118 61.184C160.31 61.3547 160.406 61.6 160.406 61.92V64H157.27ZM175.887 64V44.704H169.135V40.736H187.567V44.704H180.815V64H175.887ZM173.455 64V61.92C173.455 61.6 173.551 61.3547 173.743 61.184C173.956 61.0133 174.233 60.896 174.575 60.832L176.175 60.48L176.591 64H173.455ZM180.111 64L180.559 60.48L182.159 60.832C182.5 60.896 182.767 61.0133 182.959 61.184C183.151 61.3547 183.247 61.6 183.247 61.92V64H180.111ZM184.239 43.968L187.567 44.704V47.488H185.839C185.519 47.488 185.273 47.392 185.103 47.2C184.932 47.008 184.804 46.7413 184.719 46.4L184.239 43.968ZM172.463 43.968L171.983 46.4C171.897 46.7413 171.769 47.008 171.599 47.2C171.449 47.392 171.204 47.488 170.863 47.488H169.135V44.704L172.463 43.968ZM195.992 64.256C194.307 64.256 192.845 63.8827 191.608 63.136C190.371 62.3893 189.411 61.3547 188.728 60.032C188.045 58.688 187.704 57.1307 187.704 55.36C187.704 53.8453 188.035 52.4693 188.696 51.232C189.379 49.9947 190.328 49.0133 191.544 48.288C192.76 47.5627 194.168 47.2 195.768 47.2C197.24 47.2 198.52 47.5093 199.608 48.128C200.696 48.7467 201.539 49.6213 202.136 50.752C202.755 51.8613 203.064 53.1947 203.064 54.752C203.064 55.3707 203 55.808 202.872 56.064C202.765 56.32 202.488 56.448 202.04 56.448H192.216C192.216 56.512 192.216 56.576 192.216 56.64C192.237 56.6827 192.259 56.736 192.28 56.8C192.472 58.1653 192.92 59.1787 193.624 59.84C194.328 60.5013 195.245 60.832 196.376 60.832C196.931 60.832 197.475 60.7253 198.008 60.512C198.563 60.2773 199.085 60.0427 199.576 59.808C200.067 59.5733 200.483 59.456 200.824 59.456C201.144 59.456 201.421 59.584 201.656 59.84L202.968 61.472C202.349 62.176 201.645 62.7307 200.856 63.136C200.088 63.5413 199.288 63.8293 198.456 64C197.624 64.1707 196.803 64.256 195.992 64.256ZM192.28 53.792H199.032C199.032 52.832 198.765 52.0213 198.232 51.36C197.72 50.6987 196.931 50.368 195.864 50.368C194.84 50.368 194.029 50.6667 193.432 51.264C192.856 51.8613 192.472 52.704 192.28 53.792ZM209.477 64.256C208.516 64.256 207.663 64.0853 206.917 63.744C206.17 63.3813 205.594 62.8693 205.189 62.208C204.783 61.5253 204.581 60.704 204.581 59.744C204.581 59.1253 204.741 58.5173 205.061 57.92C205.381 57.3013 205.914 56.736 206.661 56.224C207.407 55.7547 208.399 55.36 209.637 55.04C210.895 54.6987 212.463 54.5067 214.341 54.464V53.632C214.341 52.5867 214.127 51.8293 213.701 51.36C213.274 50.8907 212.655 50.656 211.845 50.656C211.183 50.656 210.607 50.7733 210.117 51.008C209.647 51.2213 209.21 51.4453 208.805 51.68C208.399 51.8933 207.962 52 207.493 52C207.173 52 206.906 51.9253 206.693 51.776C206.479 51.6053 206.309 51.4133 206.181 51.2L205.349 49.76C206.33 48.8853 207.418 48.2347 208.613 47.808C209.807 47.3813 211.077 47.168 212.421 47.168C213.722 47.168 214.842 47.4453 215.781 48C216.741 48.5333 217.477 49.2907 217.989 50.272C218.501 51.232 218.757 52.352 218.757 53.632V64H216.677C216.25 64 215.919 63.9467 215.685 63.84C215.471 63.712 215.29 63.456 215.141 63.072L214.821 62.016C214.01 62.7413 213.189 63.296 212.357 63.68C211.546 64.064 210.586 64.256 209.477 64.256ZM210.885 61.216C211.61 61.216 212.229 61.088 212.741 60.832C213.274 60.576 213.807 60.1813 214.341 59.648V57.12C213.466 57.1413 212.687 57.216 212.005 57.344C211.343 57.4507 210.778 57.6 210.309 57.792C209.861 57.984 209.509 58.2187 209.253 58.496C209.018 58.7733 208.901 59.104 208.901 59.488C208.901 60.128 209.071 60.576 209.413 60.832C209.775 61.088 210.266 61.216 210.885 61.216ZM218.053 64L218.469 60.48L220.069 60.832C220.41 60.896 220.677 61.0133 220.869 61.184C221.082 61.3547 221.189 61.6 221.189 61.92V64H218.053ZM225.014 64V47.456H227.798C228.395 47.456 228.779 47.7227 228.95 48.256L229.206 49.312C229.782 48.7147 230.411 48.2133 231.094 47.808C231.798 47.4027 232.609 47.2 233.526 47.2C234.55 47.2 235.393 47.4773 236.054 48.032C236.715 48.5653 237.217 49.28 237.558 50.176C238.07 49.152 238.817 48.4053 239.798 47.936C240.779 47.4453 241.793 47.2 242.838 47.2C244.715 47.2 246.145 47.7653 247.126 48.896C248.129 50.0053 248.63 51.5307 248.63 53.472V64H244.118V53.472C244.118 52.5547 243.915 51.8613 243.51 51.392C243.105 50.9013 242.497 50.656 241.686 50.656C240.961 50.656 240.342 50.9013 239.83 51.392C239.339 51.8827 239.094 52.576 239.094 53.472V64H234.582V53.472C234.582 52.4693 234.379 51.7547 233.974 51.328C233.569 50.88 232.982 50.656 232.214 50.656C231.702 50.656 231.222 50.7733 230.774 51.008C230.347 51.2427 229.942 51.5627 229.558 51.968V64H225.014ZM222.582 64V61.92C222.582 61.6 222.678 61.3547 222.87 61.184C223.083 61.0133 223.361 60.896 223.702 60.832L225.302 60.48L225.718 64H222.582ZM228.854 64L229.27 60.48L230.87 60.832C231.211 60.896 231.478 61.0133 231.67 61.184C231.883 61.3547 231.99 61.6 231.99 61.92V64H228.854ZM238.39 64L238.838 60.48L240.438 60.832C240.779 60.896 241.046 61.0133 241.238 61.184C241.43 61.3547 241.526 61.6 241.526 61.92V64H238.39ZM225.718 47.456L225.302 50.976L223.702 50.656C223.361 50.5707 223.083 50.4533 222.87 50.304C222.678 50.1333 222.582 49.8773 222.582 49.536V47.456H225.718ZM247.926 64L248.342 60.48L249.974 60.832C250.315 60.896 250.582 61.0133 250.774 61.184C250.966 61.3547 251.062 61.6 251.062 61.92V64H247.926Z" fill="#FE3F46"/>
<path d="M52.9368 91.876H48.8328V90.256H58.7688V91.876H54.6648V103H52.9368V91.876ZM60.1947 89.392H61.8147V95.782H61.8507C62.0547 95.326 62.4087 94.96 62.9127 94.684C63.4167 94.396 63.9987 94.252 64.6587 94.252C65.0667 94.252 65.4567 94.318 65.8287 94.45C66.2127 94.57 66.5427 94.762 66.8187 95.026C67.1067 95.29 67.3347 95.632 67.5027 96.052C67.6707 96.46 67.7547 96.946 67.7547 97.51V103H66.1347V97.96C66.1347 97.564 66.0807 97.228 65.9727 96.952C65.8647 96.664 65.7207 96.436 65.5407 96.268C65.3607 96.088 65.1507 95.962 64.9107 95.89C64.6827 95.806 64.4427 95.764 64.1907 95.764C63.8547 95.764 63.5427 95.818 63.2547 95.926C62.9667 96.034 62.7147 96.208 62.4987 96.448C62.2827 96.676 62.1147 96.97 61.9947 97.33C61.8747 97.69 61.8147 98.116 61.8147 98.608V103H60.1947V89.392ZM71.4207 99.328C71.4207 99.7 71.4987 100.042 71.6547 100.354C71.8227 100.654 72.0387 100.912 72.3027 101.128C72.5667 101.344 72.8727 101.512 73.2207 101.632C73.5687 101.752 73.9287 101.812 74.3007 101.812C74.8047 101.812 75.2427 101.698 75.6147 101.47C75.9867 101.23 76.3287 100.918 76.6407 100.534L77.8647 101.47C76.9647 102.634 75.7047 103.216 74.0847 103.216C73.4127 103.216 72.8007 103.102 72.2487 102.874C71.7087 102.646 71.2467 102.334 70.8627 101.938C70.4907 101.53 70.2027 101.056 69.9987 100.516C69.7947 99.964 69.6927 99.37 69.6927 98.734C69.6927 98.098 69.8007 97.51 70.0167 96.97C70.2447 96.418 70.5507 95.944 70.9347 95.548C71.3307 95.14 71.7987 94.822 72.3387 94.594C72.8787 94.366 73.4667 94.252 74.1027 94.252C74.8587 94.252 75.4947 94.384 76.0107 94.648C76.5387 94.912 76.9707 95.26 77.3067 95.692C77.6427 96.112 77.8827 96.592 78.0267 97.132C78.1827 97.66 78.2607 98.2 78.2607 98.752V99.328H71.4207ZM76.5327 98.032C76.5207 97.672 76.4607 97.342 76.3527 97.042C76.2567 96.742 76.1067 96.484 75.9027 96.268C75.6987 96.04 75.4407 95.866 75.1287 95.746C74.8287 95.614 74.4747 95.548 74.0667 95.548C73.6707 95.548 73.3047 95.626 72.9687 95.782C72.6447 95.926 72.3687 96.118 72.1407 96.358C71.9127 96.598 71.7327 96.868 71.6007 97.168C71.4807 97.456 71.4207 97.744 71.4207 98.032H76.5327ZM85.2084 94.468H86.8284V95.782H86.8644C86.9724 95.554 87.1164 95.35 87.2964 95.17C87.4764 94.978 87.6744 94.816 87.8904 94.684C88.1184 94.552 88.3644 94.45 88.6284 94.378C88.8924 94.294 89.1564 94.252 89.4204 94.252C89.6844 94.252 89.9244 94.288 90.1404 94.36L90.0684 96.106C89.9364 96.07 89.8044 96.04 89.6724 96.016C89.5404 95.992 89.4084 95.98 89.2764 95.98C88.4844 95.98 87.8784 96.202 87.4584 96.646C87.0384 97.09 86.8284 97.78 86.8284 98.716V103H85.2084V94.468ZM92.7781 99.328C92.7781 99.7 92.8561 100.042 93.0121 100.354C93.1801 100.654 93.3961 100.912 93.6601 101.128C93.9241 101.344 94.2301 101.512 94.5781 101.632C94.9261 101.752 95.2861 101.812 95.6581 101.812C96.1621 101.812 96.6001 101.698 96.9721 101.47C97.3441 101.23 97.6861 100.918 97.9981 100.534L99.2221 101.47C98.3221 102.634 97.0621 103.216 95.4421 103.216C94.7701 103.216 94.1581 103.102 93.6061 102.874C93.0661 102.646 92.6041 102.334 92.2201 101.938C91.8481 101.53 91.5601 101.056 91.3561 100.516C91.1521 99.964 91.0501 99.37 91.0501 98.734C91.0501 98.098 91.1581 97.51 91.3741 96.97C91.6021 96.418 91.9081 95.944 92.2921 95.548C92.6881 95.14 93.1561 94.822 93.6961 94.594C94.2361 94.366 94.8241 94.252 95.4601 94.252C96.2161 94.252 96.8521 94.384 97.3681 94.648C97.8961 94.912 98.3281 95.26 98.6641 95.692C99.0001 96.112 99.2401 96.592 99.3841 97.132C99.5401 97.66 99.6181 98.2 99.6181 98.752V99.328H92.7781ZM97.8901 98.032C97.8781 97.672 97.8181 97.342 97.7101 97.042C97.6141 96.742 97.4641 96.484 97.2601 96.268C97.0561 96.04 96.7981 95.866 96.4861 95.746C96.1861 95.614 95.8321 95.548 95.4241 95.548C95.0281 95.548 94.6621 95.626 94.3261 95.782C94.0021 95.926 93.7261 96.118 93.4981 96.358C93.2701 96.598 93.0901 96.868 92.9581 97.168C92.8381 97.456 92.7781 97.744 92.7781 98.032H97.8901ZM110.106 103H108.486V101.776H108.45C108.138 102.232 107.706 102.586 107.154 102.838C106.614 103.09 106.056 103.216 105.48 103.216C104.82 103.216 104.22 103.102 103.68 102.874C103.152 102.646 102.696 102.328 102.312 101.92C101.94 101.512 101.652 101.038 101.448 100.498C101.244 99.958 101.142 99.37 101.142 98.734C101.142 98.098 101.244 97.51 101.448 96.97C101.652 96.418 101.94 95.944 102.312 95.548C102.696 95.14 103.152 94.822 103.68 94.594C104.22 94.366 104.82 94.252 105.48 94.252C106.092 94.252 106.668 94.384 107.208 94.648C107.748 94.9 108.162 95.248 108.45 95.692H108.486V89.392H110.106V103ZM105.678 101.704C106.11 101.704 106.5 101.632 106.848 101.488C107.196 101.332 107.49 101.128 107.73 100.876C107.97 100.612 108.156 100.3 108.288 99.94C108.42 99.568 108.486 99.166 108.486 98.734C108.486 98.302 108.42 97.906 108.288 97.546C108.156 97.174 107.97 96.862 107.73 96.61C107.49 96.346 107.196 96.142 106.848 95.998C106.5 95.842 106.11 95.764 105.678 95.764C105.246 95.764 104.856 95.842 104.508 95.998C104.16 96.142 103.866 96.346 103.626 96.61C103.386 96.862 103.2 97.174 103.068 97.546C102.936 97.906 102.87 98.302 102.87 98.734C102.87 99.166 102.936 99.568 103.068 99.94C103.2 100.3 103.386 100.612 103.626 100.876C103.866 101.128 104.16 101.332 104.508 101.488C104.856 101.632 105.246 101.704 105.678 101.704ZM122.142 95.872H119.82V99.742C119.82 99.982 119.826 100.222 119.838 100.462C119.85 100.69 119.892 100.9 119.964 101.092C120.048 101.272 120.168 101.422 120.324 101.542C120.492 101.65 120.732 101.704 121.044 101.704C121.236 101.704 121.434 101.686 121.638 101.65C121.842 101.614 122.028 101.548 122.196 101.452V102.928C122.004 103.036 121.752 103.108 121.44 103.144C121.14 103.192 120.906 103.216 120.738 103.216C120.114 103.216 119.628 103.132 119.28 102.964C118.944 102.784 118.692 102.556 118.524 102.28C118.368 102.004 118.272 101.698 118.236 101.362C118.212 101.014 118.2 100.666 118.2 100.318V95.872H116.328V94.468H118.2V92.074H119.82V94.468H122.142V95.872ZM125.456 99.328C125.456 99.7 125.534 100.042 125.69 100.354C125.858 100.654 126.074 100.912 126.338 101.128C126.602 101.344 126.908 101.512 127.256 101.632C127.604 101.752 127.964 101.812 128.336 101.812C128.84 101.812 129.278 101.698 129.65 101.47C130.022 101.23 130.364 100.918 130.676 100.534L131.9 101.47C131 102.634 129.74 103.216 128.12 103.216C127.448 103.216 126.836 103.102 126.284 102.874C125.744 102.646 125.282 102.334 124.898 101.938C124.526 101.53 124.238 101.056 124.034 100.516C123.83 99.964 123.728 99.37 123.728 98.734C123.728 98.098 123.836 97.51 124.052 96.97C124.28 96.418 124.586 95.944 124.97 95.548C125.366 95.14 125.834 94.822 126.374 94.594C126.914 94.366 127.502 94.252 128.138 94.252C128.894 94.252 129.53 94.384 130.046 94.648C130.574 94.912 131.006 95.26 131.342 95.692C131.678 96.112 131.918 96.592 132.062 97.132C132.218 97.66 132.296 98.2 132.296 98.752V99.328H125.456ZM130.568 98.032C130.556 97.672 130.496 97.342 130.388 97.042C130.292 96.742 130.142 96.484 129.938 96.268C129.734 96.04 129.476 95.866 129.164 95.746C128.864 95.614 128.51 95.548 128.102 95.548C127.706 95.548 127.34 95.626 127.004 95.782C126.68 95.926 126.404 96.118 126.176 96.358C125.948 96.598 125.768 96.868 125.636 97.168C125.516 97.456 125.456 97.744 125.456 98.032H130.568ZM134.27 95.512C134.726 95.092 135.254 94.78 135.854 94.576C136.454 94.36 137.054 94.252 137.654 94.252C138.278 94.252 138.812 94.33 139.256 94.486C139.712 94.642 140.084 94.852 140.372 95.116C140.66 95.38 140.87 95.686 141.002 96.034C141.146 96.37 141.218 96.724 141.218 97.096V101.452C141.218 101.752 141.224 102.028 141.236 102.28C141.248 102.532 141.266 102.772 141.29 103H139.85C139.814 102.568 139.796 102.136 139.796 101.704H139.76C139.4 102.256 138.974 102.646 138.482 102.874C137.99 103.102 137.42 103.216 136.772 103.216C136.376 103.216 135.998 103.162 135.638 103.054C135.278 102.946 134.96 102.784 134.684 102.568C134.42 102.352 134.21 102.088 134.054 101.776C133.898 101.452 133.82 101.08 133.82 100.66C133.82 100.108 133.94 99.646 134.18 99.274C134.432 98.902 134.768 98.602 135.188 98.374C135.62 98.134 136.118 97.966 136.682 97.87C137.258 97.762 137.87 97.708 138.518 97.708H139.706V97.348C139.706 97.132 139.664 96.916 139.58 96.7C139.496 96.484 139.37 96.292 139.202 96.124C139.034 95.944 138.824 95.806 138.572 95.71C138.32 95.602 138.02 95.548 137.672 95.548C137.36 95.548 137.084 95.578 136.844 95.638C136.616 95.698 136.406 95.776 136.214 95.872C136.022 95.956 135.848 96.058 135.692 96.178C135.536 96.298 135.386 96.412 135.242 96.52L134.27 95.512ZM138.842 98.896C138.458 98.896 138.062 98.92 137.654 98.968C137.258 99.004 136.892 99.082 136.556 99.202C136.232 99.322 135.962 99.49 135.746 99.706C135.542 99.922 135.44 100.198 135.44 100.534C135.44 101.026 135.602 101.38 135.926 101.596C136.262 101.812 136.712 101.92 137.276 101.92C137.72 101.92 138.098 101.848 138.41 101.704C138.722 101.548 138.974 101.35 139.166 101.11C139.358 100.87 139.496 100.606 139.58 100.318C139.664 100.018 139.706 99.724 139.706 99.436V98.896H138.842ZM143.568 94.468H145.08V95.8H145.116C145.152 95.68 145.242 95.53 145.386 95.35C145.542 95.17 145.734 95.002 145.962 94.846C146.202 94.678 146.478 94.54 146.79 94.432C147.114 94.312 147.468 94.252 147.852 94.252C148.488 94.252 149.022 94.384 149.454 94.648C149.886 94.912 150.24 95.308 150.516 95.836C150.792 95.308 151.182 94.912 151.686 94.648C152.19 94.384 152.7 94.252 153.216 94.252C153.876 94.252 154.416 94.36 154.836 94.576C155.256 94.792 155.586 95.08 155.826 95.44C156.066 95.788 156.228 96.19 156.312 96.646C156.408 97.09 156.456 97.552 156.456 98.032V103H154.836V98.248C154.836 97.924 154.812 97.612 154.764 97.312C154.728 97.012 154.644 96.748 154.512 96.52C154.38 96.292 154.194 96.112 153.954 95.98C153.714 95.836 153.396 95.764 153 95.764C152.22 95.764 151.662 96.004 151.326 96.484C150.99 96.964 150.822 97.582 150.822 98.338V103H149.202V98.536C149.202 98.128 149.178 97.756 149.13 97.42C149.094 97.084 149.01 96.796 148.878 96.556C148.758 96.304 148.578 96.112 148.338 95.98C148.11 95.836 147.798 95.764 147.402 95.764C147.114 95.764 146.832 95.824 146.556 95.944C146.292 96.052 146.058 96.22 145.854 96.448C145.65 96.676 145.488 96.97 145.368 97.33C145.248 97.678 145.188 98.092 145.188 98.572V103H143.568V94.468ZM164.032 94.468H165.652V103H164.032V94.468ZM163.654 91.408C163.654 91.084 163.768 90.808 163.996 90.58C164.236 90.34 164.518 90.22 164.842 90.22C165.166 90.22 165.442 90.34 165.67 90.58C165.91 90.808 166.03 91.084 166.03 91.408C166.03 91.732 165.91 92.014 165.67 92.254C165.442 92.482 165.166 92.596 164.842 92.596C164.518 92.596 164.236 92.482 163.996 92.254C163.768 92.014 163.654 91.732 163.654 91.408ZM172.766 96.61C172.574 96.37 172.334 96.172 172.046 96.016C171.77 95.848 171.428 95.764 171.02 95.764C170.636 95.764 170.3 95.848 170.012 96.016C169.736 96.172 169.598 96.406 169.598 96.718C169.598 96.97 169.676 97.174 169.832 97.33C170 97.486 170.192 97.612 170.408 97.708C170.636 97.804 170.876 97.876 171.128 97.924C171.38 97.972 171.596 98.014 171.776 98.05C172.124 98.134 172.448 98.236 172.748 98.356C173.06 98.476 173.324 98.632 173.54 98.824C173.768 99.016 173.942 99.25 174.062 99.526C174.194 99.802 174.26 100.138 174.26 100.534C174.26 101.014 174.158 101.428 173.954 101.776C173.75 102.112 173.486 102.388 173.162 102.604C172.838 102.82 172.466 102.976 172.046 103.072C171.638 103.168 171.224 103.216 170.804 103.216C170.096 103.216 169.472 103.108 168.932 102.892C168.404 102.676 167.93 102.28 167.51 101.704L168.734 100.696C168.998 100.96 169.292 101.194 169.616 101.398C169.94 101.602 170.336 101.704 170.804 101.704C171.008 101.704 171.212 101.686 171.416 101.65C171.632 101.602 171.818 101.536 171.974 101.452C172.142 101.356 172.274 101.242 172.37 101.11C172.478 100.966 172.532 100.804 172.532 100.624C172.532 100.384 172.454 100.186 172.298 100.03C172.154 99.874 171.974 99.754 171.758 99.67C171.554 99.574 171.332 99.502 171.092 99.454C170.864 99.394 170.66 99.346 170.48 99.31C170.132 99.226 169.802 99.13 169.49 99.022C169.178 98.914 168.902 98.77 168.662 98.59C168.422 98.41 168.23 98.182 168.086 97.906C167.942 97.63 167.87 97.288 167.87 96.88C167.87 96.436 167.96 96.052 168.14 95.728C168.332 95.392 168.578 95.116 168.878 94.9C169.19 94.684 169.538 94.522 169.922 94.414C170.318 94.306 170.714 94.252 171.11 94.252C171.686 94.252 172.238 94.36 172.766 94.576C173.294 94.792 173.714 95.152 174.026 95.656L172.766 96.61ZM277.285 95.512C277.741 95.092 278.269 94.78 278.869 94.576C279.469 94.36 280.069 94.252 280.669 94.252C281.293 94.252 281.827 94.33 282.271 94.486C282.727 94.642 283.099 94.852 283.387 95.116C283.675 95.38 283.885 95.686 284.017 96.034C284.161 96.37 284.233 96.724 284.233 97.096V101.452C284.233 101.752 284.239 102.028 284.251 102.28C284.263 102.532 284.281 102.772 284.305 103H282.865C282.829 102.568 282.811 102.136 282.811 101.704H282.775C282.415 102.256 281.989 102.646 281.497 102.874C281.005 103.102 280.435 103.216 279.787 103.216C279.391 103.216 279.013 103.162 278.653 103.054C278.293 102.946 277.975 102.784 277.699 102.568C277.435 102.352 277.225 102.088 277.069 101.776C276.913 101.452 276.835 101.08 276.835 100.66C276.835 100.108 276.955 99.646 277.195 99.274C277.447 98.902 277.783 98.602 278.203 98.374C278.635 98.134 279.133 97.966 279.697 97.87C280.273 97.762 280.885 97.708 281.533 97.708H282.721V97.348C282.721 97.132 282.679 96.916 282.595 96.7C282.511 96.484 282.385 96.292 282.217 96.124C282.049 95.944 281.839 95.806 281.587 95.71C281.335 95.602 281.035 95.548 280.687 95.548C280.375 95.548 280.099 95.578 279.859 95.638C279.631 95.698 279.421 95.776 279.229 95.872C279.037 95.956 278.863 96.058 278.707 96.178C278.551 96.298 278.401 96.412 278.257 96.52L277.285 95.512ZM281.857 98.896C281.473 98.896 281.077 98.92 280.669 98.968C280.273 99.004 279.907 99.082 279.571 99.202C279.247 99.322 278.977 99.49 278.761 99.706C278.557 99.922 278.455 100.198 278.455 100.534C278.455 101.026 278.617 101.38 278.941 101.596C279.277 101.812 279.727 101.92 280.291 101.92C280.735 101.92 281.113 101.848 281.425 101.704C281.737 101.548 281.989 101.35 282.181 101.11C282.373 100.87 282.511 100.606 282.595 100.318C282.679 100.018 282.721 99.724 282.721 99.436V98.896H281.857ZM286.583 94.468H288.203V95.782H288.239C288.443 95.326 288.797 94.96 289.301 94.684C289.805 94.396 290.387 94.252 291.047 94.252C291.455 94.252 291.845 94.318 292.217 94.45C292.601 94.57 292.931 94.762 293.207 95.026C293.495 95.29 293.723 95.632 293.891 96.052C294.059 96.46 294.143 96.946 294.143 97.51V103H292.523V97.96C292.523 97.564 292.469 97.228 292.361 96.952C292.253 96.664 292.109 96.436 291.929 96.268C291.749 96.088 291.539 95.962 291.299 95.89C291.071 95.806 290.831 95.764 290.579 95.764C290.243 95.764 289.931 95.818 289.643 95.926C289.355 96.034 289.103 96.208 288.887 96.448C288.671 96.676 288.503 96.97 288.383 97.33C288.263 97.69 288.203 98.116 288.203 98.608V103H286.583V94.468ZM305.135 103H303.515V101.776H303.479C303.167 102.232 302.735 102.586 302.183 102.838C301.643 103.09 301.085 103.216 300.509 103.216C299.849 103.216 299.249 103.102 298.709 102.874C298.181 102.646 297.725 102.328 297.341 101.92C296.969 101.512 296.681 101.038 296.477 100.498C296.273 99.958 296.171 99.37 296.171 98.734C296.171 98.098 296.273 97.51 296.477 96.97C296.681 96.418 296.969 95.944 297.341 95.548C297.725 95.14 298.181 94.822 298.709 94.594C299.249 94.366 299.849 94.252 300.509 94.252C301.121 94.252 301.697 94.384 302.237 94.648C302.777 94.9 303.191 95.248 303.479 95.692H303.515V89.392H305.135V103ZM300.707 101.704C301.139 101.704 301.529 101.632 301.877 101.488C302.225 101.332 302.519 101.128 302.759 100.876C302.999 100.612 303.185 100.3 303.317 99.94C303.449 99.568 303.515 99.166 303.515 98.734C303.515 98.302 303.449 97.906 303.317 97.546C303.185 97.174 302.999 96.862 302.759 96.61C302.519 96.346 302.225 96.142 301.877 95.998C301.529 95.842 301.139 95.764 300.707 95.764C300.275 95.764 299.885 95.842 299.537 95.998C299.189 96.142 298.895 96.346 298.655 96.61C298.415 96.862 298.229 97.174 298.097 97.546C297.965 97.906 297.899 98.302 297.899 98.734C297.899 99.166 297.965 99.568 298.097 99.94C298.229 100.3 298.415 100.612 298.655 100.876C298.895 101.128 299.189 101.332 299.537 101.488C299.885 101.632 300.275 101.704 300.707 101.704ZM108.311 124.328H106.583V115.256H108.311V124.328ZM106.295 126.92C106.295 126.596 106.409 126.32 106.637 126.092C106.877 125.852 107.159 125.732 107.483 125.732C107.807 125.732 108.083 125.852 108.311 126.092C108.551 126.32 108.671 126.596 108.671 126.92C108.671 127.244 108.551 127.526 108.311 127.766C108.083 127.994 107.807 128.108 107.483 128.108C107.159 128.108 106.877 127.994 106.637 127.766C106.409 127.526 106.295 127.244 106.295 126.92ZM119.303 116.876H115.199V115.256H125.135V116.876H121.031V128H119.303V116.876ZM126.561 114.392H128.181V120.782H128.217C128.421 120.326 128.775 119.96 129.279 119.684C129.783 119.396 130.365 119.252 131.025 119.252C131.433 119.252 131.823 119.318 132.195 119.45C132.579 119.57 132.909 119.762 133.185 120.026C133.473 120.29 133.701 120.632 133.869 121.052C134.037 121.46 134.121 121.946 134.121 122.51V128H132.501V122.96C132.501 122.564 132.447 122.228 132.339 121.952C132.231 121.664 132.087 121.436 131.907 121.268C131.727 121.088 131.517 120.962 131.277 120.89C131.049 120.806 130.809 120.764 130.557 120.764C130.221 120.764 129.909 120.818 129.621 120.926C129.333 121.034 129.081 121.208 128.865 121.448C128.649 121.676 128.481 121.97 128.361 122.33C128.241 122.69 128.181 123.116 128.181 123.608V128H126.561V114.392ZM137.787 124.328C137.787 124.7 137.865 125.042 138.021 125.354C138.189 125.654 138.405 125.912 138.669 126.128C138.933 126.344 139.239 126.512 139.587 126.632C139.935 126.752 140.295 126.812 140.667 126.812C141.171 126.812 141.609 126.698 141.981 126.47C142.353 126.23 142.695 125.918 143.007 125.534L144.231 126.47C143.331 127.634 142.071 128.216 140.451 128.216C139.779 128.216 139.167 128.102 138.615 127.874C138.075 127.646 137.613 127.334 137.229 126.938C136.857 126.53 136.569 126.056 136.365 125.516C136.161 124.964 136.059 124.37 136.059 123.734C136.059 123.098 136.167 122.51 136.383 121.97C136.611 121.418 136.917 120.944 137.301 120.548C137.697 120.14 138.165 119.822 138.705 119.594C139.245 119.366 139.833 119.252 140.469 119.252C141.225 119.252 141.861 119.384 142.377 119.648C142.905 119.912 143.337 120.26 143.673 120.692C144.009 121.112 144.249 121.592 144.393 122.132C144.549 122.66 144.627 123.2 144.627 123.752V124.328H137.787ZM142.899 123.032C142.887 122.672 142.827 122.342 142.719 122.042C142.623 121.742 142.473 121.484 142.269 121.268C142.065 121.04 141.807 120.866 141.495 120.746C141.195 120.614 140.841 120.548 140.433 120.548C140.037 120.548 139.671 120.626 139.335 120.782C139.011 120.926 138.735 121.118 138.507 121.358C138.279 121.598 138.099 121.868 137.967 122.168C137.847 122.456 137.787 122.744 137.787 123.032H142.899ZM146.691 119.468H148.311V128H146.691V119.468ZM146.313 116.408C146.313 116.084 146.427 115.808 146.655 115.58C146.895 115.34 147.177 115.22 147.501 115.22C147.825 115.22 148.101 115.34 148.329 115.58C148.569 115.808 148.689 116.084 148.689 116.408C148.689 116.732 148.569 117.014 148.329 117.254C148.101 117.482 147.825 117.596 147.501 117.596C147.177 117.596 146.895 117.482 146.655 117.254C146.427 117.014 146.313 116.732 146.313 116.408ZM150.889 119.468H152.509V120.782H152.545C152.653 120.554 152.797 120.35 152.977 120.17C153.157 119.978 153.355 119.816 153.571 119.684C153.799 119.552 154.045 119.45 154.309 119.378C154.573 119.294 154.837 119.252 155.101 119.252C155.365 119.252 155.605 119.288 155.821 119.36L155.749 121.106C155.617 121.07 155.485 121.04 155.353 121.016C155.221 120.992 155.089 120.98 154.957 120.98C154.165 120.98 153.559 121.202 153.139 121.646C152.719 122.09 152.509 122.78 152.509 123.716V128H150.889V119.468ZM163.785 124.328C163.785 124.7 163.863 125.042 164.019 125.354C164.187 125.654 164.403 125.912 164.667 126.128C164.931 126.344 165.237 126.512 165.585 126.632C165.933 126.752 166.293 126.812 166.665 126.812C167.169 126.812 167.607 126.698 167.979 126.47C168.351 126.23 168.693 125.918 169.005 125.534L170.229 126.47C169.329 127.634 168.069 128.216 166.449 128.216C165.777 128.216 165.165 128.102 164.613 127.874C164.073 127.646 163.611 127.334 163.227 126.938C162.855 126.53 162.567 126.056 162.363 125.516C162.159 124.964 162.057 124.37 162.057 123.734C162.057 123.098 162.165 122.51 162.381 121.97C162.609 121.418 162.915 120.944 163.299 120.548C163.695 120.14 164.163 119.822 164.703 119.594C165.243 119.366 165.831 119.252 166.467 119.252C167.223 119.252 167.859 119.384 168.375 119.648C168.903 119.912 169.335 120.26 169.671 120.692C170.007 121.112 170.247 121.592 170.391 122.132C170.547 122.66 170.625 123.2 170.625 123.752V124.328H163.785ZM168.897 123.032C168.885 122.672 168.825 122.342 168.717 122.042C168.621 121.742 168.471 121.484 168.267 121.268C168.063 121.04 167.805 120.866 167.493 120.746C167.193 120.614 166.839 120.548 166.431 120.548C166.035 120.548 165.669 120.626 165.333 120.782C165.009 120.926 164.733 121.118 164.505 121.358C164.277 121.598 164.097 121.868 163.965 122.168C163.845 122.456 163.785 122.744 163.785 123.032H168.897ZM172.563 119.468H174.075V120.8H174.111C174.147 120.68 174.237 120.53 174.381 120.35C174.537 120.17 174.729 120.002 174.957 119.846C175.197 119.678 175.473 119.54 175.785 119.432C176.109 119.312 176.463 119.252 176.847 119.252C177.483 119.252 178.017 119.384 178.449 119.648C178.881 119.912 179.235 120.308 179.511 120.836C179.787 120.308 180.177 119.912 180.681 119.648C181.185 119.384 181.695 119.252 182.211 119.252C182.871 119.252 183.411 119.36 183.831 119.576C184.251 119.792 184.581 120.08 184.821 120.44C185.061 120.788 185.223 121.19 185.307 121.646C185.403 122.09 185.451 122.552 185.451 123.032V128H183.831V123.248C183.831 122.924 183.807 122.612 183.759 122.312C183.723 122.012 183.639 121.748 183.507 121.52C183.375 121.292 183.189 121.112 182.949 120.98C182.709 120.836 182.391 120.764 181.995 120.764C181.215 120.764 180.657 121.004 180.321 121.484C179.985 121.964 179.817 122.582 179.817 123.338V128H178.197V123.536C178.197 123.128 178.173 122.756 178.125 122.42C178.089 122.084 178.005 121.796 177.873 121.556C177.753 121.304 177.573 121.112 177.333 120.98C177.105 120.836 176.793 120.764 176.397 120.764C176.109 120.764 175.827 120.824 175.551 120.944C175.287 121.052 175.053 121.22 174.849 121.448C174.645 121.676 174.483 121.97 174.363 122.33C174.243 122.678 174.183 123.092 174.183 123.572V128H172.563V119.468ZM189.205 123.734C189.205 124.166 189.271 124.568 189.403 124.94C189.535 125.3 189.721 125.612 189.961 125.876C190.201 126.128 190.495 126.332 190.843 126.488C191.191 126.632 191.581 126.704 192.013 126.704C192.445 126.704 192.835 126.632 193.183 126.488C193.531 126.332 193.825 126.128 194.065 125.876C194.305 125.612 194.491 125.3 194.623 124.94C194.755 124.568 194.821 124.166 194.821 123.734C194.821 123.302 194.755 122.906 194.623 122.546C194.491 122.174 194.305 121.862 194.065 121.61C193.825 121.346 193.531 121.142 193.183 120.998C192.835 120.842 192.445 120.764 192.013 120.764C191.581 120.764 191.191 120.842 190.843 120.998C190.495 121.142 190.201 121.346 189.961 121.61C189.721 121.862 189.535 122.174 189.403 122.546C189.271 122.906 189.205 123.302 189.205 123.734ZM187.477 123.734C187.477 123.11 187.591 122.528 187.819 121.988C188.059 121.448 188.383 120.974 188.791 120.566C189.199 120.158 189.679 119.84 190.231 119.612C190.783 119.372 191.377 119.252 192.013 119.252C192.649 119.252 193.243 119.372 193.795 119.612C194.347 119.84 194.827 120.158 195.235 120.566C195.643 120.974 195.961 121.448 196.189 121.988C196.429 122.528 196.549 123.11 196.549 123.734C196.549 124.358 196.429 124.946 196.189 125.498C195.961 126.038 195.643 126.512 195.235 126.92C194.827 127.316 194.347 127.634 193.795 127.874C193.243 128.102 192.649 128.216 192.013 128.216C191.377 128.216 190.783 128.102 190.231 127.874C189.679 127.634 189.199 127.316 188.791 126.92C188.383 126.512 188.059 126.038 187.819 125.498C187.591 124.946 187.477 124.358 187.477 123.734ZM203.15 120.872H200.828V124.742C200.828 124.982 200.834 125.222 200.846 125.462C200.858 125.69 200.9 125.9 200.972 126.092C201.056 126.272 201.176 126.422 201.332 126.542C201.5 126.65 201.74 126.704 202.052 126.704C202.244 126.704 202.442 126.686 202.646 126.65C202.85 126.614 203.036 126.548 203.204 126.452V127.928C203.012 128.036 202.76 128.108 202.448 128.144C202.148 128.192 201.914 128.216 201.746 128.216C201.122 128.216 200.636 128.132 200.288 127.964C199.952 127.784 199.7 127.556 199.532 127.28C199.376 127.004 199.28 126.698 199.244 126.362C199.22 126.014 199.208 125.666 199.208 125.318V120.872H197.336V119.468H199.208V117.074H200.828V119.468H203.15V120.872ZM205.367 119.468H206.987V128H205.367V119.468ZM204.989 116.408C204.989 116.084 205.103 115.808 205.331 115.58C205.571 115.34 205.853 115.22 206.177 115.22C206.501 115.22 206.777 115.34 207.005 115.58C207.245 115.808 207.365 116.084 207.365 116.408C207.365 116.732 207.245 117.014 207.005 117.254C206.777 117.482 206.501 117.596 206.177 117.596C205.853 117.596 205.571 117.482 205.331 117.254C205.103 117.014 204.989 116.732 204.989 116.408ZM210.879 123.734C210.879 124.166 210.945 124.568 211.077 124.94C211.209 125.3 211.395 125.612 211.635 125.876C211.875 126.128 212.169 126.332 212.517 126.488C212.865 126.632 213.255 126.704 213.687 126.704C214.119 126.704 214.509 126.632 214.857 126.488C215.205 126.332 215.499 126.128 215.739 125.876C215.979 125.612 216.165 125.3 216.297 124.94C216.429 124.568 216.495 124.166 216.495 123.734C216.495 123.302 216.429 122.906 216.297 122.546C216.165 122.174 215.979 121.862 215.739 121.61C215.499 121.346 215.205 121.142 214.857 120.998C214.509 120.842 214.119 120.764 213.687 120.764C213.255 120.764 212.865 120.842 212.517 120.998C212.169 121.142 211.875 121.346 211.635 121.61C211.395 121.862 211.209 122.174 211.077 122.546C210.945 122.906 210.879 123.302 210.879 123.734ZM209.151 123.734C209.151 123.11 209.265 122.528 209.493 121.988C209.733 121.448 210.057 120.974 210.465 120.566C210.873 120.158 211.353 119.84 211.905 119.612C212.457 119.372 213.051 119.252 213.687 119.252C214.323 119.252 214.917 119.372 215.469 119.612C216.021 119.84 216.501 120.158 216.909 120.566C217.317 120.974 217.635 121.448 217.863 121.988C218.103 122.528 218.223 123.11 218.223 123.734C218.223 124.358 218.103 124.946 217.863 125.498C217.635 126.038 217.317 126.512 216.909 126.92C216.501 127.316 216.021 127.634 215.469 127.874C214.917 128.102 214.323 128.216 213.687 128.216C213.051 128.216 212.457 128.102 211.905 127.874C211.353 127.634 210.873 127.316 210.465 126.92C210.057 126.512 209.733 126.038 209.493 125.498C209.265 124.946 209.151 124.358 209.151 123.734ZM220.252 119.468H221.872V120.782H221.908C222.112 120.326 222.466 119.96 222.97 119.684C223.474 119.396 224.056 119.252 224.716 119.252C225.124 119.252 225.514 119.318 225.886 119.45C226.27 119.57 226.6 119.762 226.876 120.026C227.164 120.29 227.392 120.632 227.56 121.052C227.728 121.46 227.812 121.946 227.812 122.51V128H226.192V122.96C226.192 122.564 226.138 122.228 226.03 121.952C225.922 121.664 225.778 121.436 225.598 121.268C225.418 121.088 225.208 120.962 224.968 120.89C224.74 120.806 224.5 120.764 224.248 120.764C223.912 120.764 223.6 120.818 223.312 120.926C223.024 121.034 222.772 121.208 222.556 121.448C222.34 121.676 222.172 121.97 222.052 122.33C221.932 122.69 221.872 123.116 221.872 123.608V128H220.252V119.468ZM235.39 119.468H237.01V128H235.39V119.468ZM235.012 116.408C235.012 116.084 235.126 115.808 235.354 115.58C235.594 115.34 235.876 115.22 236.2 115.22C236.524 115.22 236.8 115.34 237.028 115.58C237.268 115.808 237.388 116.084 237.388 116.408C237.388 116.732 237.268 117.014 237.028 117.254C236.8 117.482 236.524 117.596 236.2 117.596C235.876 117.596 235.594 117.482 235.354 117.254C235.126 117.014 235.012 116.732 235.012 116.408ZM244.124 121.61C243.932 121.37 243.692 121.172 243.404 121.016C243.128 120.848 242.786 120.764 242.378 120.764C241.994 120.764 241.658 120.848 241.37 121.016C241.094 121.172 240.956 121.406 240.956 121.718C240.956 121.97 241.034 122.174 241.19 122.33C241.358 122.486 241.55 122.612 241.766 122.708C241.994 122.804 242.234 122.876 242.486 122.924C242.738 122.972 242.954 123.014 243.134 123.05C243.482 123.134 243.806 123.236 244.106 123.356C244.418 123.476 244.682 123.632 244.898 123.824C245.126 124.016 245.3 124.25 245.42 124.526C245.552 124.802 245.618 125.138 245.618 125.534C245.618 126.014 245.516 126.428 245.312 126.776C245.108 127.112 244.844 127.388 244.52 127.604C244.196 127.82 243.824 127.976 243.404 128.072C242.996 128.168 242.582 128.216 242.162 128.216C241.454 128.216 240.83 128.108 240.29 127.892C239.762 127.676 239.288 127.28 238.868 126.704L240.092 125.696C240.356 125.96 240.65 126.194 240.974 126.398C241.298 126.602 241.694 126.704 242.162 126.704C242.366 126.704 242.57 126.686 242.774 126.65C242.99 126.602 243.176 126.536 243.332 126.452C243.5 126.356 243.632 126.242 243.728 126.11C243.836 125.966 243.89 125.804 243.89 125.624C243.89 125.384 243.812 125.186 243.656 125.03C243.512 124.874 243.332 124.754 243.116 124.67C242.912 124.574 242.69 124.502 242.45 124.454C242.222 124.394 242.018 124.346 241.838 124.31C241.49 124.226 241.16 124.13 240.848 124.022C240.536 123.914 240.26 123.77 240.02 123.59C239.78 123.41 239.588 123.182 239.444 122.906C239.3 122.63 239.228 122.288 239.228 121.88C239.228 121.436 239.318 121.052 239.498 120.728C239.69 120.392 239.936 120.116 240.236 119.9C240.548 119.684 240.896 119.522 241.28 119.414C241.676 119.306 242.072 119.252 242.468 119.252C243.044 119.252 243.596 119.36 244.124 119.576C244.652 119.792 245.072 120.152 245.384 120.656L244.124 121.61ZM257.168 120.872H254.846V124.742C254.846 124.982 254.852 125.222 254.864 125.462C254.876 125.69 254.918 125.9 254.99 126.092C255.074 126.272 255.194 126.422 255.35 126.542C255.518 126.65 255.758 126.704 256.07 126.704C256.262 126.704 256.46 126.686 256.664 126.65C256.868 126.614 257.054 126.548 257.222 126.452V127.928C257.03 128.036 256.778 128.108 256.466 128.144C256.166 128.192 255.932 128.216 255.764 128.216C255.14 128.216 254.654 128.132 254.306 127.964C253.97 127.784 253.718 127.556 253.55 127.28C253.394 127.004 253.298 126.698 253.262 126.362C253.238 126.014 253.226 125.666 253.226 125.318V120.872H251.354V119.468H253.226V117.074H254.846V119.468H257.168V120.872ZM259.258 114.392H260.878V120.782H260.914C261.118 120.326 261.472 119.96 261.976 119.684C262.48 119.396 263.062 119.252 263.722 119.252C264.13 119.252 264.52 119.318 264.892 119.45C265.276 119.57 265.606 119.762 265.882 120.026C266.17 120.29 266.398 120.632 266.566 121.052C266.734 121.46 266.818 121.946 266.818 122.51V128H265.198V122.96C265.198 122.564 265.144 122.228 265.036 121.952C264.928 121.664 264.784 121.436 264.604 121.268C264.424 121.088 264.214 120.962 263.974 120.89C263.746 120.806 263.506 120.764 263.254 120.764C262.918 120.764 262.606 120.818 262.318 120.926C262.03 121.034 261.778 121.208 261.562 121.448C261.346 121.676 261.178 121.97 261.058 122.33C260.938 122.69 260.878 123.116 260.878 123.608V128H259.258V114.392ZM270.484 124.328C270.484 124.7 270.562 125.042 270.718 125.354C270.886 125.654 271.102 125.912 271.366 126.128C271.63 126.344 271.936 126.512 272.284 126.632C272.632 126.752 272.992 126.812 273.364 126.812C273.868 126.812 274.306 126.698 274.678 126.47C275.05 126.23 275.392 125.918 275.704 125.534L276.928 126.47C276.028 127.634 274.768 128.216 273.148 128.216C272.476 128.216 271.864 128.102 271.312 127.874C270.772 127.646 270.31 127.334 269.926 126.938C269.554 126.53 269.266 126.056 269.062 125.516C268.858 124.964 268.756 124.37 268.756 123.734C268.756 123.098 268.864 122.51 269.08 121.97C269.308 121.418 269.614 120.944 269.998 120.548C270.394 120.14 270.862 119.822 271.402 119.594C271.942 119.366 272.53 119.252 273.166 119.252C273.922 119.252 274.558 119.384 275.074 119.648C275.602 119.912 276.034 120.26 276.37 120.692C276.706 121.112 276.946 121.592 277.09 122.132C277.246 122.66 277.324 123.2 277.324 123.752V124.328H270.484ZM275.596 123.032C275.584 122.672 275.524 122.342 275.416 122.042C275.32 121.742 275.17 121.484 274.966 121.268C274.762 121.04 274.504 120.866 274.192 120.746C273.892 120.614 273.538 120.548 273.13 120.548C272.734 120.548 272.368 120.626 272.032 120.782C271.708 120.926 271.432 121.118 271.204 121.358C270.976 121.598 270.796 121.868 270.664 122.168C270.544 122.456 270.484 122.744 270.484 123.032H275.596ZM279.388 119.468H281.008V128H279.388V119.468ZM279.01 116.408C279.01 116.084 279.124 115.808 279.352 115.58C279.592 115.34 279.874 115.22 280.198 115.22C280.522 115.22 280.798 115.34 281.026 115.58C281.266 115.808 281.386 116.084 281.386 116.408C281.386 116.732 281.266 117.014 281.026 117.254C280.798 117.482 280.522 117.596 280.198 117.596C279.874 117.596 279.592 117.482 279.352 117.254C279.124 117.014 279.01 116.732 279.01 116.408ZM283.586 119.468H285.206V120.782H285.242C285.35 120.554 285.494 120.35 285.674 120.17C285.854 119.978 286.052 119.816 286.268 119.684C286.496 119.552 286.742 119.45 287.006 119.378C287.27 119.294 287.534 119.252 287.798 119.252C288.062 119.252 288.302 119.288 288.518 119.36L288.446 121.106C288.314 121.07 288.182 121.04 288.05 121.016C287.918 120.992 287.786 120.98 287.654 120.98C286.862 120.98 286.256 121.202 285.836 121.646C285.416 122.09 285.206 122.78 285.206 123.716V128H283.586V119.468ZM61.5842 146.61C61.3922 146.37 61.1522 146.172 60.8642 146.016C60.5882 145.848 60.2462 145.764 59.8382 145.764C59.4542 145.764 59.1182 145.848 58.8302 146.016C58.5542 146.172 58.4162 146.406 58.4162 146.718C58.4162 146.97 58.4942 147.174 58.6502 147.33C58.8182 147.486 59.0102 147.612 59.2262 147.708C59.4542 147.804 59.6942 147.876 59.9462 147.924C60.1982 147.972 60.4142 148.014 60.5942 148.05C60.9422 148.134 61.2662 148.236 61.5662 148.356C61.8782 148.476 62.1422 148.632 62.3582 148.824C62.5862 149.016 62.7602 149.25 62.8802 149.526C63.0122 149.802 63.0782 150.138 63.0782 150.534C63.0782 151.014 62.9762 151.428 62.7722 151.776C62.5682 152.112 62.3042 152.388 61.9802 152.604C61.6562 152.82 61.2842 152.976 60.8642 153.072C60.4562 153.168 60.0422 153.216 59.6222 153.216C58.9142 153.216 58.2902 153.108 57.7502 152.892C57.2222 152.676 56.7482 152.28 56.3282 151.704L57.5522 150.696C57.8162 150.96 58.1102 151.194 58.4342 151.398C58.7582 151.602 59.1542 151.704 59.6222 151.704C59.8262 151.704 60.0302 151.686 60.2342 151.65C60.4502 151.602 60.6362 151.536 60.7922 151.452C60.9602 151.356 61.0922 151.242 61.1882 151.11C61.2962 150.966 61.3502 150.804 61.3502 150.624C61.3502 150.384 61.2722 150.186 61.1162 150.03C60.9722 149.874 60.7922 149.754 60.5762 149.67C60.3722 149.574 60.1502 149.502 59.9102 149.454C59.6822 149.394 59.4782 149.346 59.2982 149.31C58.9502 149.226 58.6202 149.13 58.3082 149.022C57.9962 148.914 57.7202 148.77 57.4802 148.59C57.2402 148.41 57.0482 148.182 56.9042 147.906C56.7602 147.63 56.6882 147.288 56.6882 146.88C56.6882 146.436 56.7782 146.052 56.9582 145.728C57.1502 145.392 57.3962 145.116 57.6962 144.9C58.0082 144.684 58.3562 144.522 58.7402 144.414C59.1362 144.306 59.5322 144.252 59.9282 144.252C60.5042 144.252 61.0562 144.36 61.5842 144.576C62.1122 144.792 62.5322 145.152 62.8442 145.656L61.5842 146.61ZM69.6183 145.872H67.2963V149.742C67.2963 149.982 67.3023 150.222 67.3143 150.462C67.3263 150.69 67.3683 150.9 67.4403 151.092C67.5243 151.272 67.6443 151.422 67.8003 151.542C67.9683 151.65 68.2083 151.704 68.5203 151.704C68.7123 151.704 68.9103 151.686 69.1143 151.65C69.3183 151.614 69.5043 151.548 69.6723 151.452V152.928C69.4803 153.036 69.2283 153.108 68.9163 153.144C68.6163 153.192 68.3823 153.216 68.2143 153.216C67.5903 153.216 67.1043 153.132 66.7563 152.964C66.4203 152.784 66.1683 152.556 66.0003 152.28C65.8443 152.004 65.7483 151.698 65.7123 151.362C65.6883 151.014 65.6763 150.666 65.6763 150.318V145.872H63.8043V144.468H65.6763V142.074H67.2963V144.468H69.6183V145.872ZM71.7084 144.468H73.3284V145.782H73.3644C73.4724 145.554 73.6164 145.35 73.7964 145.17C73.9764 144.978 74.1744 144.816 74.3904 144.684C74.6184 144.552 74.8644 144.45 75.1284 144.378C75.3924 144.294 75.6564 144.252 75.9204 144.252C76.1844 144.252 76.4244 144.288 76.6404 144.36L76.5684 146.106C76.4364 146.07 76.3044 146.04 76.1724 146.016C76.0404 145.992 75.9084 145.98 75.7764 145.98C74.9844 145.98 74.3784 146.202 73.9584 146.646C73.5384 147.09 73.3284 147.78 73.3284 148.716V153H71.7084V144.468ZM79.2781 149.328C79.2781 149.7 79.3561 150.042 79.5121 150.354C79.6801 150.654 79.8961 150.912 80.1601 151.128C80.4241 151.344 80.7301 151.512 81.0781 151.632C81.4261 151.752 81.7861 151.812 82.1581 151.812C82.6621 151.812 83.1001 151.698 83.4721 151.47C83.8441 151.23 84.1861 150.918 84.4981 150.534L85.7221 151.47C84.8221 152.634 83.5621 153.216 81.9421 153.216C81.2701 153.216 80.6581 153.102 80.1061 152.874C79.5661 152.646 79.1041 152.334 78.7201 151.938C78.3481 151.53 78.0601 151.056 77.8561 150.516C77.6521 149.964 77.5501 149.37 77.5501 148.734C77.5501 148.098 77.6581 147.51 77.8741 146.97C78.1021 146.418 78.4081 145.944 78.7921 145.548C79.1881 145.14 79.6561 144.822 80.1961 144.594C80.7361 144.366 81.3241 144.252 81.9601 144.252C82.7161 144.252 83.3521 144.384 83.8681 144.648C84.3961 144.912 84.8281 145.26 85.1641 145.692C85.5001 146.112 85.7401 146.592 85.8841 147.132C86.0401 147.66 86.1181 148.2 86.1181 148.752V149.328H79.2781ZM84.3901 148.032C84.3781 147.672 84.3181 147.342 84.2101 147.042C84.1141 146.742 83.9641 146.484 83.7601 146.268C83.5561 146.04 83.2981 145.866 82.9861 145.746C82.6861 145.614 82.3321 145.548 81.9241 145.548C81.5281 145.548 81.1621 145.626 80.8261 145.782C80.5021 145.926 80.2261 146.118 79.9981 146.358C79.7701 146.598 79.5901 146.868 79.4581 147.168C79.3381 147.456 79.2781 147.744 79.2781 148.032H84.3901ZM88.056 144.468H89.676V145.782H89.712C89.916 145.326 90.27 144.96 90.774 144.684C91.278 144.396 91.86 144.252 92.52 144.252C92.928 144.252 93.318 144.318 93.69 144.45C94.074 144.57 94.404 144.762 94.68 145.026C94.968 145.29 95.196 145.632 95.364 146.052C95.532 146.46 95.616 146.946 95.616 147.51V153H93.996V147.96C93.996 147.564 93.942 147.228 93.834 146.952C93.726 146.664 93.582 146.436 93.402 146.268C93.222 146.088 93.012 145.962 92.772 145.89C92.544 145.806 92.304 145.764 92.052 145.764C91.716 145.764 91.404 145.818 91.116 145.926C90.828 146.034 90.576 146.208 90.36 146.448C90.144 146.676 89.976 146.97 89.856 147.33C89.736 147.69 89.676 148.116 89.676 148.608V153H88.056V144.468ZM106.608 152.928C106.608 153.576 106.494 154.164 106.266 154.692C106.05 155.232 105.738 155.694 105.33 156.078C104.922 156.474 104.43 156.78 103.854 156.996C103.278 157.212 102.642 157.32 101.946 157.32C101.13 157.32 100.38 157.206 99.696 156.978C99.024 156.75 98.382 156.354 97.77 155.79L98.868 154.422C99.288 154.878 99.744 155.22 100.236 155.448C100.728 155.688 101.286 155.808 101.91 155.808C102.51 155.808 103.008 155.718 103.404 155.538C103.8 155.37 104.112 155.148 104.34 154.872C104.58 154.596 104.748 154.278 104.844 153.918C104.94 153.57 104.988 153.216 104.988 152.856V151.596H104.934C104.622 152.112 104.196 152.496 103.656 152.748C103.128 152.988 102.57 153.108 101.982 153.108C101.358 153.108 100.776 153 100.236 152.784C99.708 152.556 99.252 152.25 98.868 151.866C98.484 151.47 98.184 151.008 97.968 150.48C97.752 149.94 97.644 149.358 97.644 148.734C97.644 148.11 97.746 147.528 97.95 146.988C98.154 146.436 98.442 145.956 98.814 145.548C99.198 145.14 99.654 144.822 100.182 144.594C100.722 144.366 101.322 144.252 101.982 144.252C102.558 144.252 103.116 144.378 103.656 144.63C104.208 144.882 104.64 145.236 104.952 145.692H104.988V144.468H106.608V152.928ZM102.18 145.764C101.748 145.764 101.358 145.842 101.01 145.998C100.662 146.142 100.368 146.346 100.128 146.61C99.888 146.862 99.702 147.174 99.57 147.546C99.438 147.906 99.372 148.302 99.372 148.734C99.372 149.598 99.624 150.294 100.128 150.822C100.632 151.338 101.316 151.596 102.18 151.596C103.044 151.596 103.728 151.338 104.232 150.822C104.736 150.294 104.988 149.598 104.988 148.734C104.988 148.302 104.922 147.906 104.79 147.546C104.658 147.174 104.472 146.862 104.232 146.61C103.992 146.346 103.698 146.142 103.35 145.998C103.002 145.842 102.612 145.764 102.18 145.764ZM113.634 145.872H111.312V149.742C111.312 149.982 111.318 150.222 111.33 150.462C111.342 150.69 111.384 150.9 111.456 151.092C111.54 151.272 111.66 151.422 111.816 151.542C111.984 151.65 112.224 151.704 112.536 151.704C112.728 151.704 112.926 151.686 113.13 151.65C113.334 151.614 113.52 151.548 113.688 151.452V152.928C113.496 153.036 113.244 153.108 112.932 153.144C112.632 153.192 112.398 153.216 112.23 153.216C111.606 153.216 111.12 153.132 110.772 152.964C110.436 152.784 110.184 152.556 110.016 152.28C109.86 152.004 109.764 151.698 109.728 151.362C109.704 151.014 109.692 150.666 109.692 150.318V145.872H107.82V144.468H109.692V142.074H111.312V144.468H113.634V145.872ZM115.724 139.392H117.344V145.782H117.38C117.584 145.326 117.938 144.96 118.442 144.684C118.946 144.396 119.528 144.252 120.188 144.252C120.596 144.252 120.986 144.318 121.358 144.45C121.742 144.57 122.072 144.762 122.348 145.026C122.636 145.29 122.864 145.632 123.032 146.052C123.2 146.46 123.284 146.946 123.284 147.51V153H121.664V147.96C121.664 147.564 121.61 147.228 121.502 146.952C121.394 146.664 121.25 146.436 121.07 146.268C120.89 146.088 120.68 145.962 120.44 145.89C120.212 145.806 119.972 145.764 119.72 145.764C119.384 145.764 119.072 145.818 118.784 145.926C118.496 146.034 118.244 146.208 118.028 146.448C117.812 146.676 117.644 146.97 117.524 147.33C117.404 147.69 117.344 148.116 117.344 148.608V153H115.724V139.392ZM130.862 144.468H132.482V153H130.862V144.468ZM130.484 141.408C130.484 141.084 130.598 140.808 130.826 140.58C131.066 140.34 131.348 140.22 131.672 140.22C131.996 140.22 132.272 140.34 132.5 140.58C132.74 140.808 132.86 141.084 132.86 141.408C132.86 141.732 132.74 142.014 132.5 142.254C132.272 142.482 131.996 142.596 131.672 142.596C131.348 142.596 131.066 142.482 130.826 142.254C130.598 142.014 130.484 141.732 130.484 141.408ZM135.06 144.468H136.68V145.782H136.716C136.92 145.326 137.274 144.96 137.778 144.684C138.282 144.396 138.864 144.252 139.524 144.252C139.932 144.252 140.322 144.318 140.694 144.45C141.078 144.57 141.408 144.762 141.684 145.026C141.972 145.29 142.2 145.632 142.368 146.052C142.536 146.46 142.62 146.946 142.62 147.51V153H141V147.96C141 147.564 140.946 147.228 140.838 146.952C140.73 146.664 140.586 146.436 140.406 146.268C140.226 146.088 140.016 145.962 139.776 145.89C139.548 145.806 139.308 145.764 139.056 145.764C138.72 145.764 138.408 145.818 138.12 145.926C137.832 146.034 137.58 146.208 137.364 146.448C137.148 146.676 136.98 146.97 136.86 147.33C136.74 147.69 136.68 148.116 136.68 148.608V153H135.06V144.468ZM150.072 139.392H151.692V145.782H151.728C151.932 145.326 152.286 144.96 152.79 144.684C153.294 144.396 153.876 144.252 154.536 144.252C154.944 144.252 155.334 144.318 155.706 144.45C156.09 144.57 156.42 144.762 156.696 145.026C156.984 145.29 157.212 145.632 157.38 146.052C157.548 146.46 157.632 146.946 157.632 147.51V153H156.012V147.96C156.012 147.564 155.958 147.228 155.85 146.952C155.742 146.664 155.598 146.436 155.418 146.268C155.238 146.088 155.028 145.962 154.788 145.89C154.56 145.806 154.32 145.764 154.068 145.764C153.732 145.764 153.42 145.818 153.132 145.926C152.844 146.034 152.592 146.208 152.376 146.448C152.16 146.676 151.992 146.97 151.872 147.33C151.752 147.69 151.692 148.116 151.692 148.608V153H150.072V139.392ZM160.11 145.512C160.566 145.092 161.094 144.78 161.694 144.576C162.294 144.36 162.894 144.252 163.494 144.252C164.118 144.252 164.652 144.33 165.096 144.486C165.552 144.642 165.924 144.852 166.212 145.116C166.5 145.38 166.71 145.686 166.842 146.034C166.986 146.37 167.058 146.724 167.058 147.096V151.452C167.058 151.752 167.064 152.028 167.076 152.28C167.088 152.532 167.106 152.772 167.13 153H165.69C165.654 152.568 165.636 152.136 165.636 151.704H165.6C165.24 152.256 164.814 152.646 164.322 152.874C163.83 153.102 163.26 153.216 162.612 153.216C162.216 153.216 161.838 153.162 161.478 153.054C161.118 152.946 160.8 152.784 160.524 152.568C160.26 152.352 160.05 152.088 159.894 151.776C159.738 151.452 159.66 151.08 159.66 150.66C159.66 150.108 159.78 149.646 160.02 149.274C160.272 148.902 160.608 148.602 161.028 148.374C161.46 148.134 161.958 147.966 162.522 147.87C163.098 147.762 163.71 147.708 164.358 147.708H165.546V147.348C165.546 147.132 165.504 146.916 165.42 146.7C165.336 146.484 165.21 146.292 165.042 146.124C164.874 145.944 164.664 145.806 164.412 145.71C164.16 145.602 163.86 145.548 163.512 145.548C163.2 145.548 162.924 145.578 162.684 145.638C162.456 145.698 162.246 145.776 162.054 145.872C161.862 145.956 161.688 146.058 161.532 146.178C161.376 146.298 161.226 146.412 161.082 146.52L160.11 145.512ZM164.682 148.896C164.298 148.896 163.902 148.92 163.494 148.968C163.098 149.004 162.732 149.082 162.396 149.202C162.072 149.322 161.802 149.49 161.586 149.706C161.382 149.922 161.28 150.198 161.28 150.534C161.28 151.026 161.442 151.38 161.766 151.596C162.102 151.812 162.552 151.92 163.116 151.92C163.56 151.92 163.938 151.848 164.25 151.704C164.562 151.548 164.814 151.35 165.006 151.11C165.198 150.87 165.336 150.606 165.42 150.318C165.504 150.018 165.546 149.724 165.546 149.436V148.896H164.682ZM169.408 144.468H171.028V145.782H171.064C171.268 145.326 171.622 144.96 172.126 144.684C172.63 144.396 173.212 144.252 173.872 144.252C174.28 144.252 174.67 144.318 175.042 144.45C175.426 144.57 175.756 144.762 176.032 145.026C176.32 145.29 176.548 145.632 176.716 146.052C176.884 146.46 176.968 146.946 176.968 147.51V153H175.348V147.96C175.348 147.564 175.294 147.228 175.186 146.952C175.078 146.664 174.934 146.436 174.754 146.268C174.574 146.088 174.364 145.962 174.124 145.89C173.896 145.806 173.656 145.764 173.404 145.764C173.068 145.764 172.756 145.818 172.468 145.926C172.18 146.034 171.928 146.208 171.712 146.448C171.496 146.676 171.328 146.97 171.208 147.33C171.088 147.69 171.028 148.116 171.028 148.608V153H169.408V144.468ZM187.96 153H186.34V151.776H186.304C185.992 152.232 185.56 152.586 185.008 152.838C184.468 153.09 183.91 153.216 183.334 153.216C182.674 153.216 182.074 153.102 181.534 152.874C181.006 152.646 180.55 152.328 180.166 151.92C179.794 151.512 179.506 151.038 179.302 150.498C179.098 149.958 178.996 149.37 178.996 148.734C178.996 148.098 179.098 147.51 179.302 146.97C179.506 146.418 179.794 145.944 180.166 145.548C180.55 145.14 181.006 144.822 181.534 144.594C182.074 144.366 182.674 144.252 183.334 144.252C183.946 144.252 184.522 144.384 185.062 144.648C185.602 144.9 186.016 145.248 186.304 145.692H186.34V139.392H187.96V153ZM183.532 151.704C183.964 151.704 184.354 151.632 184.702 151.488C185.05 151.332 185.344 151.128 185.584 150.876C185.824 150.612 186.01 150.3 186.142 149.94C186.274 149.568 186.34 149.166 186.34 148.734C186.34 148.302 186.274 147.906 186.142 147.546C186.01 147.174 185.824 146.862 185.584 146.61C185.344 146.346 185.05 146.142 184.702 145.998C184.354 145.842 183.964 145.764 183.532 145.764C183.1 145.764 182.71 145.842 182.362 145.998C182.014 146.142 181.72 146.346 181.48 146.61C181.24 146.862 181.054 147.174 180.922 147.546C180.79 147.906 180.724 148.302 180.724 148.734C180.724 149.166 180.79 149.568 180.922 149.94C181.054 150.3 181.24 150.612 181.48 150.876C181.72 151.128 182.014 151.332 182.362 151.488C182.71 151.632 183.1 151.704 183.532 151.704ZM190.539 139.392H192.159V153H190.539V139.392ZM194.864 144.468H196.484V153H194.864V144.468ZM194.486 141.408C194.486 141.084 194.6 140.808 194.828 140.58C195.068 140.34 195.35 140.22 195.674 140.22C195.998 140.22 196.274 140.34 196.502 140.58C196.742 140.808 196.862 141.084 196.862 141.408C196.862 141.732 196.742 142.014 196.502 142.254C196.274 142.482 195.998 142.596 195.674 142.596C195.35 142.596 195.068 142.482 194.828 142.254C194.6 142.014 194.486 141.732 194.486 141.408ZM199.062 144.468H200.682V145.782H200.718C200.922 145.326 201.276 144.96 201.78 144.684C202.284 144.396 202.866 144.252 203.526 144.252C203.934 144.252 204.324 144.318 204.696 144.45C205.08 144.57 205.41 144.762 205.686 145.026C205.974 145.29 206.202 145.632 206.37 146.052C206.538 146.46 206.622 146.946 206.622 147.51V153H205.002V147.96C205.002 147.564 204.948 147.228 204.84 146.952C204.732 146.664 204.588 146.436 204.408 146.268C204.228 146.088 204.018 145.962 203.778 145.89C203.55 145.806 203.31 145.764 203.058 145.764C202.722 145.764 202.41 145.818 202.122 145.926C201.834 146.034 201.582 146.208 201.366 146.448C201.15 146.676 200.982 146.97 200.862 147.33C200.742 147.69 200.682 148.116 200.682 148.608V153H199.062V144.468ZM217.614 152.928C217.614 153.576 217.5 154.164 217.272 154.692C217.056 155.232 216.744 155.694 216.336 156.078C215.928 156.474 215.436 156.78 214.86 156.996C214.284 157.212 213.648 157.32 212.952 157.32C212.136 157.32 211.386 157.206 210.702 156.978C210.03 156.75 209.388 156.354 208.776 155.79L209.874 154.422C210.294 154.878 210.75 155.22 211.242 155.448C211.734 155.688 212.292 155.808 212.916 155.808C213.516 155.808 214.014 155.718 214.41 155.538C214.806 155.37 215.118 155.148 215.346 154.872C215.586 154.596 215.754 154.278 215.85 153.918C215.946 153.57 215.994 153.216 215.994 152.856V151.596H215.94C215.628 152.112 215.202 152.496 214.662 152.748C214.134 152.988 213.576 153.108 212.988 153.108C212.364 153.108 211.782 153 211.242 152.784C210.714 152.556 210.258 152.25 209.874 151.866C209.49 151.47 209.19 151.008 208.974 150.48C208.758 149.94 208.65 149.358 208.65 148.734C208.65 148.11 208.752 147.528 208.956 146.988C209.16 146.436 209.448 145.956 209.82 145.548C210.204 145.14 210.66 144.822 211.188 144.594C211.728 144.366 212.328 144.252 212.988 144.252C213.564 144.252 214.122 144.378 214.662 144.63C215.214 144.882 215.646 145.236 215.958 145.692H215.994V144.468H217.614V152.928ZM213.186 145.764C212.754 145.764 212.364 145.842 212.016 145.998C211.668 146.142 211.374 146.346 211.134 146.61C210.894 146.862 210.708 147.174 210.576 147.546C210.444 147.906 210.378 148.302 210.378 148.734C210.378 149.598 210.63 150.294 211.134 150.822C211.638 151.338 212.322 151.596 213.186 151.596C214.05 151.596 214.734 151.338 215.238 150.822C215.742 150.294 215.994 149.598 215.994 148.734C215.994 148.302 215.928 147.906 215.796 147.546C215.664 147.174 215.478 146.862 215.238 146.61C214.998 146.346 214.704 146.142 214.356 145.998C214.008 145.842 213.618 145.764 213.186 145.764ZM224.052 144.468H225.87L227.796 150.84H227.832L229.866 144.468H231.576L233.736 150.84H233.772L235.608 144.468H237.318L234.564 153H232.926L230.676 146.628H230.64L228.606 153H226.86L224.052 144.468ZM238.736 139.392H240.356V145.782H240.392C240.596 145.326 240.95 144.96 241.454 144.684C241.958 144.396 242.54 144.252 243.2 144.252C243.608 144.252 243.998 144.318 244.37 144.45C244.754 144.57 245.084 144.762 245.36 145.026C245.648 145.29 245.876 145.632 246.044 146.052C246.212 146.46 246.296 146.946 246.296 147.51V153H244.676V147.96C244.676 147.564 244.622 147.228 244.514 146.952C244.406 146.664 244.262 146.436 244.082 146.268C243.902 146.088 243.692 145.962 243.452 145.89C243.224 145.806 242.984 145.764 242.732 145.764C242.396 145.764 242.084 145.818 241.796 145.926C241.508 146.034 241.256 146.208 241.04 146.448C240.824 146.676 240.656 146.97 240.536 147.33C240.416 147.69 240.356 148.116 240.356 148.608V153H238.736V139.392ZM248.774 145.512C249.23 145.092 249.758 144.78 250.358 144.576C250.958 144.36 251.558 144.252 252.158 144.252C252.782 144.252 253.316 144.33 253.76 144.486C254.216 144.642 254.588 144.852 254.876 145.116C255.164 145.38 255.374 145.686 255.506 146.034C255.65 146.37 255.722 146.724 255.722 147.096V151.452C255.722 151.752 255.728 152.028 255.74 152.28C255.752 152.532 255.77 152.772 255.794 153H254.354C254.318 152.568 254.3 152.136 254.3 151.704H254.264C253.904 152.256 253.478 152.646 252.986 152.874C252.494 153.102 251.924 153.216 251.276 153.216C250.88 153.216 250.502 153.162 250.142 153.054C249.782 152.946 249.464 152.784 249.188 152.568C248.924 152.352 248.714 152.088 248.558 151.776C248.402 151.452 248.324 151.08 248.324 150.66C248.324 150.108 248.444 149.646 248.684 149.274C248.936 148.902 249.272 148.602 249.692 148.374C250.124 148.134 250.622 147.966 251.186 147.87C251.762 147.762 252.374 147.708 253.022 147.708H254.21V147.348C254.21 147.132 254.168 146.916 254.084 146.7C254 146.484 253.874 146.292 253.706 146.124C253.538 145.944 253.328 145.806 253.076 145.71C252.824 145.602 252.524 145.548 252.176 145.548C251.864 145.548 251.588 145.578 251.348 145.638C251.12 145.698 250.91 145.776 250.718 145.872C250.526 145.956 250.352 146.058 250.196 146.178C250.04 146.298 249.89 146.412 249.746 146.52L248.774 145.512ZM253.346 148.896C252.962 148.896 252.566 148.92 252.158 148.968C251.762 149.004 251.396 149.082 251.06 149.202C250.736 149.322 250.466 149.49 250.25 149.706C250.046 149.922 249.944 150.198 249.944 150.534C249.944 151.026 250.106 151.38 250.43 151.596C250.766 151.812 251.216 151.92 251.78 151.92C252.224 151.92 252.602 151.848 252.914 151.704C253.226 151.548 253.478 151.35 253.67 151.11C253.862 150.87 254 150.606 254.084 150.318C254.168 150.018 254.21 149.724 254.21 149.436V148.896H253.346ZM262.644 145.872H260.322V149.742C260.322 149.982 260.328 150.222 260.34 150.462C260.352 150.69 260.394 150.9 260.466 151.092C260.55 151.272 260.67 151.422 260.826 151.542C260.994 151.65 261.234 151.704 261.546 151.704C261.738 151.704 261.936 151.686 262.14 151.65C262.344 151.614 262.53 151.548 262.698 151.452V152.928C262.506 153.036 262.254 153.108 261.942 153.144C261.642 153.192 261.408 153.216 261.24 153.216C260.616 153.216 260.13 153.132 259.782 152.964C259.446 152.784 259.194 152.556 259.026 152.28C258.87 152.004 258.774 151.698 258.738 151.362C258.714 151.014 258.702 150.666 258.702 150.318V145.872H256.83V144.468H258.702V142.074H260.322V144.468H262.644V145.872ZM265.958 149.328C265.958 149.7 266.036 150.042 266.192 150.354C266.36 150.654 266.576 150.912 266.84 151.128C267.104 151.344 267.41 151.512 267.758 151.632C268.106 151.752 268.466 151.812 268.838 151.812C269.342 151.812 269.78 151.698 270.152 151.47C270.524 151.23 270.866 150.918 271.178 150.534L272.402 151.47C271.502 152.634 270.242 153.216 268.622 153.216C267.95 153.216 267.338 153.102 266.786 152.874C266.246 152.646 265.784 152.334 265.4 151.938C265.028 151.53 264.74 151.056 264.536 150.516C264.332 149.964 264.23 149.37 264.23 148.734C264.23 148.098 264.338 147.51 264.554 146.97C264.782 146.418 265.088 145.944 265.472 145.548C265.868 145.14 266.336 144.822 266.876 144.594C267.416 144.366 268.004 144.252 268.64 144.252C269.396 144.252 270.032 144.384 270.548 144.648C271.076 144.912 271.508 145.26 271.844 145.692C272.18 146.112 272.42 146.592 272.564 147.132C272.72 147.66 272.798 148.2 272.798 148.752V149.328H265.958ZM271.07 148.032C271.058 147.672 270.998 147.342 270.89 147.042C270.794 146.742 270.644 146.484 270.44 146.268C270.236 146.04 269.978 145.866 269.666 145.746C269.366 145.614 269.012 145.548 268.604 145.548C268.208 145.548 267.842 145.626 267.506 145.782C267.182 145.926 266.906 146.118 266.678 146.358C266.45 146.598 266.27 146.868 266.138 147.168C266.018 147.456 265.958 147.744 265.958 148.032H271.07ZM273.71 144.468H275.582L278.138 151.002L280.586 144.468H282.314L278.966 153H277.184L273.71 144.468ZM284.96 149.328C284.96 149.7 285.038 150.042 285.194 150.354C285.362 150.654 285.578 150.912 285.842 151.128C286.106 151.344 286.412 151.512 286.76 151.632C287.108 151.752 287.468 151.812 287.84 151.812C288.344 151.812 288.782 151.698 289.154 151.47C289.526 151.23 289.868 150.918 290.18 150.534L291.404 151.47C290.504 152.634 289.244 153.216 287.624 153.216C286.952 153.216 286.34 153.102 285.788 152.874C285.248 152.646 284.786 152.334 284.402 151.938C284.03 151.53 283.742 151.056 283.538 150.516C283.334 149.964 283.232 149.37 283.232 148.734C283.232 148.098 283.34 147.51 283.556 146.97C283.784 146.418 284.09 145.944 284.474 145.548C284.87 145.14 285.338 144.822 285.878 144.594C286.418 144.366 287.006 144.252 287.642 144.252C288.398 144.252 289.034 144.384 289.55 144.648C290.078 144.912 290.51 145.26 290.846 145.692C291.182 146.112 291.422 146.592 291.566 147.132C291.722 147.66 291.8 148.2 291.8 148.752V149.328H284.96ZM290.072 148.032C290.06 147.672 290 147.342 289.892 147.042C289.796 146.742 289.646 146.484 289.442 146.268C289.238 146.04 288.98 145.866 288.668 145.746C288.368 145.614 288.014 145.548 287.606 145.548C287.21 145.548 286.844 145.626 286.508 145.782C286.184 145.926 285.908 146.118 285.68 146.358C285.452 146.598 285.272 146.868 285.14 147.168C285.02 147.456 284.96 147.744 284.96 148.032H290.072ZM293.738 144.468H295.358V145.782H295.394C295.502 145.554 295.646 145.35 295.826 145.17C296.006 144.978 296.204 144.816 296.42 144.684C296.648 144.552 296.894 144.45 297.158 144.378C297.422 144.294 297.686 144.252 297.95 144.252C298.214 144.252 298.454 144.288 298.67 144.36L298.598 146.106C298.466 146.07 298.334 146.04 298.202 146.016C298.07 145.992 297.938 145.98 297.806 145.98C297.014 145.98 296.408 146.202 295.988 146.646C295.568 147.09 295.358 147.78 295.358 148.716V153H293.738V144.468ZM116.807 171.736C116.507 171.424 116.189 171.19 115.853 171.034C115.529 170.866 115.139 170.782 114.683 170.782C114.239 170.782 113.849 170.866 113.513 171.034C113.189 171.19 112.913 171.412 112.685 171.7C112.469 171.976 112.301 172.3 112.181 172.672C112.073 173.032 112.019 173.41 112.019 173.806C112.019 174.202 112.085 174.58 112.217 174.94C112.349 175.288 112.535 175.594 112.775 175.858C113.015 176.122 113.303 176.332 113.639 176.488C113.975 176.632 114.353 176.704 114.773 176.704C115.229 176.704 115.619 176.626 115.943 176.47C116.267 176.302 116.567 176.062 116.843 175.75L117.995 176.902C117.575 177.37 117.083 177.706 116.519 177.91C115.967 178.114 115.379 178.216 114.755 178.216C114.095 178.216 113.489 178.108 112.937 177.892C112.397 177.676 111.929 177.376 111.533 176.992C111.137 176.596 110.831 176.128 110.615 175.588C110.399 175.036 110.291 174.43 110.291 173.77C110.291 173.11 110.399 172.504 110.615 171.952C110.831 171.4 111.131 170.926 111.515 170.53C111.911 170.134 112.379 169.828 112.919 169.612C113.471 169.384 114.083 169.27 114.755 169.27C115.379 169.27 115.973 169.384 116.537 169.612C117.113 169.828 117.611 170.164 118.031 170.62L116.807 171.736ZM120.703 173.734C120.703 174.166 120.769 174.568 120.901 174.94C121.033 175.3 121.219 175.612 121.459 175.876C121.699 176.128 121.993 176.332 122.341 176.488C122.689 176.632 123.079 176.704 123.511 176.704C123.943 176.704 124.333 176.632 124.681 176.488C125.029 176.332 125.323 176.128 125.563 175.876C125.803 175.612 125.989 175.3 126.121 174.94C126.253 174.568 126.319 174.166 126.319 173.734C126.319 173.302 126.253 172.906 126.121 172.546C125.989 172.174 125.803 171.862 125.563 171.61C125.323 171.346 125.029 171.142 124.681 170.998C124.333 170.842 123.943 170.764 123.511 170.764C123.079 170.764 122.689 170.842 122.341 170.998C121.993 171.142 121.699 171.346 121.459 171.61C121.219 171.862 121.033 172.174 120.901 172.546C120.769 172.906 120.703 173.302 120.703 173.734ZM118.975 173.734C118.975 173.11 119.089 172.528 119.317 171.988C119.557 171.448 119.881 170.974 120.289 170.566C120.697 170.158 121.177 169.84 121.729 169.612C122.281 169.372 122.875 169.252 123.511 169.252C124.147 169.252 124.741 169.372 125.293 169.612C125.845 169.84 126.325 170.158 126.733 170.566C127.141 170.974 127.459 171.448 127.687 171.988C127.927 172.528 128.047 173.11 128.047 173.734C128.047 174.358 127.927 174.946 127.687 175.498C127.459 176.038 127.141 176.512 126.733 176.92C126.325 177.316 125.845 177.634 125.293 177.874C124.741 178.102 124.147 178.216 123.511 178.216C122.875 178.216 122.281 178.102 121.729 177.874C121.177 177.634 120.697 177.316 120.289 176.92C119.881 176.512 119.557 176.038 119.317 175.498C119.089 174.946 118.975 174.358 118.975 173.734ZM130.077 169.468H131.589V170.8H131.625C131.661 170.68 131.751 170.53 131.895 170.35C132.051 170.17 132.243 170.002 132.471 169.846C132.711 169.678 132.987 169.54 133.299 169.432C133.623 169.312 133.977 169.252 134.361 169.252C134.997 169.252 135.531 169.384 135.963 169.648C136.395 169.912 136.749 170.308 137.025 170.836C137.301 170.308 137.691 169.912 138.195 169.648C138.699 169.384 139.209 169.252 139.725 169.252C140.385 169.252 140.925 169.36 141.345 169.576C141.765 169.792 142.095 170.08 142.335 170.44C142.575 170.788 142.737 171.19 142.821 171.646C142.917 172.09 142.965 172.552 142.965 173.032V178H141.345V173.248C141.345 172.924 141.321 172.612 141.273 172.312C141.237 172.012 141.153 171.748 141.021 171.52C140.889 171.292 140.703 171.112 140.463 170.98C140.223 170.836 139.905 170.764 139.509 170.764C138.729 170.764 138.171 171.004 137.835 171.484C137.499 171.964 137.331 172.582 137.331 173.338V178H135.711V173.536C135.711 173.128 135.687 172.756 135.639 172.42C135.603 172.084 135.519 171.796 135.387 171.556C135.267 171.304 135.087 171.112 134.847 170.98C134.619 170.836 134.307 170.764 133.911 170.764C133.623 170.764 133.341 170.824 133.065 170.944C132.801 171.052 132.567 171.22 132.363 171.448C132.159 171.676 131.997 171.97 131.877 172.33C131.757 172.678 131.697 173.092 131.697 173.572V178H130.077V169.468ZM146.629 174.328C146.629 174.7 146.707 175.042 146.863 175.354C147.031 175.654 147.247 175.912 147.511 176.128C147.775 176.344 148.081 176.512 148.429 176.632C148.777 176.752 149.137 176.812 149.509 176.812C150.013 176.812 150.451 176.698 150.823 176.47C151.195 176.23 151.537 175.918 151.849 175.534L153.073 176.47C152.173 177.634 150.913 178.216 149.293 178.216C148.621 178.216 148.009 178.102 147.457 177.874C146.917 177.646 146.455 177.334 146.071 176.938C145.699 176.53 145.411 176.056 145.207 175.516C145.003 174.964 144.901 174.37 144.901 173.734C144.901 173.098 145.009 172.51 145.225 171.97C145.453 171.418 145.759 170.944 146.143 170.548C146.539 170.14 147.007 169.822 147.547 169.594C148.087 169.366 148.675 169.252 149.311 169.252C150.067 169.252 150.703 169.384 151.219 169.648C151.747 169.912 152.179 170.26 152.515 170.692C152.851 171.112 153.091 171.592 153.235 172.132C153.391 172.66 153.469 173.2 153.469 173.752V174.328H146.629ZM151.741 173.032C151.729 172.672 151.669 172.342 151.561 172.042C151.465 171.742 151.315 171.484 151.111 171.268C150.907 171.04 150.649 170.866 150.337 170.746C150.037 170.614 149.683 170.548 149.275 170.548C148.879 170.548 148.513 170.626 148.177 170.782C147.853 170.926 147.577 171.118 147.349 171.358C147.121 171.598 146.941 171.868 146.809 172.168C146.689 172.456 146.629 172.744 146.629 173.032H151.741ZM159.943 171.61C159.751 171.37 159.511 171.172 159.223 171.016C158.947 170.848 158.605 170.764 158.197 170.764C157.813 170.764 157.477 170.848 157.189 171.016C156.913 171.172 156.775 171.406 156.775 171.718C156.775 171.97 156.853 172.174 157.009 172.33C157.177 172.486 157.369 172.612 157.585 172.708C157.813 172.804 158.053 172.876 158.305 172.924C158.557 172.972 158.773 173.014 158.953 173.05C159.301 173.134 159.625 173.236 159.925 173.356C160.237 173.476 160.501 173.632 160.717 173.824C160.945 174.016 161.119 174.25 161.239 174.526C161.371 174.802 161.437 175.138 161.437 175.534C161.437 176.014 161.335 176.428 161.131 176.776C160.927 177.112 160.663 177.388 160.339 177.604C160.015 177.82 159.643 177.976 159.223 178.072C158.815 178.168 158.401 178.216 157.981 178.216C157.273 178.216 156.649 178.108 156.109 177.892C155.581 177.676 155.107 177.28 154.687 176.704L155.911 175.696C156.175 175.96 156.469 176.194 156.793 176.398C157.117 176.602 157.513 176.704 157.981 176.704C158.185 176.704 158.389 176.686 158.593 176.65C158.809 176.602 158.995 176.536 159.151 176.452C159.319 176.356 159.451 176.242 159.547 176.11C159.655 175.966 159.709 175.804 159.709 175.624C159.709 175.384 159.631 175.186 159.475 175.03C159.331 174.874 159.151 174.754 158.935 174.67C158.731 174.574 158.509 174.502 158.269 174.454C158.041 174.394 157.837 174.346 157.657 174.31C157.309 174.226 156.979 174.13 156.667 174.022C156.355 173.914 156.079 173.77 155.839 173.59C155.599 173.41 155.407 173.182 155.263 172.906C155.119 172.63 155.047 172.288 155.047 171.88C155.047 171.436 155.137 171.052 155.317 170.728C155.509 170.392 155.755 170.116 156.055 169.9C156.367 169.684 156.715 169.522 157.099 169.414C157.495 169.306 157.891 169.252 158.287 169.252C158.863 169.252 159.415 169.36 159.943 169.576C160.471 169.792 160.891 170.152 161.203 170.656L159.943 171.61ZM172.986 170.872H170.664V174.742C170.664 174.982 170.67 175.222 170.682 175.462C170.694 175.69 170.736 175.9 170.808 176.092C170.892 176.272 171.012 176.422 171.168 176.542C171.336 176.65 171.576 176.704 171.888 176.704C172.08 176.704 172.278 176.686 172.482 176.65C172.686 176.614 172.872 176.548 173.04 176.452V177.928C172.848 178.036 172.596 178.108 172.284 178.144C171.984 178.192 171.75 178.216 171.582 178.216C170.958 178.216 170.472 178.132 170.124 177.964C169.788 177.784 169.536 177.556 169.368 177.28C169.212 177.004 169.116 176.698 169.08 176.362C169.056 176.014 169.044 175.666 169.044 175.318V170.872H167.172V169.468H169.044V167.074H170.664V169.468H172.986V170.872ZM175.077 164.392H176.697V170.782H176.733C176.937 170.326 177.291 169.96 177.795 169.684C178.299 169.396 178.881 169.252 179.541 169.252C179.949 169.252 180.339 169.318 180.711 169.45C181.095 169.57 181.425 169.762 181.701 170.026C181.989 170.29 182.217 170.632 182.385 171.052C182.553 171.46 182.637 171.946 182.637 172.51V178H181.017V172.96C181.017 172.564 180.963 172.228 180.855 171.952C180.747 171.664 180.603 171.436 180.423 171.268C180.243 171.088 180.033 170.962 179.793 170.89C179.565 170.806 179.325 170.764 179.073 170.764C178.737 170.764 178.425 170.818 178.137 170.926C177.849 171.034 177.597 171.208 177.381 171.448C177.165 171.676 176.997 171.97 176.877 172.33C176.757 172.69 176.697 173.116 176.697 173.608V178H175.077V164.392ZM186.302 174.328C186.302 174.7 186.38 175.042 186.536 175.354C186.704 175.654 186.92 175.912 187.184 176.128C187.448 176.344 187.754 176.512 188.102 176.632C188.45 176.752 188.81 176.812 189.182 176.812C189.686 176.812 190.124 176.698 190.496 176.47C190.868 176.23 191.21 175.918 191.522 175.534L192.746 176.47C191.846 177.634 190.586 178.216 188.966 178.216C188.294 178.216 187.682 178.102 187.13 177.874C186.59 177.646 186.128 177.334 185.744 176.938C185.372 176.53 185.084 176.056 184.88 175.516C184.676 174.964 184.574 174.37 184.574 173.734C184.574 173.098 184.682 172.51 184.898 171.97C185.126 171.418 185.432 170.944 185.816 170.548C186.212 170.14 186.68 169.822 187.22 169.594C187.76 169.366 188.348 169.252 188.984 169.252C189.74 169.252 190.376 169.384 190.892 169.648C191.42 169.912 191.852 170.26 192.188 170.692C192.524 171.112 192.764 171.592 192.908 172.132C193.064 172.66 193.142 173.2 193.142 173.752V174.328H186.302ZM191.414 173.032C191.402 172.672 191.342 172.342 191.234 172.042C191.138 171.742 190.988 171.484 190.784 171.268C190.58 171.04 190.322 170.866 190.01 170.746C189.71 170.614 189.356 170.548 188.948 170.548C188.552 170.548 188.186 170.626 187.85 170.782C187.526 170.926 187.25 171.118 187.022 171.358C186.794 171.598 186.614 171.868 186.482 172.168C186.362 172.456 186.302 172.744 186.302 173.032H191.414ZM195.206 169.468H196.826V178H195.206V169.468ZM194.828 166.408C194.828 166.084 194.942 165.808 195.17 165.58C195.41 165.34 195.692 165.22 196.016 165.22C196.34 165.22 196.616 165.34 196.844 165.58C197.084 165.808 197.204 166.084 197.204 166.408C197.204 166.732 197.084 167.014 196.844 167.254C196.616 167.482 196.34 167.596 196.016 167.596C195.692 167.596 195.41 167.482 195.17 167.254C194.942 167.014 194.828 166.732 194.828 166.408ZM199.405 169.468H201.025V170.782H201.061C201.169 170.554 201.313 170.35 201.493 170.17C201.673 169.978 201.871 169.816 202.087 169.684C202.315 169.552 202.561 169.45 202.825 169.378C203.089 169.294 203.353 169.252 203.617 169.252C203.881 169.252 204.121 169.288 204.337 169.36L204.265 171.106C204.133 171.07 204.001 171.04 203.869 171.016C203.737 170.992 203.605 170.98 203.473 170.98C202.681 170.98 202.075 171.202 201.655 171.646C201.235 172.09 201.025 172.78 201.025 173.716V178H199.405V169.468ZM210.051 169.468H211.869L213.795 175.84H213.831L215.865 169.468H217.575L219.735 175.84H219.771L221.607 169.468H223.317L220.563 178H218.925L216.675 171.628H216.639L214.605 178H212.859L210.051 169.468ZM224.771 170.512C225.227 170.092 225.755 169.78 226.355 169.576C226.955 169.36 227.555 169.252 228.155 169.252C228.779 169.252 229.313 169.33 229.757 169.486C230.213 169.642 230.585 169.852 230.873 170.116C231.161 170.38 231.371 170.686 231.503 171.034C231.647 171.37 231.719 171.724 231.719 172.096V176.452C231.719 176.752 231.725 177.028 231.737 177.28C231.749 177.532 231.767 177.772 231.791 178H230.351C230.315 177.568 230.297 177.136 230.297 176.704H230.261C229.901 177.256 229.475 177.646 228.983 177.874C228.491 178.102 227.921 178.216 227.273 178.216C226.877 178.216 226.499 178.162 226.139 178.054C225.779 177.946 225.461 177.784 225.185 177.568C224.921 177.352 224.711 177.088 224.555 176.776C224.399 176.452 224.321 176.08 224.321 175.66C224.321 175.108 224.441 174.646 224.681 174.274C224.933 173.902 225.269 173.602 225.689 173.374C226.121 173.134 226.619 172.966 227.183 172.87C227.759 172.762 228.371 172.708 229.019 172.708H230.207V172.348C230.207 172.132 230.165 171.916 230.081 171.7C229.997 171.484 229.871 171.292 229.703 171.124C229.535 170.944 229.325 170.806 229.073 170.71C228.821 170.602 228.521 170.548 228.173 170.548C227.861 170.548 227.585 170.578 227.345 170.638C227.117 170.698 226.907 170.776 226.715 170.872C226.523 170.956 226.349 171.058 226.193 171.178C226.037 171.298 225.887 171.412 225.743 171.52L224.771 170.512ZM229.343 173.896C228.959 173.896 228.563 173.92 228.155 173.968C227.759 174.004 227.393 174.082 227.057 174.202C226.733 174.322 226.463 174.49 226.247 174.706C226.043 174.922 225.941 175.198 225.941 175.534C225.941 176.026 226.103 176.38 226.427 176.596C226.763 176.812 227.213 176.92 227.777 176.92C228.221 176.92 228.599 176.848 228.911 176.704C229.223 176.548 229.475 176.35 229.667 176.11C229.859 175.87 229.997 175.606 230.081 175.318C230.165 175.018 230.207 174.724 230.207 174.436V173.896H229.343ZM233.043 169.468H234.915L237.453 176.128H237.489L239.901 169.468H241.647L237.597 179.836C237.453 180.208 237.303 180.544 237.147 180.844C236.991 181.156 236.805 181.42 236.589 181.636C236.373 181.852 236.109 182.02 235.797 182.14C235.497 182.26 235.125 182.32 234.681 182.32C234.441 182.32 234.195 182.302 233.943 182.266C233.703 182.242 233.469 182.182 233.241 182.086L233.439 180.61C233.763 180.742 234.087 180.808 234.411 180.808C234.663 180.808 234.873 180.772 235.041 180.7C235.221 180.64 235.371 180.544 235.491 180.412C235.623 180.292 235.731 180.148 235.815 179.98C235.899 179.812 235.983 179.62 236.067 179.404L236.589 178.054L233.043 169.468ZM243.011 178.108C242.687 178.108 242.405 177.994 242.165 177.766C241.937 177.526 241.823 177.244 241.823 176.92C241.823 176.596 241.937 176.32 242.165 176.092C242.405 175.852 242.687 175.732 243.011 175.732C243.335 175.732 243.611 175.852 243.839 176.092C244.079 176.32 244.199 176.596 244.199 176.92C244.199 177.244 244.079 177.526 243.839 177.766C243.611 177.994 243.335 178.108 243.011 178.108Z" fill="#1A2E33"/>
<path d="M181.22 94.252H183.704V95.404H183.74C183.848 95.248 183.986 95.092 184.154 94.936C184.334 94.768 184.538 94.618 184.766 94.486C185.006 94.354 185.264 94.246 185.54 94.162C185.816 94.078 186.11 94.036 186.422 94.036C187.07 94.036 187.658 94.15 188.186 94.378C188.714 94.594 189.164 94.906 189.536 95.314C189.92 95.71 190.214 96.184 190.418 96.736C190.622 97.288 190.724 97.894 190.724 98.554C190.724 99.166 190.628 99.754 190.436 100.318C190.256 100.87 189.992 101.362 189.644 101.794C189.308 102.226 188.894 102.574 188.402 102.838C187.91 103.09 187.352 103.216 186.728 103.216C186.164 103.216 185.636 103.132 185.144 102.964C184.664 102.784 184.268 102.484 183.956 102.064H183.92V107.104H181.22V94.252ZM183.704 98.626C183.704 99.286 183.89 99.82 184.262 100.228C184.646 100.636 185.18 100.84 185.864 100.84C186.548 100.84 187.076 100.636 187.448 100.228C187.832 99.82 188.024 99.286 188.024 98.626C188.024 97.966 187.832 97.432 187.448 97.024C187.076 96.616 186.548 96.412 185.864 96.412C185.18 96.412 184.646 96.616 184.262 97.024C183.89 97.432 183.704 97.966 183.704 98.626ZM197.796 101.902H197.76C197.46 102.37 197.058 102.706 196.554 102.91C196.062 103.114 195.54 103.216 194.988 103.216C194.58 103.216 194.184 103.156 193.8 103.036C193.428 102.928 193.098 102.76 192.81 102.532C192.522 102.304 192.294 102.022 192.126 101.686C191.958 101.35 191.874 100.96 191.874 100.516C191.874 100.012 191.964 99.586 192.144 99.238C192.336 98.89 192.588 98.602 192.9 98.374C193.224 98.146 193.59 97.972 193.998 97.852C194.406 97.72 194.826 97.624 195.258 97.564C195.702 97.504 196.14 97.468 196.572 97.456C197.016 97.444 197.424 97.438 197.796 97.438C197.796 96.958 197.622 96.58 197.274 96.304C196.938 96.016 196.536 95.872 196.068 95.872C195.624 95.872 195.216 95.968 194.844 96.16C194.484 96.34 194.16 96.592 193.872 96.916L192.432 95.44C192.936 94.972 193.524 94.624 194.196 94.396C194.868 94.156 195.564 94.036 196.284 94.036C197.076 94.036 197.724 94.138 198.228 94.342C198.744 94.534 199.152 94.822 199.452 95.206C199.764 95.59 199.98 96.064 200.1 96.628C200.22 97.18 200.28 97.822 200.28 98.554V103H197.796V101.902ZM197.13 99.166C196.926 99.166 196.668 99.178 196.356 99.202C196.056 99.214 195.762 99.262 195.474 99.346C195.198 99.43 194.958 99.556 194.754 99.724C194.562 99.892 194.466 100.126 194.466 100.426C194.466 100.75 194.604 100.99 194.88 101.146C195.156 101.302 195.444 101.38 195.744 101.38C196.008 101.38 196.26 101.344 196.5 101.272C196.752 101.2 196.974 101.098 197.166 100.966C197.358 100.834 197.508 100.666 197.616 100.462C197.736 100.258 197.796 100.018 197.796 99.742V99.166H197.13ZM206.924 96.826C206.528 96.334 206.006 96.088 205.358 96.088C205.13 96.088 204.908 96.142 204.692 96.25C204.476 96.358 204.368 96.544 204.368 96.808C204.368 97.024 204.476 97.186 204.692 97.294C204.92 97.39 205.202 97.48 205.538 97.564C205.886 97.636 206.252 97.72 206.636 97.816C207.032 97.9 207.398 98.038 207.734 98.23C208.082 98.422 208.364 98.686 208.58 99.022C208.808 99.346 208.922 99.784 208.922 100.336C208.922 100.9 208.796 101.368 208.544 101.74C208.304 102.1 207.992 102.394 207.608 102.622C207.224 102.838 206.792 102.988 206.312 103.072C205.832 103.168 205.358 103.216 204.89 103.216C204.278 103.216 203.66 103.132 203.036 102.964C202.412 102.784 201.884 102.472 201.452 102.028L203.09 100.21C203.342 100.522 203.618 100.762 203.918 100.93C204.23 101.086 204.59 101.164 204.998 101.164C205.31 101.164 205.592 101.122 205.844 101.038C206.096 100.942 206.222 100.774 206.222 100.534C206.222 100.306 206.108 100.138 205.88 100.03C205.664 99.91 205.382 99.814 205.034 99.742C204.698 99.658 204.332 99.574 203.936 99.49C203.552 99.394 203.186 99.256 202.838 99.076C202.502 98.896 202.22 98.644 201.992 98.32C201.776 97.984 201.668 97.54 201.668 96.988C201.668 96.472 201.77 96.028 201.974 95.656C202.19 95.284 202.466 94.978 202.802 94.738C203.15 94.498 203.546 94.324 203.99 94.216C204.434 94.096 204.884 94.036 205.34 94.036C205.916 94.036 206.498 94.12 207.086 94.288C207.674 94.456 208.172 94.756 208.58 95.188L206.924 96.826ZM215.256 96.826C214.86 96.334 214.338 96.088 213.69 96.088C213.462 96.088 213.24 96.142 213.024 96.25C212.808 96.358 212.7 96.544 212.7 96.808C212.7 97.024 212.808 97.186 213.024 97.294C213.252 97.39 213.534 97.48 213.87 97.564C214.218 97.636 214.584 97.72 214.968 97.816C215.364 97.9 215.73 98.038 216.066 98.23C216.414 98.422 216.696 98.686 216.912 99.022C217.14 99.346 217.254 99.784 217.254 100.336C217.254 100.9 217.128 101.368 216.876 101.74C216.636 102.1 216.324 102.394 215.94 102.622C215.556 102.838 215.124 102.988 214.644 103.072C214.164 103.168 213.69 103.216 213.222 103.216C212.61 103.216 211.992 103.132 211.368 102.964C210.744 102.784 210.216 102.472 209.784 102.028L211.422 100.21C211.674 100.522 211.95 100.762 212.25 100.93C212.562 101.086 212.922 101.164 213.33 101.164C213.642 101.164 213.924 101.122 214.176 101.038C214.428 100.942 214.554 100.774 214.554 100.534C214.554 100.306 214.44 100.138 214.212 100.03C213.996 99.91 213.714 99.814 213.366 99.742C213.03 99.658 212.664 99.574 212.268 99.49C211.884 99.394 211.518 99.256 211.17 99.076C210.834 98.896 210.552 98.644 210.324 98.32C210.108 97.984 210 97.54 210 96.988C210 96.472 210.102 96.028 210.306 95.656C210.522 95.284 210.798 94.978 211.134 94.738C211.482 94.498 211.878 94.324 212.322 94.216C212.766 94.096 213.216 94.036 213.672 94.036C214.248 94.036 214.83 94.12 215.418 94.288C216.006 94.456 216.504 94.756 216.912 95.188L215.256 96.826ZM218.674 94.252H221.374V103H218.674V94.252ZM218.458 91.498C218.458 91.066 218.608 90.7 218.908 90.4C219.22 90.088 219.592 89.932 220.024 89.932C220.456 89.932 220.822 90.088 221.122 90.4C221.434 90.7 221.59 91.066 221.59 91.498C221.59 91.93 221.434 92.302 221.122 92.614C220.822 92.914 220.456 93.064 220.024 93.064C219.592 93.064 219.22 92.914 218.908 92.614C218.608 92.302 218.458 91.93 218.458 91.498ZM222.989 98.626C222.989 97.93 223.115 97.3 223.367 96.736C223.619 96.172 223.961 95.692 224.393 95.296C224.837 94.888 225.353 94.576 225.941 94.36C226.541 94.144 227.177 94.036 227.849 94.036C228.521 94.036 229.151 94.144 229.739 94.36C230.339 94.576 230.855 94.888 231.287 95.296C231.731 95.692 232.079 96.172 232.331 96.736C232.583 97.3 232.709 97.93 232.709 98.626C232.709 99.322 232.583 99.952 232.331 100.516C232.079 101.08 231.731 101.566 231.287 101.974C230.855 102.37 230.339 102.676 229.739 102.892C229.151 103.108 228.521 103.216 227.849 103.216C227.177 103.216 226.541 103.108 225.941 102.892C225.353 102.676 224.837 102.37 224.393 101.974C223.961 101.566 223.619 101.08 223.367 100.516C223.115 99.952 222.989 99.322 222.989 98.626ZM225.689 98.626C225.689 99.286 225.875 99.82 226.247 100.228C226.631 100.636 227.165 100.84 227.849 100.84C228.533 100.84 229.061 100.636 229.433 100.228C229.817 99.82 230.009 99.286 230.009 98.626C230.009 97.966 229.817 97.432 229.433 97.024C229.061 96.616 228.533 96.412 227.849 96.412C227.165 96.412 226.631 96.616 226.247 97.024C225.875 97.432 225.689 97.966 225.689 98.626ZM234.3 94.252H236.892V95.44H236.928C237.012 95.272 237.132 95.104 237.288 94.936C237.444 94.768 237.63 94.618 237.846 94.486C238.062 94.354 238.308 94.246 238.584 94.162C238.86 94.078 239.16 94.036 239.484 94.036C240.168 94.036 240.72 94.144 241.14 94.36C241.56 94.564 241.884 94.852 242.112 95.224C242.352 95.596 242.514 96.034 242.598 96.538C242.682 97.042 242.724 97.588 242.724 98.176V103H240.024V98.716C240.024 98.464 240.012 98.206 239.988 97.942C239.976 97.666 239.922 97.414 239.826 97.186C239.742 96.958 239.604 96.772 239.412 96.628C239.232 96.484 238.968 96.412 238.62 96.412C238.272 96.412 237.99 96.478 237.774 96.61C237.558 96.73 237.39 96.898 237.27 97.114C237.162 97.318 237.09 97.552 237.054 97.816C237.018 98.08 237 98.356 237 98.644V103H234.3V94.252ZM250.126 101.902H250.09C249.79 102.37 249.388 102.706 248.884 102.91C248.392 103.114 247.87 103.216 247.318 103.216C246.91 103.216 246.514 103.156 246.13 103.036C245.758 102.928 245.428 102.76 245.14 102.532C244.852 102.304 244.624 102.022 244.456 101.686C244.288 101.35 244.204 100.96 244.204 100.516C244.204 100.012 244.294 99.586 244.474 99.238C244.666 98.89 244.918 98.602 245.23 98.374C245.554 98.146 245.92 97.972 246.328 97.852C246.736 97.72 247.156 97.624 247.588 97.564C248.032 97.504 248.47 97.468 248.902 97.456C249.346 97.444 249.754 97.438 250.126 97.438C250.126 96.958 249.952 96.58 249.604 96.304C249.268 96.016 248.866 95.872 248.398 95.872C247.954 95.872 247.546 95.968 247.174 96.16C246.814 96.34 246.49 96.592 246.202 96.916L244.762 95.44C245.266 94.972 245.854 94.624 246.526 94.396C247.198 94.156 247.894 94.036 248.614 94.036C249.406 94.036 250.054 94.138 250.558 94.342C251.074 94.534 251.482 94.822 251.782 95.206C252.094 95.59 252.31 96.064 252.43 96.628C252.55 97.18 252.61 97.822 252.61 98.554V103H250.126V101.902ZM249.46 99.166C249.256 99.166 248.998 99.178 248.686 99.202C248.386 99.214 248.092 99.262 247.804 99.346C247.528 99.43 247.288 99.556 247.084 99.724C246.892 99.892 246.796 100.126 246.796 100.426C246.796 100.75 246.934 100.99 247.21 101.146C247.486 101.302 247.774 101.38 248.074 101.38C248.338 101.38 248.59 101.344 248.83 101.272C249.082 101.2 249.304 101.098 249.496 100.966C249.688 100.834 249.838 100.666 249.946 100.462C250.066 100.258 250.126 100.018 250.126 99.742V99.166H249.46ZM260.262 96.412H257.886V99.328C257.886 99.568 257.898 99.79 257.922 99.994C257.946 100.186 258 100.354 258.084 100.498C258.168 100.642 258.294 100.756 258.462 100.84C258.642 100.912 258.876 100.948 259.164 100.948C259.308 100.948 259.494 100.936 259.722 100.912C259.962 100.876 260.142 100.804 260.262 100.696V102.946C259.962 103.054 259.65 103.126 259.326 103.162C259.002 103.198 258.684 103.216 258.372 103.216C257.916 103.216 257.496 103.168 257.112 103.072C256.728 102.976 256.392 102.826 256.104 102.622C255.816 102.406 255.588 102.13 255.42 101.794C255.264 101.458 255.186 101.05 255.186 100.57V96.412H253.458V94.252H255.186V91.66H257.886V94.252H260.262V96.412ZM269.914 101.488C269.482 102.04 268.936 102.466 268.276 102.766C267.616 103.066 266.932 103.216 266.224 103.216C265.552 103.216 264.916 103.108 264.316 102.892C263.728 102.676 263.212 102.37 262.768 101.974C262.336 101.566 261.994 101.08 261.742 100.516C261.49 99.952 261.364 99.322 261.364 98.626C261.364 97.93 261.49 97.3 261.742 96.736C261.994 96.172 262.336 95.692 262.768 95.296C263.212 94.888 263.728 94.576 264.316 94.36C264.916 94.144 265.552 94.036 266.224 94.036C266.848 94.036 267.412 94.144 267.916 94.36C268.432 94.576 268.864 94.888 269.212 95.296C269.572 95.692 269.848 96.172 270.04 96.736C270.232 97.3 270.328 97.93 270.328 98.626V99.472H264.064C264.172 99.988 264.406 100.402 264.766 100.714C265.126 101.014 265.57 101.164 266.098 101.164C266.542 101.164 266.914 101.068 267.214 100.876C267.526 100.672 267.796 100.414 268.024 100.102L269.914 101.488ZM267.628 97.636C267.64 97.18 267.49 96.79 267.178 96.466C266.866 96.142 266.464 95.98 265.972 95.98C265.672 95.98 265.408 96.028 265.18 96.124C264.952 96.22 264.754 96.346 264.586 96.502C264.43 96.646 264.304 96.82 264.208 97.024C264.124 97.216 264.076 97.42 264.064 97.636H267.628ZM73.6256 119.252H76.3256V128H73.6256V119.252ZM73.4096 116.498C73.4096 116.066 73.5596 115.7 73.8596 115.4C74.1716 115.088 74.5436 114.932 74.9756 114.932C75.4076 114.932 75.7736 115.088 76.0736 115.4C76.3856 115.7 76.5416 116.066 76.5416 116.498C76.5416 116.93 76.3856 117.302 76.0736 117.614C75.7736 117.914 75.4076 118.064 74.9756 118.064C74.5436 118.064 74.1716 117.914 73.8596 117.614C73.5596 117.302 73.4096 116.93 73.4096 116.498ZM67.8656 121.412H66.0836V119.252H67.8656V117.704C67.8656 117.224 67.9076 116.774 67.9916 116.354C68.0756 115.922 68.2376 115.544 68.4776 115.22C68.7176 114.896 69.0596 114.644 69.5036 114.464C69.9596 114.272 70.5536 114.176 71.2856 114.176C71.5616 114.176 71.8316 114.188 72.0956 114.212C72.3596 114.236 72.6176 114.278 72.8696 114.338L72.7436 116.624C72.5876 116.564 72.4436 116.522 72.3116 116.498C72.1796 116.462 72.0296 116.444 71.8616 116.444C71.4296 116.444 71.1056 116.54 70.8896 116.732C70.6736 116.912 70.5656 117.29 70.5656 117.866V119.252H72.5636V121.412H70.5656V128H67.8656V121.412ZM86.5475 126.488C86.1155 127.04 85.5695 127.466 84.9095 127.766C84.2495 128.066 83.5655 128.216 82.8575 128.216C82.1855 128.216 81.5495 128.108 80.9495 127.892C80.3615 127.676 79.8455 127.37 79.4015 126.974C78.9695 126.566 78.6275 126.08 78.3755 125.516C78.1235 124.952 77.9975 124.322 77.9975 123.626C77.9975 122.93 78.1235 122.3 78.3755 121.736C78.6275 121.172 78.9695 120.692 79.4015 120.296C79.8455 119.888 80.3615 119.576 80.9495 119.36C81.5495 119.144 82.1855 119.036 82.8575 119.036C83.4815 119.036 84.0455 119.144 84.5495 119.36C85.0655 119.576 85.4975 119.888 85.8455 120.296C86.2055 120.692 86.4815 121.172 86.6735 121.736C86.8655 122.3 86.9615 122.93 86.9615 123.626V124.472H80.6975C80.8055 124.988 81.0395 125.402 81.3995 125.714C81.7595 126.014 82.2035 126.164 82.7315 126.164C83.1755 126.164 83.5475 126.068 83.8475 125.876C84.1595 125.672 84.4295 125.414 84.6575 125.102L86.5475 126.488ZM84.2615 122.636C84.2735 122.18 84.1235 121.79 83.8115 121.466C83.4995 121.142 83.0975 120.98 82.6055 120.98C82.3055 120.98 82.0415 121.028 81.8135 121.124C81.5855 121.22 81.3875 121.346 81.2195 121.502C81.0635 121.646 80.9375 121.82 80.8415 122.024C80.7575 122.216 80.7095 122.42 80.6975 122.636H84.2615ZM88.6034 119.252H91.3034V120.656H91.3394C91.6274 120.116 91.9694 119.714 92.3654 119.45C92.7614 119.174 93.2594 119.036 93.8594 119.036C94.0154 119.036 94.1714 119.042 94.3274 119.054C94.4834 119.066 94.6274 119.09 94.7594 119.126V121.592C94.5674 121.532 94.3754 121.49 94.1834 121.466C94.0034 121.43 93.8114 121.412 93.6074 121.412C93.0914 121.412 92.6834 121.484 92.3834 121.628C92.0834 121.772 91.8494 121.976 91.6814 122.24C91.5254 122.492 91.4234 122.798 91.3754 123.158C91.3274 123.518 91.3034 123.914 91.3034 124.346V128H88.6034V119.252ZM100.973 129.422C100.793 129.89 100.619 130.304 100.451 130.664C100.283 131.024 100.067 131.324 99.8035 131.564C99.5515 131.816 99.2275 132.002 98.8315 132.122C98.4355 132.254 97.9135 132.32 97.2655 132.32C96.5695 132.32 95.8975 132.212 95.2495 131.996L95.6095 129.782C96.0175 129.962 96.4375 130.052 96.8695 130.052C97.1695 130.052 97.4155 130.016 97.6075 129.944C97.7995 129.884 97.9555 129.788 98.0755 129.656C98.2075 129.536 98.3155 129.386 98.3995 129.206C98.4835 129.026 98.5735 128.816 98.6695 128.576L98.8675 128.072L95.0335 119.252H97.9495L100.199 125.03H100.235L102.161 119.252H104.933L100.973 129.422Z" fill="#FF3E46"/>
<defs>
<filter id="filter0_d_331_389" x="-0.00195312" y="-0.000976562" width="357.097" height="247.236" filterUnits="userSpaceOnUse" color-interpolation-filters="sRGB">
<feFlood flood-opacity="0" result="BackgroundImageFix"/>
<feColorMatrix in="SourceAlpha" type="matrix" values="0 0 0 0 0 0 0 0 0 0 0 0 0 0 0 0 0 0 127 0" result="hardAlpha"/>
<feOffset dx="4" dy="4"/>
<feComposite in2="hardAlpha" operator="out"/>
<feColorMatrix type="matrix" values="0 0 0 0 0.47451 0 0 0 0 0.0941176 0 0 0 0 0.0431373 0 0 0 1 0"/>
<feBlend mode="normal" in2="BackgroundImageFix" result="effect1_dropShadow_331_389"/>
<feBlend mode="normal" in="SourceGraphic" in2="effect1_dropShadow_331_389" result="shape"/>
</filter>
</defs>
</svg>
