<svg width="358" height="248" viewBox="0 0 358 248" fill="none" xmlns="http://www.w3.org/2000/svg">
<g filter="url(#filter0_d_274_327)">
<path d="M347.662 153.542C344.548 164.799 339.21 176.759 339.21 176.759L313.851 205.919L271.588 214.751C271.588 214.751 185.953 219.5 160.595 219.5C140.095 219.5 116.095 241 116.095 241C116.095 241 133.095 219.5 116.095 210.5C60.9345 211.045 64.0661 207.227 45.5882 205.919C22.4909 204.284 9.57404 197.345 5.10403 158.465C0.655212 119.77 3.57819 58.637 10.8875 39.5641C18.1968 20.4911 27.793 21.2733 45.5882 14.2378C59.7465 8.64009 100.752 3.20062 121.218 3.20062C141.684 3.20062 250.562 6.47019 283.6 3.20054C316.637 -0.0691066 333.655 37.5162 339.21 52.2296C344.765 66.943 349.899 115.459 349.899 125.812C349.899 136.166 351.077 141.198 347.662 153.542Z" fill="#F0BD96"/>
<path d="M347.662 153.542C344.548 164.799 339.21 176.759 339.21 176.759L313.851 205.919L271.588 214.751C271.588 214.751 185.953 219.5 160.595 219.5C140.095 219.5 116.095 241 116.095 241C116.095 241 133.095 219.5 116.095 210.5C60.9345 211.045 64.0661 207.227 45.5882 205.919C22.4909 204.284 9.57404 197.345 5.10403 158.465C0.655212 119.77 3.57819 58.637 10.8875 39.5641C18.1968 20.4911 27.793 21.2733 45.5882 14.2378C59.7465 8.64009 100.752 3.20062 121.218 3.20062C141.684 3.20062 250.562 6.47019 283.6 3.20054C316.637 -0.0691066 333.655 37.5162 339.21 52.2296C344.765 66.943 349.899 115.459 349.899 125.812C349.899 136.166 351.077 141.198 347.662 153.542Z" stroke="#500001" stroke-width="6"/>
</g>
<rect width="285" height="143" transform="translate(33.0952 35)" fill="#F0BD96"/>
<path d="M104.607 64V40.736H111.967C113.802 40.736 115.402 40.9813 116.767 41.472C118.154 41.9413 119.22 42.6773 119.967 43.68C120.735 44.6827 121.119 45.9733 121.119 47.552C121.119 48.5973 120.927 49.5573 120.543 50.432C120.159 51.2853 119.604 52.032 118.879 52.672C118.175 53.2907 117.3 53.792 116.255 54.176C116.938 54.496 117.492 54.9973 117.919 55.68L123.231 64H118.783C117.93 64 117.332 63.68 116.991 63.04L112.671 55.968C112.5 55.6907 112.298 55.488 112.063 55.36C111.85 55.232 111.53 55.168 111.103 55.168H109.535V64H104.607ZM109.535 51.744H111.935C113.386 51.744 114.474 51.4027 115.199 50.72C115.946 50.016 116.319 49.088 116.319 47.936C116.319 46.8267 115.956 45.9733 115.231 45.376C114.527 44.7787 113.439 44.48 111.967 44.48H109.535V51.744ZM120.223 64L118.495 60.064L120.767 60.512L120.223 64ZM102.175 64V61.92C102.175 61.6 102.271 61.3547 102.463 61.184C102.655 61.0133 102.922 60.896 103.263 60.832L104.863 60.48L105.311 64H102.175ZM105.311 40.736L104.863 44.256L103.263 43.936C102.922 43.8507 102.655 43.7333 102.463 43.584C102.271 43.4133 102.175 43.1573 102.175 42.816V40.736H105.311ZM108.831 64L109.247 60.48L110.879 60.832C111.22 60.896 111.487 61.0133 111.679 61.184C111.871 61.3547 111.967 61.6 111.967 61.92V64H108.831ZM120.223 64L120.639 60.48L122.271 60.832C122.612 60.896 122.879 61.0133 123.071 61.184C123.263 61.3547 123.359 61.6 123.359 61.92V64H120.223ZM132.025 64.256C130.339 64.256 128.878 63.8827 127.641 63.136C126.403 62.3893 125.443 61.3547 124.761 60.032C124.078 58.688 123.737 57.1307 123.737 55.36C123.737 53.8453 124.067 52.4693 124.729 51.232C125.411 49.9947 126.361 49.0133 127.577 48.288C128.793 47.5627 130.201 47.2 131.801 47.2C133.273 47.2 134.553 47.5093 135.641 48.128C136.729 48.7467 137.571 49.6213 138.169 50.752C138.787 51.8613 139.097 53.1947 139.097 54.752C139.097 55.3707 139.033 55.808 138.905 56.064C138.798 56.32 138.521 56.448 138.073 56.448H128.249C128.249 56.512 128.249 56.576 128.249 56.64C128.27 56.6827 128.291 56.736 128.313 56.8C128.505 58.1653 128.953 59.1787 129.657 59.84C130.361 60.5013 131.278 60.832 132.409 60.832C132.963 60.832 133.507 60.7253 134.041 60.512C134.595 60.2773 135.118 60.0427 135.609 59.808C136.099 59.5733 136.515 59.456 136.857 59.456C137.177 59.456 137.454 59.584 137.689 59.84L139.001 61.472C138.382 62.176 137.678 62.7307 136.889 63.136C136.121 63.5413 135.321 63.8293 134.489 64C133.657 64.1707 132.835 64.256 132.025 64.256ZM128.313 53.792H135.065C135.065 52.832 134.798 52.0213 134.265 51.36C133.753 50.6987 132.963 50.368 131.897 50.368C130.873 50.368 130.062 50.6667 129.465 51.264C128.889 51.8613 128.505 52.704 128.313 53.792ZM146.597 64.256C145.36 64.256 144.283 63.904 143.365 63.2C142.469 62.4747 141.776 61.472 141.285 60.192C140.795 58.912 140.549 57.44 140.549 55.776C140.549 54.176 140.837 52.7253 141.413 51.424C141.989 50.1227 142.811 49.088 143.877 48.32C144.944 47.552 146.192 47.168 147.621 47.168C148.517 47.168 149.275 47.3067 149.893 47.584C150.512 47.84 151.067 48.192 151.557 48.64V40.096H156.069V64H153.285C152.688 64 152.315 63.7333 152.165 63.2L151.813 61.792C151.152 62.5387 150.384 63.136 149.509 63.584C148.656 64.032 147.685 64.256 146.597 64.256ZM148.165 60.768C148.912 60.768 149.552 60.6187 150.085 60.32C150.619 60 151.109 59.5627 151.557 59.008V51.808C151.131 51.3387 150.683 51.008 150.213 50.816C149.765 50.624 149.264 50.528 148.709 50.528C147.963 50.528 147.323 50.7307 146.789 51.136C146.277 51.52 145.883 52.1067 145.605 52.896C145.349 53.6853 145.221 54.6453 145.221 55.776C145.221 57.3973 145.456 58.6347 145.925 59.488C146.416 60.3413 147.163 60.768 148.165 60.768ZM152.261 40.096L151.845 43.616L150.213 43.296C149.872 43.2107 149.605 43.0933 149.413 42.944C149.221 42.7733 149.125 42.5173 149.125 42.176V40.096H152.261ZM155.365 64L155.781 60.48L157.413 60.832C157.755 60.896 158.021 61.0133 158.213 61.184C158.405 61.3547 158.501 61.6 158.501 61.92V64H155.365ZM173.982 64V44.704H167.23V40.736H185.662V44.704H178.91V64H173.982ZM171.55 64V61.92C171.55 61.6 171.646 61.3547 171.838 61.184C172.051 61.0133 172.329 60.896 172.67 60.832L174.27 60.48L174.686 64H171.55ZM178.206 64L178.654 60.48L180.254 60.832C180.595 60.896 180.862 61.0133 181.054 61.184C181.246 61.3547 181.342 61.6 181.342 61.92V64H178.206ZM182.334 43.968L185.662 44.704V47.488H183.934C183.614 47.488 183.369 47.392 183.198 47.2C183.027 47.008 182.899 46.7413 182.814 46.4L182.334 43.968ZM170.558 43.968L170.078 46.4C169.993 46.7413 169.865 47.008 169.694 47.2C169.545 47.392 169.299 47.488 168.958 47.488H167.23V44.704L170.558 43.968ZM194.087 64.256C192.402 64.256 190.941 63.8827 189.703 63.136C188.466 62.3893 187.506 61.3547 186.823 60.032C186.141 58.688 185.799 57.1307 185.799 55.36C185.799 53.8453 186.13 52.4693 186.791 51.232C187.474 49.9947 188.423 49.0133 189.639 48.288C190.855 47.5627 192.263 47.2 193.863 47.2C195.335 47.2 196.615 47.5093 197.703 48.128C198.791 48.7467 199.634 49.6213 200.231 50.752C200.85 51.8613 201.159 53.1947 201.159 54.752C201.159 55.3707 201.095 55.808 200.967 56.064C200.861 56.32 200.583 56.448 200.135 56.448H190.311C190.311 56.512 190.311 56.576 190.311 56.64C190.333 56.6827 190.354 56.736 190.375 56.8C190.567 58.1653 191.015 59.1787 191.719 59.84C192.423 60.5013 193.341 60.832 194.471 60.832C195.026 60.832 195.57 60.7253 196.103 60.512C196.658 60.2773 197.181 60.0427 197.671 59.808C198.162 59.5733 198.578 59.456 198.919 59.456C199.239 59.456 199.517 59.584 199.751 59.84L201.063 61.472C200.445 62.176 199.741 62.7307 198.951 63.136C198.183 63.5413 197.383 63.8293 196.551 64C195.719 64.1707 194.898 64.256 194.087 64.256ZM190.375 53.792H197.127C197.127 52.832 196.861 52.0213 196.327 51.36C195.815 50.6987 195.026 50.368 193.959 50.368C192.935 50.368 192.125 50.6667 191.527 51.264C190.951 51.8613 190.567 52.704 190.375 53.792ZM207.572 64.256C206.612 64.256 205.758 64.0853 205.012 63.744C204.265 63.3813 203.689 62.8693 203.284 62.208C202.878 61.5253 202.676 60.704 202.676 59.744C202.676 59.1253 202.836 58.5173 203.156 57.92C203.476 57.3013 204.009 56.736 204.756 56.224C205.502 55.7547 206.494 55.36 207.732 55.04C208.99 54.6987 210.558 54.5067 212.436 54.464V53.632C212.436 52.5867 212.222 51.8293 211.796 51.36C211.369 50.8907 210.75 50.656 209.94 50.656C209.278 50.656 208.702 50.7733 208.212 51.008C207.742 51.2213 207.305 51.4453 206.9 51.68C206.494 51.8933 206.057 52 205.588 52C205.268 52 205.001 51.9253 204.788 51.776C204.574 51.6053 204.404 51.4133 204.276 51.2L203.444 49.76C204.425 48.8853 205.513 48.2347 206.708 47.808C207.902 47.3813 209.172 47.168 210.516 47.168C211.817 47.168 212.937 47.4453 213.876 48C214.836 48.5333 215.572 49.2907 216.084 50.272C216.596 51.232 216.852 52.352 216.852 53.632V64H214.772C214.345 64 214.014 63.9467 213.78 63.84C213.566 63.712 213.385 63.456 213.236 63.072L212.916 62.016C212.105 62.7413 211.284 63.296 210.452 63.68C209.641 64.064 208.681 64.256 207.572 64.256ZM208.98 61.216C209.705 61.216 210.324 61.088 210.836 60.832C211.369 60.576 211.902 60.1813 212.436 59.648V57.12C211.561 57.1413 210.782 57.216 210.1 57.344C209.438 57.4507 208.873 57.6 208.404 57.792C207.956 57.984 207.604 58.2187 207.348 58.496C207.113 58.7733 206.996 59.104 206.996 59.488C206.996 60.128 207.166 60.576 207.508 60.832C207.87 61.088 208.361 61.216 208.98 61.216ZM216.148 64L216.564 60.48L218.164 60.832C218.505 60.896 218.772 61.0133 218.964 61.184C219.177 61.3547 219.284 61.6 219.284 61.92V64H216.148ZM223.109 64V47.456H225.893C226.491 47.456 226.875 47.7227 227.045 48.256L227.301 49.312C227.877 48.7147 228.507 48.2133 229.189 47.808C229.893 47.4027 230.704 47.2 231.621 47.2C232.645 47.2 233.488 47.4773 234.149 48.032C234.811 48.5653 235.312 49.28 235.653 50.176C236.165 49.152 236.912 48.4053 237.893 47.936C238.875 47.4453 239.888 47.2 240.933 47.2C242.811 47.2 244.24 47.7653 245.221 48.896C246.224 50.0053 246.725 51.5307 246.725 53.472V64H242.213V53.472C242.213 52.5547 242.011 51.8613 241.605 51.392C241.2 50.9013 240.592 50.656 239.781 50.656C239.056 50.656 238.437 50.9013 237.925 51.392C237.435 51.8827 237.189 52.576 237.189 53.472V64H232.677V53.472C232.677 52.4693 232.475 51.7547 232.069 51.328C231.664 50.88 231.077 50.656 230.309 50.656C229.797 50.656 229.317 50.7733 228.869 51.008C228.443 51.2427 228.037 51.5627 227.653 51.968V64H223.109ZM220.677 64V61.92C220.677 61.6 220.773 61.3547 220.965 61.184C221.179 61.0133 221.456 60.896 221.797 60.832L223.397 60.48L223.813 64H220.677ZM226.949 64L227.365 60.48L228.965 60.832C229.307 60.896 229.573 61.0133 229.765 61.184C229.979 61.3547 230.085 61.6 230.085 61.92V64H226.949ZM236.485 64L236.933 60.48L238.533 60.832C238.875 60.896 239.141 61.0133 239.333 61.184C239.525 61.3547 239.621 61.6 239.621 61.92V64H236.485ZM223.813 47.456L223.397 50.976L221.797 50.656C221.456 50.5707 221.179 50.4533 220.965 50.304C220.773 50.1333 220.677 49.8773 220.677 49.536V47.456H223.813ZM246.021 64L246.437 60.48L248.069 60.832C248.411 60.896 248.677 61.0133 248.869 61.184C249.061 61.3547 249.157 61.6 249.157 61.92V64H246.021Z" fill="#FE3F46"/>
<path d="M51.032 91.876H46.928V90.256H56.864V91.876H52.76V103H51.032V91.876ZM58.2899 89.392H59.9099V95.782H59.9459C60.1499 95.326 60.5039 94.96 61.0079 94.684C61.5119 94.396 62.0939 94.252 62.7539 94.252C63.1619 94.252 63.5519 94.318 63.9239 94.45C64.3079 94.57 64.6379 94.762 64.9139 95.026C65.2019 95.29 65.4299 95.632 65.5979 96.052C65.7659 96.46 65.8499 96.946 65.8499 97.51V103H64.2299V97.96C64.2299 97.564 64.1759 97.228 64.0679 96.952C63.9599 96.664 63.8159 96.436 63.6359 96.268C63.4559 96.088 63.2459 95.962 63.0059 95.89C62.7779 95.806 62.5379 95.764 62.2859 95.764C61.9499 95.764 61.6379 95.818 61.3499 95.926C61.0619 96.034 60.8099 96.208 60.5939 96.448C60.3779 96.676 60.2099 96.97 60.0899 97.33C59.9699 97.69 59.9099 98.116 59.9099 98.608V103H58.2899V89.392ZM69.5159 99.328C69.5159 99.7 69.5939 100.042 69.7499 100.354C69.9179 100.654 70.1339 100.912 70.3979 101.128C70.6619 101.344 70.9679 101.512 71.3159 101.632C71.6639 101.752 72.0239 101.812 72.3959 101.812C72.8999 101.812 73.3379 101.698 73.7099 101.47C74.0819 101.23 74.4239 100.918 74.7359 100.534L75.9599 101.47C75.0599 102.634 73.7999 103.216 72.1799 103.216C71.5079 103.216 70.8959 103.102 70.3439 102.874C69.8039 102.646 69.3419 102.334 68.9579 101.938C68.5859 101.53 68.2979 101.056 68.0939 100.516C67.8899 99.964 67.7879 99.37 67.7879 98.734C67.7879 98.098 67.8959 97.51 68.1119 96.97C68.3399 96.418 68.6459 95.944 69.0299 95.548C69.4259 95.14 69.8939 94.822 70.4339 94.594C70.9739 94.366 71.5619 94.252 72.1979 94.252C72.9539 94.252 73.5899 94.384 74.1059 94.648C74.6339 94.912 75.0659 95.26 75.4019 95.692C75.7379 96.112 75.9779 96.592 76.1219 97.132C76.2779 97.66 76.3559 98.2 76.3559 98.752V99.328H69.5159ZM74.6279 98.032C74.6159 97.672 74.5559 97.342 74.4479 97.042C74.3519 96.742 74.2019 96.484 73.9979 96.268C73.7939 96.04 73.5359 95.866 73.2239 95.746C72.9239 95.614 72.5699 95.548 72.1619 95.548C71.7659 95.548 71.3999 95.626 71.0639 95.782C70.7399 95.926 70.4639 96.118 70.2359 96.358C70.0079 96.598 69.8279 96.868 69.6959 97.168C69.5759 97.456 69.5159 97.744 69.5159 98.032H74.6279ZM83.3036 94.468H84.9236V95.782H84.9596C85.0676 95.554 85.2116 95.35 85.3916 95.17C85.5716 94.978 85.7696 94.816 85.9856 94.684C86.2136 94.552 86.4596 94.45 86.7236 94.378C86.9876 94.294 87.2516 94.252 87.5156 94.252C87.7796 94.252 88.0196 94.288 88.2356 94.36L88.1636 96.106C88.0316 96.07 87.8996 96.04 87.7676 96.016C87.6356 95.992 87.5036 95.98 87.3716 95.98C86.5796 95.98 85.9736 96.202 85.5536 96.646C85.1336 97.09 84.9236 97.78 84.9236 98.716V103H83.3036V94.468ZM90.8733 99.328C90.8733 99.7 90.9513 100.042 91.1073 100.354C91.2753 100.654 91.4913 100.912 91.7553 101.128C92.0193 101.344 92.3253 101.512 92.6733 101.632C93.0213 101.752 93.3813 101.812 93.7533 101.812C94.2573 101.812 94.6953 101.698 95.0673 101.47C95.4393 101.23 95.7813 100.918 96.0933 100.534L97.3173 101.47C96.4173 102.634 95.1573 103.216 93.5373 103.216C92.8653 103.216 92.2533 103.102 91.7013 102.874C91.1613 102.646 90.6993 102.334 90.3153 101.938C89.9433 101.53 89.6553 101.056 89.4513 100.516C89.2473 99.964 89.1453 99.37 89.1453 98.734C89.1453 98.098 89.2533 97.51 89.4693 96.97C89.6973 96.418 90.0033 95.944 90.3873 95.548C90.7833 95.14 91.2513 94.822 91.7913 94.594C92.3313 94.366 92.9193 94.252 93.5553 94.252C94.3113 94.252 94.9473 94.384 95.4633 94.648C95.9913 94.912 96.4233 95.26 96.7593 95.692C97.0953 96.112 97.3353 96.592 97.4793 97.132C97.6353 97.66 97.7133 98.2 97.7133 98.752V99.328H90.8733ZM95.9853 98.032C95.9733 97.672 95.9133 97.342 95.8053 97.042C95.7093 96.742 95.5593 96.484 95.3553 96.268C95.1513 96.04 94.8933 95.866 94.5813 95.746C94.2813 95.614 93.9273 95.548 93.5193 95.548C93.1233 95.548 92.7573 95.626 92.4213 95.782C92.0973 95.926 91.8213 96.118 91.5933 96.358C91.3653 96.598 91.1853 96.868 91.0533 97.168C90.9333 97.456 90.8733 97.744 90.8733 98.032H95.9853ZM108.201 103H106.581V101.776H106.545C106.233 102.232 105.801 102.586 105.249 102.838C104.709 103.09 104.151 103.216 103.575 103.216C102.915 103.216 102.315 103.102 101.775 102.874C101.247 102.646 100.791 102.328 100.407 101.92C100.035 101.512 99.7472 101.038 99.5432 100.498C99.3392 99.958 99.2372 99.37 99.2372 98.734C99.2372 98.098 99.3392 97.51 99.5432 96.97C99.7472 96.418 100.035 95.944 100.407 95.548C100.791 95.14 101.247 94.822 101.775 94.594C102.315 94.366 102.915 94.252 103.575 94.252C104.187 94.252 104.763 94.384 105.303 94.648C105.843 94.9 106.257 95.248 106.545 95.692H106.581V89.392H108.201V103ZM103.773 101.704C104.205 101.704 104.595 101.632 104.943 101.488C105.291 101.332 105.585 101.128 105.825 100.876C106.065 100.612 106.251 100.3 106.383 99.94C106.515 99.568 106.581 99.166 106.581 98.734C106.581 98.302 106.515 97.906 106.383 97.546C106.251 97.174 106.065 96.862 105.825 96.61C105.585 96.346 105.291 96.142 104.943 95.998C104.595 95.842 104.205 95.764 103.773 95.764C103.341 95.764 102.951 95.842 102.603 95.998C102.255 96.142 101.961 96.346 101.721 96.61C101.481 96.862 101.295 97.174 101.163 97.546C101.031 97.906 100.965 98.302 100.965 98.734C100.965 99.166 101.031 99.568 101.163 99.94C101.295 100.3 101.481 100.612 101.721 100.876C101.961 101.128 102.255 101.332 102.603 101.488C102.951 101.632 103.341 101.704 103.773 101.704ZM120.237 95.872H117.915V99.742C117.915 99.982 117.921 100.222 117.933 100.462C117.945 100.69 117.987 100.9 118.059 101.092C118.143 101.272 118.263 101.422 118.419 101.542C118.587 101.65 118.827 101.704 119.139 101.704C119.331 101.704 119.529 101.686 119.733 101.65C119.937 101.614 120.123 101.548 120.291 101.452V102.928C120.099 103.036 119.847 103.108 119.535 103.144C119.235 103.192 119.001 103.216 118.833 103.216C118.209 103.216 117.723 103.132 117.375 102.964C117.039 102.784 116.787 102.556 116.619 102.28C116.463 102.004 116.367 101.698 116.331 101.362C116.307 101.014 116.295 100.666 116.295 100.318V95.872H114.423V94.468H116.295V92.074H117.915V94.468H120.237V95.872ZM123.551 99.328C123.551 99.7 123.629 100.042 123.785 100.354C123.953 100.654 124.169 100.912 124.433 101.128C124.697 101.344 125.003 101.512 125.351 101.632C125.699 101.752 126.059 101.812 126.431 101.812C126.935 101.812 127.373 101.698 127.745 101.47C128.117 101.23 128.459 100.918 128.771 100.534L129.995 101.47C129.095 102.634 127.835 103.216 126.215 103.216C125.543 103.216 124.931 103.102 124.379 102.874C123.839 102.646 123.377 102.334 122.993 101.938C122.621 101.53 122.333 101.056 122.129 100.516C121.925 99.964 121.823 99.37 121.823 98.734C121.823 98.098 121.931 97.51 122.147 96.97C122.375 96.418 122.681 95.944 123.065 95.548C123.461 95.14 123.929 94.822 124.469 94.594C125.009 94.366 125.597 94.252 126.233 94.252C126.989 94.252 127.625 94.384 128.141 94.648C128.669 94.912 129.101 95.26 129.437 95.692C129.773 96.112 130.013 96.592 130.157 97.132C130.313 97.66 130.391 98.2 130.391 98.752V99.328H123.551ZM128.663 98.032C128.651 97.672 128.591 97.342 128.483 97.042C128.387 96.742 128.237 96.484 128.033 96.268C127.829 96.04 127.571 95.866 127.259 95.746C126.959 95.614 126.605 95.548 126.197 95.548C125.801 95.548 125.435 95.626 125.099 95.782C124.775 95.926 124.499 96.118 124.271 96.358C124.043 96.598 123.863 96.868 123.731 97.168C123.611 97.456 123.551 97.744 123.551 98.032H128.663ZM132.365 95.512C132.821 95.092 133.349 94.78 133.949 94.576C134.549 94.36 135.149 94.252 135.749 94.252C136.373 94.252 136.907 94.33 137.351 94.486C137.807 94.642 138.179 94.852 138.467 95.116C138.755 95.38 138.965 95.686 139.097 96.034C139.241 96.37 139.313 96.724 139.313 97.096V101.452C139.313 101.752 139.319 102.028 139.331 102.28C139.343 102.532 139.361 102.772 139.385 103H137.945C137.909 102.568 137.891 102.136 137.891 101.704H137.855C137.495 102.256 137.069 102.646 136.577 102.874C136.085 103.102 135.515 103.216 134.867 103.216C134.471 103.216 134.093 103.162 133.733 103.054C133.373 102.946 133.055 102.784 132.779 102.568C132.515 102.352 132.305 102.088 132.149 101.776C131.993 101.452 131.915 101.08 131.915 100.66C131.915 100.108 132.035 99.646 132.275 99.274C132.527 98.902 132.863 98.602 133.283 98.374C133.715 98.134 134.213 97.966 134.777 97.87C135.353 97.762 135.965 97.708 136.613 97.708H137.801V97.348C137.801 97.132 137.759 96.916 137.675 96.7C137.591 96.484 137.465 96.292 137.297 96.124C137.129 95.944 136.919 95.806 136.667 95.71C136.415 95.602 136.115 95.548 135.767 95.548C135.455 95.548 135.179 95.578 134.939 95.638C134.711 95.698 134.501 95.776 134.309 95.872C134.117 95.956 133.943 96.058 133.787 96.178C133.631 96.298 133.481 96.412 133.337 96.52L132.365 95.512ZM136.937 98.896C136.553 98.896 136.157 98.92 135.749 98.968C135.353 99.004 134.987 99.082 134.651 99.202C134.327 99.322 134.057 99.49 133.841 99.706C133.637 99.922 133.535 100.198 133.535 100.534C133.535 101.026 133.697 101.38 134.021 101.596C134.357 101.812 134.807 101.92 135.371 101.92C135.815 101.92 136.193 101.848 136.505 101.704C136.817 101.548 137.069 101.35 137.261 101.11C137.453 100.87 137.591 100.606 137.675 100.318C137.759 100.018 137.801 99.724 137.801 99.436V98.896H136.937ZM141.663 94.468H143.175V95.8H143.211C143.247 95.68 143.337 95.53 143.481 95.35C143.637 95.17 143.829 95.002 144.057 94.846C144.297 94.678 144.573 94.54 144.885 94.432C145.209 94.312 145.563 94.252 145.947 94.252C146.583 94.252 147.117 94.384 147.549 94.648C147.981 94.912 148.335 95.308 148.611 95.836C148.887 95.308 149.277 94.912 149.781 94.648C150.285 94.384 150.795 94.252 151.311 94.252C151.971 94.252 152.511 94.36 152.931 94.576C153.351 94.792 153.681 95.08 153.921 95.44C154.161 95.788 154.323 96.19 154.407 96.646C154.503 97.09 154.551 97.552 154.551 98.032V103H152.931V98.248C152.931 97.924 152.907 97.612 152.859 97.312C152.823 97.012 152.739 96.748 152.607 96.52C152.475 96.292 152.289 96.112 152.049 95.98C151.809 95.836 151.491 95.764 151.095 95.764C150.315 95.764 149.757 96.004 149.421 96.484C149.085 96.964 148.917 97.582 148.917 98.338V103H147.297V98.536C147.297 98.128 147.273 97.756 147.225 97.42C147.189 97.084 147.105 96.796 146.973 96.556C146.853 96.304 146.673 96.112 146.433 95.98C146.205 95.836 145.893 95.764 145.497 95.764C145.209 95.764 144.927 95.824 144.651 95.944C144.387 96.052 144.153 96.22 143.949 96.448C143.745 96.676 143.583 96.97 143.463 97.33C143.343 97.678 143.283 98.092 143.283 98.572V103H141.663V94.468ZM162.127 94.468H163.747V103H162.127V94.468ZM161.749 91.408C161.749 91.084 161.863 90.808 162.091 90.58C162.331 90.34 162.613 90.22 162.937 90.22C163.261 90.22 163.537 90.34 163.765 90.58C164.005 90.808 164.125 91.084 164.125 91.408C164.125 91.732 164.005 92.014 163.765 92.254C163.537 92.482 163.261 92.596 162.937 92.596C162.613 92.596 162.331 92.482 162.091 92.254C161.863 92.014 161.749 91.732 161.749 91.408ZM170.861 96.61C170.669 96.37 170.429 96.172 170.141 96.016C169.865 95.848 169.523 95.764 169.115 95.764C168.731 95.764 168.395 95.848 168.107 96.016C167.831 96.172 167.693 96.406 167.693 96.718C167.693 96.97 167.771 97.174 167.927 97.33C168.095 97.486 168.287 97.612 168.503 97.708C168.731 97.804 168.971 97.876 169.223 97.924C169.475 97.972 169.691 98.014 169.871 98.05C170.219 98.134 170.543 98.236 170.843 98.356C171.155 98.476 171.419 98.632 171.635 98.824C171.863 99.016 172.037 99.25 172.157 99.526C172.289 99.802 172.355 100.138 172.355 100.534C172.355 101.014 172.253 101.428 172.049 101.776C171.845 102.112 171.581 102.388 171.257 102.604C170.933 102.82 170.561 102.976 170.141 103.072C169.733 103.168 169.319 103.216 168.899 103.216C168.191 103.216 167.567 103.108 167.027 102.892C166.499 102.676 166.025 102.28 165.605 101.704L166.829 100.696C167.093 100.96 167.387 101.194 167.711 101.398C168.035 101.602 168.431 101.704 168.899 101.704C169.103 101.704 169.307 101.686 169.511 101.65C169.727 101.602 169.913 101.536 170.069 101.452C170.237 101.356 170.369 101.242 170.465 101.11C170.573 100.966 170.627 100.804 170.627 100.624C170.627 100.384 170.549 100.186 170.393 100.03C170.249 99.874 170.069 99.754 169.853 99.67C169.649 99.574 169.427 99.502 169.187 99.454C168.959 99.394 168.755 99.346 168.575 99.31C168.227 99.226 167.897 99.13 167.585 99.022C167.273 98.914 166.997 98.77 166.757 98.59C166.517 98.41 166.325 98.182 166.181 97.906C166.037 97.63 165.965 97.288 165.965 96.88C165.965 96.436 166.055 96.052 166.235 95.728C166.427 95.392 166.673 95.116 166.973 94.9C167.285 94.684 167.633 94.522 168.017 94.414C168.413 94.306 168.809 94.252 169.205 94.252C169.781 94.252 170.333 94.36 170.861 94.576C171.389 94.792 171.809 95.152 172.121 95.656L170.861 96.61ZM275.381 95.512C275.837 95.092 276.365 94.78 276.965 94.576C277.565 94.36 278.165 94.252 278.765 94.252C279.389 94.252 279.923 94.33 280.367 94.486C280.823 94.642 281.195 94.852 281.483 95.116C281.771 95.38 281.981 95.686 282.113 96.034C282.257 96.37 282.329 96.724 282.329 97.096V101.452C282.329 101.752 282.335 102.028 282.347 102.28C282.359 102.532 282.377 102.772 282.401 103H280.961C280.925 102.568 280.907 102.136 280.907 101.704H280.871C280.511 102.256 280.085 102.646 279.593 102.874C279.101 103.102 278.531 103.216 277.883 103.216C277.487 103.216 277.109 103.162 276.749 103.054C276.389 102.946 276.071 102.784 275.795 102.568C275.531 102.352 275.321 102.088 275.165 101.776C275.009 101.452 274.931 101.08 274.931 100.66C274.931 100.108 275.051 99.646 275.291 99.274C275.543 98.902 275.879 98.602 276.299 98.374C276.731 98.134 277.229 97.966 277.793 97.87C278.369 97.762 278.981 97.708 279.629 97.708H280.817V97.348C280.817 97.132 280.775 96.916 280.691 96.7C280.607 96.484 280.481 96.292 280.313 96.124C280.145 95.944 279.935 95.806 279.683 95.71C279.431 95.602 279.131 95.548 278.783 95.548C278.471 95.548 278.195 95.578 277.955 95.638C277.727 95.698 277.517 95.776 277.325 95.872C277.133 95.956 276.959 96.058 276.803 96.178C276.647 96.298 276.497 96.412 276.353 96.52L275.381 95.512ZM279.953 98.896C279.569 98.896 279.173 98.92 278.765 98.968C278.369 99.004 278.003 99.082 277.667 99.202C277.343 99.322 277.073 99.49 276.857 99.706C276.653 99.922 276.551 100.198 276.551 100.534C276.551 101.026 276.713 101.38 277.037 101.596C277.373 101.812 277.823 101.92 278.387 101.92C278.831 101.92 279.209 101.848 279.521 101.704C279.833 101.548 280.085 101.35 280.277 101.11C280.469 100.87 280.607 100.606 280.691 100.318C280.775 100.018 280.817 99.724 280.817 99.436V98.896H279.953ZM284.679 94.468H286.299V95.782H286.335C286.539 95.326 286.893 94.96 287.397 94.684C287.901 94.396 288.483 94.252 289.143 94.252C289.551 94.252 289.941 94.318 290.313 94.45C290.697 94.57 291.027 94.762 291.303 95.026C291.591 95.29 291.819 95.632 291.987 96.052C292.155 96.46 292.239 96.946 292.239 97.51V103H290.619V97.96C290.619 97.564 290.565 97.228 290.457 96.952C290.349 96.664 290.205 96.436 290.025 96.268C289.845 96.088 289.635 95.962 289.395 95.89C289.167 95.806 288.927 95.764 288.675 95.764C288.339 95.764 288.027 95.818 287.739 95.926C287.451 96.034 287.199 96.208 286.983 96.448C286.767 96.676 286.599 96.97 286.479 97.33C286.359 97.69 286.299 98.116 286.299 98.608V103H284.679V94.468ZM303.231 103H301.611V101.776H301.575C301.263 102.232 300.831 102.586 300.279 102.838C299.739 103.09 299.181 103.216 298.605 103.216C297.945 103.216 297.345 103.102 296.805 102.874C296.277 102.646 295.821 102.328 295.437 101.92C295.065 101.512 294.777 101.038 294.573 100.498C294.369 99.958 294.267 99.37 294.267 98.734C294.267 98.098 294.369 97.51 294.573 96.97C294.777 96.418 295.065 95.944 295.437 95.548C295.821 95.14 296.277 94.822 296.805 94.594C297.345 94.366 297.945 94.252 298.605 94.252C299.217 94.252 299.793 94.384 300.333 94.648C300.873 94.9 301.287 95.248 301.575 95.692H301.611V89.392H303.231V103ZM298.803 101.704C299.235 101.704 299.625 101.632 299.973 101.488C300.321 101.332 300.615 101.128 300.855 100.876C301.095 100.612 301.281 100.3 301.413 99.94C301.545 99.568 301.611 99.166 301.611 98.734C301.611 98.302 301.545 97.906 301.413 97.546C301.281 97.174 301.095 96.862 300.855 96.61C300.615 96.346 300.321 96.142 299.973 95.998C299.625 95.842 299.235 95.764 298.803 95.764C298.371 95.764 297.981 95.842 297.633 95.998C297.285 96.142 296.991 96.346 296.751 96.61C296.511 96.862 296.325 97.174 296.193 97.546C296.061 97.906 295.995 98.302 295.995 98.734C295.995 99.166 296.061 99.568 296.193 99.94C296.325 100.3 296.511 100.612 296.751 100.876C296.991 101.128 297.285 101.332 297.633 101.488C297.981 101.632 298.371 101.704 298.803 101.704ZM106.407 124.328H104.679V115.256H106.407V124.328ZM104.391 126.92C104.391 126.596 104.505 126.32 104.733 126.092C104.973 125.852 105.255 125.732 105.579 125.732C105.903 125.732 106.179 125.852 106.407 126.092C106.647 126.32 106.767 126.596 106.767 126.92C106.767 127.244 106.647 127.526 106.407 127.766C106.179 127.994 105.903 128.108 105.579 128.108C105.255 128.108 104.973 127.994 104.733 127.766C104.505 127.526 104.391 127.244 104.391 126.92ZM117.398 116.876H113.294V115.256H123.23V116.876H119.126V128H117.398V116.876ZM124.656 114.392H126.276V120.782H126.312C126.516 120.326 126.87 119.96 127.374 119.684C127.878 119.396 128.46 119.252 129.12 119.252C129.528 119.252 129.918 119.318 130.29 119.45C130.674 119.57 131.004 119.762 131.28 120.026C131.568 120.29 131.796 120.632 131.964 121.052C132.132 121.46 132.216 121.946 132.216 122.51V128H130.596V122.96C130.596 122.564 130.542 122.228 130.434 121.952C130.326 121.664 130.182 121.436 130.002 121.268C129.822 121.088 129.612 120.962 129.372 120.89C129.144 120.806 128.904 120.764 128.652 120.764C128.316 120.764 128.004 120.818 127.716 120.926C127.428 121.034 127.176 121.208 126.96 121.448C126.744 121.676 126.576 121.97 126.456 122.33C126.336 122.69 126.276 123.116 126.276 123.608V128H124.656V114.392ZM135.882 124.328C135.882 124.7 135.96 125.042 136.116 125.354C136.284 125.654 136.5 125.912 136.764 126.128C137.028 126.344 137.334 126.512 137.682 126.632C138.03 126.752 138.39 126.812 138.762 126.812C139.266 126.812 139.704 126.698 140.076 126.47C140.448 126.23 140.79 125.918 141.102 125.534L142.326 126.47C141.426 127.634 140.166 128.216 138.546 128.216C137.874 128.216 137.262 128.102 136.71 127.874C136.17 127.646 135.708 127.334 135.324 126.938C134.952 126.53 134.664 126.056 134.46 125.516C134.256 124.964 134.154 124.37 134.154 123.734C134.154 123.098 134.262 122.51 134.478 121.97C134.706 121.418 135.012 120.944 135.396 120.548C135.792 120.14 136.26 119.822 136.8 119.594C137.34 119.366 137.928 119.252 138.564 119.252C139.32 119.252 139.956 119.384 140.472 119.648C141 119.912 141.432 120.26 141.768 120.692C142.104 121.112 142.344 121.592 142.488 122.132C142.644 122.66 142.722 123.2 142.722 123.752V124.328H135.882ZM140.994 123.032C140.982 122.672 140.922 122.342 140.814 122.042C140.718 121.742 140.568 121.484 140.364 121.268C140.16 121.04 139.902 120.866 139.59 120.746C139.29 120.614 138.936 120.548 138.528 120.548C138.132 120.548 137.766 120.626 137.43 120.782C137.106 120.926 136.83 121.118 136.602 121.358C136.374 121.598 136.194 121.868 136.062 122.168C135.942 122.456 135.882 122.744 135.882 123.032H140.994ZM144.786 119.468H146.406V128H144.786V119.468ZM144.408 116.408C144.408 116.084 144.522 115.808 144.75 115.58C144.99 115.34 145.272 115.22 145.596 115.22C145.92 115.22 146.196 115.34 146.424 115.58C146.664 115.808 146.784 116.084 146.784 116.408C146.784 116.732 146.664 117.014 146.424 117.254C146.196 117.482 145.92 117.596 145.596 117.596C145.272 117.596 144.99 117.482 144.75 117.254C144.522 117.014 144.408 116.732 144.408 116.408ZM148.984 119.468H150.604V120.782H150.64C150.748 120.554 150.892 120.35 151.072 120.17C151.252 119.978 151.45 119.816 151.666 119.684C151.894 119.552 152.14 119.45 152.404 119.378C152.668 119.294 152.932 119.252 153.196 119.252C153.46 119.252 153.7 119.288 153.916 119.36L153.844 121.106C153.712 121.07 153.58 121.04 153.448 121.016C153.316 120.992 153.184 120.98 153.052 120.98C152.26 120.98 151.654 121.202 151.234 121.646C150.814 122.09 150.604 122.78 150.604 123.716V128H148.984V119.468ZM161.88 124.328C161.88 124.7 161.958 125.042 162.114 125.354C162.282 125.654 162.498 125.912 162.762 126.128C163.026 126.344 163.332 126.512 163.68 126.632C164.028 126.752 164.388 126.812 164.76 126.812C165.264 126.812 165.702 126.698 166.074 126.47C166.446 126.23 166.788 125.918 167.1 125.534L168.324 126.47C167.424 127.634 166.164 128.216 164.544 128.216C163.872 128.216 163.26 128.102 162.708 127.874C162.168 127.646 161.706 127.334 161.322 126.938C160.95 126.53 160.662 126.056 160.458 125.516C160.254 124.964 160.152 124.37 160.152 123.734C160.152 123.098 160.26 122.51 160.476 121.97C160.704 121.418 161.01 120.944 161.394 120.548C161.79 120.14 162.258 119.822 162.798 119.594C163.338 119.366 163.926 119.252 164.562 119.252C165.318 119.252 165.954 119.384 166.47 119.648C166.998 119.912 167.43 120.26 167.766 120.692C168.102 121.112 168.342 121.592 168.486 122.132C168.642 122.66 168.72 123.2 168.72 123.752V124.328H161.88ZM166.992 123.032C166.98 122.672 166.92 122.342 166.812 122.042C166.716 121.742 166.566 121.484 166.362 121.268C166.158 121.04 165.9 120.866 165.588 120.746C165.288 120.614 164.934 120.548 164.526 120.548C164.13 120.548 163.764 120.626 163.428 120.782C163.104 120.926 162.828 121.118 162.6 121.358C162.372 121.598 162.192 121.868 162.06 122.168C161.94 122.456 161.88 122.744 161.88 123.032H166.992ZM170.658 119.468H172.17V120.8H172.206C172.242 120.68 172.332 120.53 172.476 120.35C172.632 120.17 172.824 120.002 173.052 119.846C173.292 119.678 173.568 119.54 173.88 119.432C174.204 119.312 174.558 119.252 174.942 119.252C175.578 119.252 176.112 119.384 176.544 119.648C176.976 119.912 177.33 120.308 177.606 120.836C177.882 120.308 178.272 119.912 178.776 119.648C179.28 119.384 179.79 119.252 180.306 119.252C180.966 119.252 181.506 119.36 181.926 119.576C182.346 119.792 182.676 120.08 182.916 120.44C183.156 120.788 183.318 121.19 183.402 121.646C183.498 122.09 183.546 122.552 183.546 123.032V128H181.926V123.248C181.926 122.924 181.902 122.612 181.854 122.312C181.818 122.012 181.734 121.748 181.602 121.52C181.47 121.292 181.284 121.112 181.044 120.98C180.804 120.836 180.486 120.764 180.09 120.764C179.31 120.764 178.752 121.004 178.416 121.484C178.08 121.964 177.912 122.582 177.912 123.338V128H176.292V123.536C176.292 123.128 176.268 122.756 176.22 122.42C176.184 122.084 176.1 121.796 175.968 121.556C175.848 121.304 175.668 121.112 175.428 120.98C175.2 120.836 174.888 120.764 174.492 120.764C174.204 120.764 173.922 120.824 173.646 120.944C173.382 121.052 173.148 121.22 172.944 121.448C172.74 121.676 172.578 121.97 172.458 122.33C172.338 122.678 172.278 123.092 172.278 123.572V128H170.658V119.468ZM187.3 123.734C187.3 124.166 187.366 124.568 187.498 124.94C187.63 125.3 187.816 125.612 188.056 125.876C188.296 126.128 188.59 126.332 188.938 126.488C189.286 126.632 189.676 126.704 190.108 126.704C190.54 126.704 190.93 126.632 191.278 126.488C191.626 126.332 191.92 126.128 192.16 125.876C192.4 125.612 192.586 125.3 192.718 124.94C192.85 124.568 192.916 124.166 192.916 123.734C192.916 123.302 192.85 122.906 192.718 122.546C192.586 122.174 192.4 121.862 192.16 121.61C191.92 121.346 191.626 121.142 191.278 120.998C190.93 120.842 190.54 120.764 190.108 120.764C189.676 120.764 189.286 120.842 188.938 120.998C188.59 121.142 188.296 121.346 188.056 121.61C187.816 121.862 187.63 122.174 187.498 122.546C187.366 122.906 187.3 123.302 187.3 123.734ZM185.572 123.734C185.572 123.11 185.686 122.528 185.914 121.988C186.154 121.448 186.478 120.974 186.886 120.566C187.294 120.158 187.774 119.84 188.326 119.612C188.878 119.372 189.472 119.252 190.108 119.252C190.744 119.252 191.338 119.372 191.89 119.612C192.442 119.84 192.922 120.158 193.33 120.566C193.738 120.974 194.056 121.448 194.284 121.988C194.524 122.528 194.644 123.11 194.644 123.734C194.644 124.358 194.524 124.946 194.284 125.498C194.056 126.038 193.738 126.512 193.33 126.92C192.922 127.316 192.442 127.634 191.89 127.874C191.338 128.102 190.744 128.216 190.108 128.216C189.472 128.216 188.878 128.102 188.326 127.874C187.774 127.634 187.294 127.316 186.886 126.92C186.478 126.512 186.154 126.038 185.914 125.498C185.686 124.946 185.572 124.358 185.572 123.734ZM201.246 120.872H198.924V124.742C198.924 124.982 198.93 125.222 198.942 125.462C198.954 125.69 198.996 125.9 199.068 126.092C199.152 126.272 199.272 126.422 199.428 126.542C199.596 126.65 199.836 126.704 200.148 126.704C200.34 126.704 200.538 126.686 200.742 126.65C200.946 126.614 201.132 126.548 201.3 126.452V127.928C201.108 128.036 200.856 128.108 200.544 128.144C200.244 128.192 200.01 128.216 199.842 128.216C199.218 128.216 198.732 128.132 198.384 127.964C198.048 127.784 197.796 127.556 197.628 127.28C197.472 127.004 197.376 126.698 197.34 126.362C197.316 126.014 197.304 125.666 197.304 125.318V120.872H195.432V119.468H197.304V117.074H198.924V119.468H201.246V120.872ZM203.462 119.468H205.082V128H203.462V119.468ZM203.084 116.408C203.084 116.084 203.198 115.808 203.426 115.58C203.666 115.34 203.948 115.22 204.272 115.22C204.596 115.22 204.872 115.34 205.1 115.58C205.34 115.808 205.46 116.084 205.46 116.408C205.46 116.732 205.34 117.014 205.1 117.254C204.872 117.482 204.596 117.596 204.272 117.596C203.948 117.596 203.666 117.482 203.426 117.254C203.198 117.014 203.084 116.732 203.084 116.408ZM208.974 123.734C208.974 124.166 209.04 124.568 209.172 124.94C209.304 125.3 209.49 125.612 209.73 125.876C209.97 126.128 210.264 126.332 210.612 126.488C210.96 126.632 211.35 126.704 211.782 126.704C212.214 126.704 212.604 126.632 212.952 126.488C213.3 126.332 213.594 126.128 213.834 125.876C214.074 125.612 214.26 125.3 214.392 124.94C214.524 124.568 214.59 124.166 214.59 123.734C214.59 123.302 214.524 122.906 214.392 122.546C214.26 122.174 214.074 121.862 213.834 121.61C213.594 121.346 213.3 121.142 212.952 120.998C212.604 120.842 212.214 120.764 211.782 120.764C211.35 120.764 210.96 120.842 210.612 120.998C210.264 121.142 209.97 121.346 209.73 121.61C209.49 121.862 209.304 122.174 209.172 122.546C209.04 122.906 208.974 123.302 208.974 123.734ZM207.246 123.734C207.246 123.11 207.36 122.528 207.588 121.988C207.828 121.448 208.152 120.974 208.56 120.566C208.968 120.158 209.448 119.84 210 119.612C210.552 119.372 211.146 119.252 211.782 119.252C212.418 119.252 213.012 119.372 213.564 119.612C214.116 119.84 214.596 120.158 215.004 120.566C215.412 120.974 215.73 121.448 215.958 121.988C216.198 122.528 216.318 123.11 216.318 123.734C216.318 124.358 216.198 124.946 215.958 125.498C215.73 126.038 215.412 126.512 215.004 126.92C214.596 127.316 214.116 127.634 213.564 127.874C213.012 128.102 212.418 128.216 211.782 128.216C211.146 128.216 210.552 128.102 210 127.874C209.448 127.634 208.968 127.316 208.56 126.92C208.152 126.512 207.828 126.038 207.588 125.498C207.36 124.946 207.246 124.358 207.246 123.734ZM218.348 119.468H219.968V120.782H220.004C220.208 120.326 220.562 119.96 221.066 119.684C221.57 119.396 222.152 119.252 222.812 119.252C223.22 119.252 223.61 119.318 223.982 119.45C224.366 119.57 224.696 119.762 224.972 120.026C225.26 120.29 225.488 120.632 225.656 121.052C225.824 121.46 225.908 121.946 225.908 122.51V128H224.288V122.96C224.288 122.564 224.234 122.228 224.126 121.952C224.018 121.664 223.874 121.436 223.694 121.268C223.514 121.088 223.304 120.962 223.064 120.89C222.836 120.806 222.596 120.764 222.344 120.764C222.008 120.764 221.696 120.818 221.408 120.926C221.12 121.034 220.868 121.208 220.652 121.448C220.436 121.676 220.268 121.97 220.148 122.33C220.028 122.69 219.968 123.116 219.968 123.608V128H218.348V119.468ZM233.485 119.468H235.105V128H233.485V119.468ZM233.107 116.408C233.107 116.084 233.221 115.808 233.449 115.58C233.689 115.34 233.971 115.22 234.295 115.22C234.619 115.22 234.895 115.34 235.123 115.58C235.363 115.808 235.483 116.084 235.483 116.408C235.483 116.732 235.363 117.014 235.123 117.254C234.895 117.482 234.619 117.596 234.295 117.596C233.971 117.596 233.689 117.482 233.449 117.254C233.221 117.014 233.107 116.732 233.107 116.408ZM242.219 121.61C242.027 121.37 241.787 121.172 241.499 121.016C241.223 120.848 240.881 120.764 240.473 120.764C240.089 120.764 239.753 120.848 239.465 121.016C239.189 121.172 239.051 121.406 239.051 121.718C239.051 121.97 239.129 122.174 239.285 122.33C239.453 122.486 239.645 122.612 239.861 122.708C240.089 122.804 240.329 122.876 240.581 122.924C240.833 122.972 241.049 123.014 241.229 123.05C241.577 123.134 241.901 123.236 242.201 123.356C242.513 123.476 242.777 123.632 242.993 123.824C243.221 124.016 243.395 124.25 243.515 124.526C243.647 124.802 243.713 125.138 243.713 125.534C243.713 126.014 243.611 126.428 243.407 126.776C243.203 127.112 242.939 127.388 242.615 127.604C242.291 127.82 241.919 127.976 241.499 128.072C241.091 128.168 240.677 128.216 240.257 128.216C239.549 128.216 238.925 128.108 238.385 127.892C237.857 127.676 237.383 127.28 236.963 126.704L238.187 125.696C238.451 125.96 238.745 126.194 239.069 126.398C239.393 126.602 239.789 126.704 240.257 126.704C240.461 126.704 240.665 126.686 240.869 126.65C241.085 126.602 241.271 126.536 241.427 126.452C241.595 126.356 241.727 126.242 241.823 126.11C241.931 125.966 241.985 125.804 241.985 125.624C241.985 125.384 241.907 125.186 241.751 125.03C241.607 124.874 241.427 124.754 241.211 124.67C241.007 124.574 240.785 124.502 240.545 124.454C240.317 124.394 240.113 124.346 239.933 124.31C239.585 124.226 239.255 124.13 238.943 124.022C238.631 123.914 238.355 123.77 238.115 123.59C237.875 123.41 237.683 123.182 237.539 122.906C237.395 122.63 237.323 122.288 237.323 121.88C237.323 121.436 237.413 121.052 237.593 120.728C237.785 120.392 238.031 120.116 238.331 119.9C238.643 119.684 238.991 119.522 239.375 119.414C239.771 119.306 240.167 119.252 240.563 119.252C241.139 119.252 241.691 119.36 242.219 119.576C242.747 119.792 243.167 120.152 243.479 120.656L242.219 121.61ZM255.263 120.872H252.941V124.742C252.941 124.982 252.947 125.222 252.959 125.462C252.971 125.69 253.013 125.9 253.085 126.092C253.169 126.272 253.289 126.422 253.445 126.542C253.613 126.65 253.853 126.704 254.165 126.704C254.357 126.704 254.555 126.686 254.759 126.65C254.963 126.614 255.149 126.548 255.317 126.452V127.928C255.125 128.036 254.873 128.108 254.561 128.144C254.261 128.192 254.027 128.216 253.859 128.216C253.235 128.216 252.749 128.132 252.401 127.964C252.065 127.784 251.813 127.556 251.645 127.28C251.489 127.004 251.393 126.698 251.357 126.362C251.333 126.014 251.321 125.666 251.321 125.318V120.872H249.449V119.468H251.321V117.074H252.941V119.468H255.263V120.872ZM257.353 114.392H258.973V120.782H259.009C259.213 120.326 259.567 119.96 260.071 119.684C260.575 119.396 261.157 119.252 261.817 119.252C262.225 119.252 262.615 119.318 262.987 119.45C263.371 119.57 263.701 119.762 263.977 120.026C264.265 120.29 264.493 120.632 264.661 121.052C264.829 121.46 264.913 121.946 264.913 122.51V128H263.293V122.96C263.293 122.564 263.239 122.228 263.131 121.952C263.023 121.664 262.879 121.436 262.699 121.268C262.519 121.088 262.309 120.962 262.069 120.89C261.841 120.806 261.601 120.764 261.349 120.764C261.013 120.764 260.701 120.818 260.413 120.926C260.125 121.034 259.873 121.208 259.657 121.448C259.441 121.676 259.273 121.97 259.153 122.33C259.033 122.69 258.973 123.116 258.973 123.608V128H257.353V114.392ZM268.579 124.328C268.579 124.7 268.657 125.042 268.813 125.354C268.981 125.654 269.197 125.912 269.461 126.128C269.725 126.344 270.031 126.512 270.379 126.632C270.727 126.752 271.087 126.812 271.459 126.812C271.963 126.812 272.401 126.698 272.773 126.47C273.145 126.23 273.487 125.918 273.799 125.534L275.023 126.47C274.123 127.634 272.863 128.216 271.243 128.216C270.571 128.216 269.959 128.102 269.407 127.874C268.867 127.646 268.405 127.334 268.021 126.938C267.649 126.53 267.361 126.056 267.157 125.516C266.953 124.964 266.851 124.37 266.851 123.734C266.851 123.098 266.959 122.51 267.175 121.97C267.403 121.418 267.709 120.944 268.093 120.548C268.489 120.14 268.957 119.822 269.497 119.594C270.037 119.366 270.625 119.252 271.261 119.252C272.017 119.252 272.653 119.384 273.169 119.648C273.697 119.912 274.129 120.26 274.465 120.692C274.801 121.112 275.041 121.592 275.185 122.132C275.341 122.66 275.419 123.2 275.419 123.752V124.328H268.579ZM273.691 123.032C273.679 122.672 273.619 122.342 273.511 122.042C273.415 121.742 273.265 121.484 273.061 121.268C272.857 121.04 272.599 120.866 272.287 120.746C271.987 120.614 271.633 120.548 271.225 120.548C270.829 120.548 270.463 120.626 270.127 120.782C269.803 120.926 269.527 121.118 269.299 121.358C269.071 121.598 268.891 121.868 268.759 122.168C268.639 122.456 268.579 122.744 268.579 123.032H273.691ZM277.483 119.468H279.103V128H277.483V119.468ZM277.105 116.408C277.105 116.084 277.219 115.808 277.447 115.58C277.687 115.34 277.969 115.22 278.293 115.22C278.617 115.22 278.893 115.34 279.121 115.58C279.361 115.808 279.481 116.084 279.481 116.408C279.481 116.732 279.361 117.014 279.121 117.254C278.893 117.482 278.617 117.596 278.293 117.596C277.969 117.596 277.687 117.482 277.447 117.254C277.219 117.014 277.105 116.732 277.105 116.408ZM281.682 119.468H283.302V120.782H283.338C283.446 120.554 283.59 120.35 283.77 120.17C283.95 119.978 284.148 119.816 284.364 119.684C284.592 119.552 284.838 119.45 285.102 119.378C285.366 119.294 285.63 119.252 285.894 119.252C286.158 119.252 286.398 119.288 286.614 119.36L286.542 121.106C286.41 121.07 286.278 121.04 286.146 121.016C286.014 120.992 285.882 120.98 285.75 120.98C284.958 120.98 284.352 121.202 283.932 121.646C283.512 122.09 283.302 122.78 283.302 123.716V128H281.682V119.468ZM59.6794 146.61C59.4874 146.37 59.2474 146.172 58.9594 146.016C58.6834 145.848 58.3414 145.764 57.9334 145.764C57.5494 145.764 57.2134 145.848 56.9254 146.016C56.6494 146.172 56.5114 146.406 56.5114 146.718C56.5114 146.97 56.5894 147.174 56.7454 147.33C56.9134 147.486 57.1054 147.612 57.3214 147.708C57.5494 147.804 57.7894 147.876 58.0414 147.924C58.2934 147.972 58.5094 148.014 58.6894 148.05C59.0374 148.134 59.3614 148.236 59.6614 148.356C59.9734 148.476 60.2374 148.632 60.4534 148.824C60.6814 149.016 60.8554 149.25 60.9754 149.526C61.1074 149.802 61.1734 150.138 61.1734 150.534C61.1734 151.014 61.0714 151.428 60.8674 151.776C60.6634 152.112 60.3994 152.388 60.0754 152.604C59.7514 152.82 59.3794 152.976 58.9594 153.072C58.5514 153.168 58.1374 153.216 57.7174 153.216C57.0094 153.216 56.3854 153.108 55.8454 152.892C55.3174 152.676 54.8434 152.28 54.4234 151.704L55.6474 150.696C55.9114 150.96 56.2054 151.194 56.5294 151.398C56.8534 151.602 57.2494 151.704 57.7174 151.704C57.9214 151.704 58.1254 151.686 58.3294 151.65C58.5454 151.602 58.7314 151.536 58.8874 151.452C59.0554 151.356 59.1874 151.242 59.2834 151.11C59.3914 150.966 59.4454 150.804 59.4454 150.624C59.4454 150.384 59.3674 150.186 59.2114 150.03C59.0674 149.874 58.8874 149.754 58.6714 149.67C58.4674 149.574 58.2454 149.502 58.0054 149.454C57.7774 149.394 57.5734 149.346 57.3934 149.31C57.0454 149.226 56.7154 149.13 56.4034 149.022C56.0914 148.914 55.8154 148.77 55.5754 148.59C55.3354 148.41 55.1434 148.182 54.9994 147.906C54.8554 147.63 54.7834 147.288 54.7834 146.88C54.7834 146.436 54.8734 146.052 55.0534 145.728C55.2454 145.392 55.4914 145.116 55.7914 144.9C56.1034 144.684 56.4514 144.522 56.8354 144.414C57.2314 144.306 57.6274 144.252 58.0234 144.252C58.5994 144.252 59.1514 144.36 59.6794 144.576C60.2074 144.792 60.6274 145.152 60.9394 145.656L59.6794 146.61ZM67.7135 145.872H65.3915V149.742C65.3915 149.982 65.3975 150.222 65.4095 150.462C65.4215 150.69 65.4635 150.9 65.5355 151.092C65.6195 151.272 65.7395 151.422 65.8955 151.542C66.0635 151.65 66.3035 151.704 66.6155 151.704C66.8075 151.704 67.0055 151.686 67.2095 151.65C67.4135 151.614 67.5995 151.548 67.7675 151.452V152.928C67.5755 153.036 67.3235 153.108 67.0115 153.144C66.7115 153.192 66.4775 153.216 66.3095 153.216C65.6855 153.216 65.1995 153.132 64.8515 152.964C64.5155 152.784 64.2635 152.556 64.0955 152.28C63.9395 152.004 63.8435 151.698 63.8075 151.362C63.7835 151.014 63.7715 150.666 63.7715 150.318V145.872H61.8995V144.468H63.7715V142.074H65.3915V144.468H67.7135V145.872ZM69.8036 144.468H71.4236V145.782H71.4596C71.5676 145.554 71.7116 145.35 71.8916 145.17C72.0716 144.978 72.2696 144.816 72.4856 144.684C72.7136 144.552 72.9596 144.45 73.2236 144.378C73.4876 144.294 73.7516 144.252 74.0156 144.252C74.2796 144.252 74.5196 144.288 74.7356 144.36L74.6636 146.106C74.5316 146.07 74.3996 146.04 74.2676 146.016C74.1356 145.992 74.0036 145.98 73.8716 145.98C73.0796 145.98 72.4736 146.202 72.0536 146.646C71.6336 147.09 71.4236 147.78 71.4236 148.716V153H69.8036V144.468ZM77.3733 149.328C77.3733 149.7 77.4513 150.042 77.6073 150.354C77.7753 150.654 77.9913 150.912 78.2553 151.128C78.5193 151.344 78.8253 151.512 79.1733 151.632C79.5213 151.752 79.8813 151.812 80.2533 151.812C80.7573 151.812 81.1953 151.698 81.5673 151.47C81.9393 151.23 82.2813 150.918 82.5933 150.534L83.8173 151.47C82.9173 152.634 81.6573 153.216 80.0373 153.216C79.3653 153.216 78.7533 153.102 78.2013 152.874C77.6613 152.646 77.1993 152.334 76.8153 151.938C76.4433 151.53 76.1553 151.056 75.9513 150.516C75.7473 149.964 75.6453 149.37 75.6453 148.734C75.6453 148.098 75.7533 147.51 75.9693 146.97C76.1973 146.418 76.5033 145.944 76.8873 145.548C77.2833 145.14 77.7513 144.822 78.2913 144.594C78.8313 144.366 79.4193 144.252 80.0553 144.252C80.8113 144.252 81.4473 144.384 81.9633 144.648C82.4913 144.912 82.9233 145.26 83.2593 145.692C83.5953 146.112 83.8353 146.592 83.9793 147.132C84.1353 147.66 84.2133 148.2 84.2133 148.752V149.328H77.3733ZM82.4853 148.032C82.4733 147.672 82.4133 147.342 82.3053 147.042C82.2093 146.742 82.0593 146.484 81.8553 146.268C81.6513 146.04 81.3933 145.866 81.0813 145.746C80.7813 145.614 80.4273 145.548 80.0193 145.548C79.6233 145.548 79.2573 145.626 78.9213 145.782C78.5973 145.926 78.3213 146.118 78.0933 146.358C77.8653 146.598 77.6853 146.868 77.5533 147.168C77.4333 147.456 77.3733 147.744 77.3733 148.032H82.4853ZM86.1512 144.468H87.7712V145.782H87.8072C88.0112 145.326 88.3652 144.96 88.8692 144.684C89.3732 144.396 89.9552 144.252 90.6152 144.252C91.0232 144.252 91.4132 144.318 91.7852 144.45C92.1692 144.57 92.4992 144.762 92.7752 145.026C93.0632 145.29 93.2912 145.632 93.4592 146.052C93.6272 146.46 93.7112 146.946 93.7112 147.51V153H92.0912V147.96C92.0912 147.564 92.0372 147.228 91.9292 146.952C91.8212 146.664 91.6772 146.436 91.4972 146.268C91.3172 146.088 91.1072 145.962 90.8672 145.89C90.6392 145.806 90.3992 145.764 90.1472 145.764C89.8112 145.764 89.4992 145.818 89.2112 145.926C88.9232 146.034 88.6712 146.208 88.4552 146.448C88.2392 146.676 88.0712 146.97 87.9512 147.33C87.8312 147.69 87.7712 148.116 87.7712 148.608V153H86.1512V144.468ZM104.703 152.928C104.703 153.576 104.589 154.164 104.361 154.692C104.145 155.232 103.833 155.694 103.425 156.078C103.017 156.474 102.525 156.78 101.949 156.996C101.373 157.212 100.737 157.32 100.041 157.32C99.2252 157.32 98.4752 157.206 97.7912 156.978C97.1192 156.75 96.4772 156.354 95.8652 155.79L96.9632 154.422C97.3832 154.878 97.8392 155.22 98.3312 155.448C98.8232 155.688 99.3812 155.808 100.005 155.808C100.605 155.808 101.103 155.718 101.499 155.538C101.895 155.37 102.207 155.148 102.435 154.872C102.675 154.596 102.843 154.278 102.939 153.918C103.035 153.57 103.083 153.216 103.083 152.856V151.596H103.029C102.717 152.112 102.291 152.496 101.751 152.748C101.223 152.988 100.665 153.108 100.077 153.108C99.4532 153.108 98.8712 153 98.3312 152.784C97.8032 152.556 97.3472 152.25 96.9632 151.866C96.5792 151.47 96.2792 151.008 96.0632 150.48C95.8472 149.94 95.7392 149.358 95.7392 148.734C95.7392 148.11 95.8412 147.528 96.0452 146.988C96.2492 146.436 96.5372 145.956 96.9092 145.548C97.2932 145.14 97.7492 144.822 98.2772 144.594C98.8172 144.366 99.4172 144.252 100.077 144.252C100.653 144.252 101.211 144.378 101.751 144.63C102.303 144.882 102.735 145.236 103.047 145.692H103.083V144.468H104.703V152.928ZM100.275 145.764C99.8432 145.764 99.4532 145.842 99.1052 145.998C98.7572 146.142 98.4632 146.346 98.2232 146.61C97.9832 146.862 97.7972 147.174 97.6652 147.546C97.5332 147.906 97.4672 148.302 97.4672 148.734C97.4672 149.598 97.7192 150.294 98.2232 150.822C98.7272 151.338 99.4112 151.596 100.275 151.596C101.139 151.596 101.823 151.338 102.327 150.822C102.831 150.294 103.083 149.598 103.083 148.734C103.083 148.302 103.017 147.906 102.885 147.546C102.753 147.174 102.567 146.862 102.327 146.61C102.087 146.346 101.793 146.142 101.445 145.998C101.097 145.842 100.707 145.764 100.275 145.764ZM111.729 145.872H109.407V149.742C109.407 149.982 109.413 150.222 109.425 150.462C109.437 150.69 109.479 150.9 109.551 151.092C109.635 151.272 109.755 151.422 109.911 151.542C110.079 151.65 110.319 151.704 110.631 151.704C110.823 151.704 111.021 151.686 111.225 151.65C111.429 151.614 111.615 151.548 111.783 151.452V152.928C111.591 153.036 111.339 153.108 111.027 153.144C110.727 153.192 110.493 153.216 110.325 153.216C109.701 153.216 109.215 153.132 108.867 152.964C108.531 152.784 108.279 152.556 108.111 152.28C107.955 152.004 107.859 151.698 107.823 151.362C107.799 151.014 107.787 150.666 107.787 150.318V145.872H105.915V144.468H107.787V142.074H109.407V144.468H111.729V145.872ZM113.819 139.392H115.439V145.782H115.475C115.679 145.326 116.033 144.96 116.537 144.684C117.041 144.396 117.623 144.252 118.283 144.252C118.691 144.252 119.081 144.318 119.453 144.45C119.837 144.57 120.167 144.762 120.443 145.026C120.731 145.29 120.959 145.632 121.127 146.052C121.295 146.46 121.379 146.946 121.379 147.51V153H119.759V147.96C119.759 147.564 119.705 147.228 119.597 146.952C119.489 146.664 119.345 146.436 119.165 146.268C118.985 146.088 118.775 145.962 118.535 145.89C118.307 145.806 118.067 145.764 117.815 145.764C117.479 145.764 117.167 145.818 116.879 145.926C116.591 146.034 116.339 146.208 116.123 146.448C115.907 146.676 115.739 146.97 115.619 147.33C115.499 147.69 115.439 148.116 115.439 148.608V153H113.819V139.392ZM128.957 144.468H130.577V153H128.957V144.468ZM128.579 141.408C128.579 141.084 128.693 140.808 128.921 140.58C129.161 140.34 129.443 140.22 129.767 140.22C130.091 140.22 130.367 140.34 130.595 140.58C130.835 140.808 130.955 141.084 130.955 141.408C130.955 141.732 130.835 142.014 130.595 142.254C130.367 142.482 130.091 142.596 129.767 142.596C129.443 142.596 129.161 142.482 128.921 142.254C128.693 142.014 128.579 141.732 128.579 141.408ZM133.155 144.468H134.775V145.782H134.811C135.015 145.326 135.369 144.96 135.873 144.684C136.377 144.396 136.959 144.252 137.619 144.252C138.027 144.252 138.417 144.318 138.789 144.45C139.173 144.57 139.503 144.762 139.779 145.026C140.067 145.29 140.295 145.632 140.463 146.052C140.631 146.46 140.715 146.946 140.715 147.51V153H139.095V147.96C139.095 147.564 139.041 147.228 138.933 146.952C138.825 146.664 138.681 146.436 138.501 146.268C138.321 146.088 138.111 145.962 137.871 145.89C137.643 145.806 137.403 145.764 137.151 145.764C136.815 145.764 136.503 145.818 136.215 145.926C135.927 146.034 135.675 146.208 135.459 146.448C135.243 146.676 135.075 146.97 134.955 147.33C134.835 147.69 134.775 148.116 134.775 148.608V153H133.155V144.468ZM148.167 139.392H149.787V145.782H149.823C150.027 145.326 150.381 144.96 150.885 144.684C151.389 144.396 151.971 144.252 152.631 144.252C153.039 144.252 153.429 144.318 153.801 144.45C154.185 144.57 154.515 144.762 154.791 145.026C155.079 145.29 155.307 145.632 155.475 146.052C155.643 146.46 155.727 146.946 155.727 147.51V153H154.107V147.96C154.107 147.564 154.053 147.228 153.945 146.952C153.837 146.664 153.693 146.436 153.513 146.268C153.333 146.088 153.123 145.962 152.883 145.89C152.655 145.806 152.415 145.764 152.163 145.764C151.827 145.764 151.515 145.818 151.227 145.926C150.939 146.034 150.687 146.208 150.471 146.448C150.255 146.676 150.087 146.97 149.967 147.33C149.847 147.69 149.787 148.116 149.787 148.608V153H148.167V139.392ZM158.205 145.512C158.661 145.092 159.189 144.78 159.789 144.576C160.389 144.36 160.989 144.252 161.589 144.252C162.213 144.252 162.747 144.33 163.191 144.486C163.647 144.642 164.019 144.852 164.307 145.116C164.595 145.38 164.805 145.686 164.937 146.034C165.081 146.37 165.153 146.724 165.153 147.096V151.452C165.153 151.752 165.159 152.028 165.171 152.28C165.183 152.532 165.201 152.772 165.225 153H163.785C163.749 152.568 163.731 152.136 163.731 151.704H163.695C163.335 152.256 162.909 152.646 162.417 152.874C161.925 153.102 161.355 153.216 160.707 153.216C160.311 153.216 159.933 153.162 159.573 153.054C159.213 152.946 158.895 152.784 158.619 152.568C158.355 152.352 158.145 152.088 157.989 151.776C157.833 151.452 157.755 151.08 157.755 150.66C157.755 150.108 157.875 149.646 158.115 149.274C158.367 148.902 158.703 148.602 159.123 148.374C159.555 148.134 160.053 147.966 160.617 147.87C161.193 147.762 161.805 147.708 162.453 147.708H163.641V147.348C163.641 147.132 163.599 146.916 163.515 146.7C163.431 146.484 163.305 146.292 163.137 146.124C162.969 145.944 162.759 145.806 162.507 145.71C162.255 145.602 161.955 145.548 161.607 145.548C161.295 145.548 161.019 145.578 160.779 145.638C160.551 145.698 160.341 145.776 160.149 145.872C159.957 145.956 159.783 146.058 159.627 146.178C159.471 146.298 159.321 146.412 159.177 146.52L158.205 145.512ZM162.777 148.896C162.393 148.896 161.997 148.92 161.589 148.968C161.193 149.004 160.827 149.082 160.491 149.202C160.167 149.322 159.897 149.49 159.681 149.706C159.477 149.922 159.375 150.198 159.375 150.534C159.375 151.026 159.537 151.38 159.861 151.596C160.197 151.812 160.647 151.92 161.211 151.92C161.655 151.92 162.033 151.848 162.345 151.704C162.657 151.548 162.909 151.35 163.101 151.11C163.293 150.87 163.431 150.606 163.515 150.318C163.599 150.018 163.641 149.724 163.641 149.436V148.896H162.777ZM167.503 144.468H169.123V145.782H169.159C169.363 145.326 169.717 144.96 170.221 144.684C170.725 144.396 171.307 144.252 171.967 144.252C172.375 144.252 172.765 144.318 173.137 144.45C173.521 144.57 173.851 144.762 174.127 145.026C174.415 145.29 174.643 145.632 174.811 146.052C174.979 146.46 175.063 146.946 175.063 147.51V153H173.443V147.96C173.443 147.564 173.389 147.228 173.281 146.952C173.173 146.664 173.029 146.436 172.849 146.268C172.669 146.088 172.459 145.962 172.219 145.89C171.991 145.806 171.751 145.764 171.499 145.764C171.163 145.764 170.851 145.818 170.563 145.926C170.275 146.034 170.023 146.208 169.807 146.448C169.591 146.676 169.423 146.97 169.303 147.33C169.183 147.69 169.123 148.116 169.123 148.608V153H167.503V144.468ZM186.055 153H184.435V151.776H184.399C184.087 152.232 183.655 152.586 183.103 152.838C182.563 153.09 182.005 153.216 181.429 153.216C180.769 153.216 180.169 153.102 179.629 152.874C179.101 152.646 178.645 152.328 178.261 151.92C177.889 151.512 177.601 151.038 177.397 150.498C177.193 149.958 177.091 149.37 177.091 148.734C177.091 148.098 177.193 147.51 177.397 146.97C177.601 146.418 177.889 145.944 178.261 145.548C178.645 145.14 179.101 144.822 179.629 144.594C180.169 144.366 180.769 144.252 181.429 144.252C182.041 144.252 182.617 144.384 183.157 144.648C183.697 144.9 184.111 145.248 184.399 145.692H184.435V139.392H186.055V153ZM181.627 151.704C182.059 151.704 182.449 151.632 182.797 151.488C183.145 151.332 183.439 151.128 183.679 150.876C183.919 150.612 184.105 150.3 184.237 149.94C184.369 149.568 184.435 149.166 184.435 148.734C184.435 148.302 184.369 147.906 184.237 147.546C184.105 147.174 183.919 146.862 183.679 146.61C183.439 146.346 183.145 146.142 182.797 145.998C182.449 145.842 182.059 145.764 181.627 145.764C181.195 145.764 180.805 145.842 180.457 145.998C180.109 146.142 179.815 146.346 179.575 146.61C179.335 146.862 179.149 147.174 179.017 147.546C178.885 147.906 178.819 148.302 178.819 148.734C178.819 149.166 178.885 149.568 179.017 149.94C179.149 150.3 179.335 150.612 179.575 150.876C179.815 151.128 180.109 151.332 180.457 151.488C180.805 151.632 181.195 151.704 181.627 151.704ZM188.635 139.392H190.255V153H188.635V139.392ZM192.959 144.468H194.579V153H192.959V144.468ZM192.581 141.408C192.581 141.084 192.695 140.808 192.923 140.58C193.163 140.34 193.445 140.22 193.769 140.22C194.093 140.22 194.369 140.34 194.597 140.58C194.837 140.808 194.957 141.084 194.957 141.408C194.957 141.732 194.837 142.014 194.597 142.254C194.369 142.482 194.093 142.596 193.769 142.596C193.445 142.596 193.163 142.482 192.923 142.254C192.695 142.014 192.581 141.732 192.581 141.408ZM197.157 144.468H198.777V145.782H198.813C199.017 145.326 199.371 144.96 199.875 144.684C200.379 144.396 200.961 144.252 201.621 144.252C202.029 144.252 202.419 144.318 202.791 144.45C203.175 144.57 203.505 144.762 203.781 145.026C204.069 145.29 204.297 145.632 204.465 146.052C204.633 146.46 204.717 146.946 204.717 147.51V153H203.097V147.96C203.097 147.564 203.043 147.228 202.935 146.952C202.827 146.664 202.683 146.436 202.503 146.268C202.323 146.088 202.113 145.962 201.873 145.89C201.645 145.806 201.405 145.764 201.153 145.764C200.817 145.764 200.505 145.818 200.217 145.926C199.929 146.034 199.677 146.208 199.461 146.448C199.245 146.676 199.077 146.97 198.957 147.33C198.837 147.69 198.777 148.116 198.777 148.608V153H197.157V144.468ZM215.709 152.928C215.709 153.576 215.595 154.164 215.367 154.692C215.151 155.232 214.839 155.694 214.431 156.078C214.023 156.474 213.531 156.78 212.955 156.996C212.379 157.212 211.743 157.32 211.047 157.32C210.231 157.32 209.481 157.206 208.797 156.978C208.125 156.75 207.483 156.354 206.871 155.79L207.969 154.422C208.389 154.878 208.845 155.22 209.337 155.448C209.829 155.688 210.387 155.808 211.011 155.808C211.611 155.808 212.109 155.718 212.505 155.538C212.901 155.37 213.213 155.148 213.441 154.872C213.681 154.596 213.849 154.278 213.945 153.918C214.041 153.57 214.089 153.216 214.089 152.856V151.596H214.035C213.723 152.112 213.297 152.496 212.757 152.748C212.229 152.988 211.671 153.108 211.083 153.108C210.459 153.108 209.877 153 209.337 152.784C208.809 152.556 208.353 152.25 207.969 151.866C207.585 151.47 207.285 151.008 207.069 150.48C206.853 149.94 206.745 149.358 206.745 148.734C206.745 148.11 206.847 147.528 207.051 146.988C207.255 146.436 207.543 145.956 207.915 145.548C208.299 145.14 208.755 144.822 209.283 144.594C209.823 144.366 210.423 144.252 211.083 144.252C211.659 144.252 212.217 144.378 212.757 144.63C213.309 144.882 213.741 145.236 214.053 145.692H214.089V144.468H215.709V152.928ZM211.281 145.764C210.849 145.764 210.459 145.842 210.111 145.998C209.763 146.142 209.469 146.346 209.229 146.61C208.989 146.862 208.803 147.174 208.671 147.546C208.539 147.906 208.473 148.302 208.473 148.734C208.473 149.598 208.725 150.294 209.229 150.822C209.733 151.338 210.417 151.596 211.281 151.596C212.145 151.596 212.829 151.338 213.333 150.822C213.837 150.294 214.089 149.598 214.089 148.734C214.089 148.302 214.023 147.906 213.891 147.546C213.759 147.174 213.573 146.862 213.333 146.61C213.093 146.346 212.799 146.142 212.451 145.998C212.103 145.842 211.713 145.764 211.281 145.764ZM222.147 144.468H223.965L225.891 150.84H225.927L227.961 144.468H229.671L231.831 150.84H231.867L233.703 144.468H235.413L232.659 153H231.021L228.771 146.628H228.735L226.701 153H224.955L222.147 144.468ZM236.831 139.392H238.451V145.782H238.487C238.691 145.326 239.045 144.96 239.549 144.684C240.053 144.396 240.635 144.252 241.295 144.252C241.703 144.252 242.093 144.318 242.465 144.45C242.849 144.57 243.179 144.762 243.455 145.026C243.743 145.29 243.971 145.632 244.139 146.052C244.307 146.46 244.391 146.946 244.391 147.51V153H242.771V147.96C242.771 147.564 242.717 147.228 242.609 146.952C242.501 146.664 242.357 146.436 242.177 146.268C241.997 146.088 241.787 145.962 241.547 145.89C241.319 145.806 241.079 145.764 240.827 145.764C240.491 145.764 240.179 145.818 239.891 145.926C239.603 146.034 239.351 146.208 239.135 146.448C238.919 146.676 238.751 146.97 238.631 147.33C238.511 147.69 238.451 148.116 238.451 148.608V153H236.831V139.392ZM246.869 145.512C247.325 145.092 247.853 144.78 248.453 144.576C249.053 144.36 249.653 144.252 250.253 144.252C250.877 144.252 251.411 144.33 251.855 144.486C252.311 144.642 252.683 144.852 252.971 145.116C253.259 145.38 253.469 145.686 253.601 146.034C253.745 146.37 253.817 146.724 253.817 147.096V151.452C253.817 151.752 253.823 152.028 253.835 152.28C253.847 152.532 253.865 152.772 253.889 153H252.449C252.413 152.568 252.395 152.136 252.395 151.704H252.359C251.999 152.256 251.573 152.646 251.081 152.874C250.589 153.102 250.019 153.216 249.371 153.216C248.975 153.216 248.597 153.162 248.237 153.054C247.877 152.946 247.559 152.784 247.283 152.568C247.019 152.352 246.809 152.088 246.653 151.776C246.497 151.452 246.419 151.08 246.419 150.66C246.419 150.108 246.539 149.646 246.779 149.274C247.031 148.902 247.367 148.602 247.787 148.374C248.219 148.134 248.717 147.966 249.281 147.87C249.857 147.762 250.469 147.708 251.117 147.708H252.305V147.348C252.305 147.132 252.263 146.916 252.179 146.7C252.095 146.484 251.969 146.292 251.801 146.124C251.633 145.944 251.423 145.806 251.171 145.71C250.919 145.602 250.619 145.548 250.271 145.548C249.959 145.548 249.683 145.578 249.443 145.638C249.215 145.698 249.005 145.776 248.813 145.872C248.621 145.956 248.447 146.058 248.291 146.178C248.135 146.298 247.985 146.412 247.841 146.52L246.869 145.512ZM251.441 148.896C251.057 148.896 250.661 148.92 250.253 148.968C249.857 149.004 249.491 149.082 249.155 149.202C248.831 149.322 248.561 149.49 248.345 149.706C248.141 149.922 248.039 150.198 248.039 150.534C248.039 151.026 248.201 151.38 248.525 151.596C248.861 151.812 249.311 151.92 249.875 151.92C250.319 151.92 250.697 151.848 251.009 151.704C251.321 151.548 251.573 151.35 251.765 151.11C251.957 150.87 252.095 150.606 252.179 150.318C252.263 150.018 252.305 149.724 252.305 149.436V148.896H251.441ZM260.739 145.872H258.417V149.742C258.417 149.982 258.423 150.222 258.435 150.462C258.447 150.69 258.489 150.9 258.561 151.092C258.645 151.272 258.765 151.422 258.921 151.542C259.089 151.65 259.329 151.704 259.641 151.704C259.833 151.704 260.031 151.686 260.235 151.65C260.439 151.614 260.625 151.548 260.793 151.452V152.928C260.601 153.036 260.349 153.108 260.037 153.144C259.737 153.192 259.503 153.216 259.335 153.216C258.711 153.216 258.225 153.132 257.877 152.964C257.541 152.784 257.289 152.556 257.121 152.28C256.965 152.004 256.869 151.698 256.833 151.362C256.809 151.014 256.797 150.666 256.797 150.318V145.872H254.925V144.468H256.797V142.074H258.417V144.468H260.739V145.872ZM264.053 149.328C264.053 149.7 264.131 150.042 264.287 150.354C264.455 150.654 264.671 150.912 264.935 151.128C265.199 151.344 265.505 151.512 265.853 151.632C266.201 151.752 266.561 151.812 266.933 151.812C267.437 151.812 267.875 151.698 268.247 151.47C268.619 151.23 268.961 150.918 269.273 150.534L270.497 151.47C269.597 152.634 268.337 153.216 266.717 153.216C266.045 153.216 265.433 153.102 264.881 152.874C264.341 152.646 263.879 152.334 263.495 151.938C263.123 151.53 262.835 151.056 262.631 150.516C262.427 149.964 262.325 149.37 262.325 148.734C262.325 148.098 262.433 147.51 262.649 146.97C262.877 146.418 263.183 145.944 263.567 145.548C263.963 145.14 264.431 144.822 264.971 144.594C265.511 144.366 266.099 144.252 266.735 144.252C267.491 144.252 268.127 144.384 268.643 144.648C269.171 144.912 269.603 145.26 269.939 145.692C270.275 146.112 270.515 146.592 270.659 147.132C270.815 147.66 270.893 148.2 270.893 148.752V149.328H264.053ZM269.165 148.032C269.153 147.672 269.093 147.342 268.985 147.042C268.889 146.742 268.739 146.484 268.535 146.268C268.331 146.04 268.073 145.866 267.761 145.746C267.461 145.614 267.107 145.548 266.699 145.548C266.303 145.548 265.937 145.626 265.601 145.782C265.277 145.926 265.001 146.118 264.773 146.358C264.545 146.598 264.365 146.868 264.233 147.168C264.113 147.456 264.053 147.744 264.053 148.032H269.165ZM271.805 144.468H273.677L276.233 151.002L278.681 144.468H280.409L277.061 153H275.279L271.805 144.468ZM283.055 149.328C283.055 149.7 283.133 150.042 283.289 150.354C283.457 150.654 283.673 150.912 283.937 151.128C284.201 151.344 284.507 151.512 284.855 151.632C285.203 151.752 285.563 151.812 285.935 151.812C286.439 151.812 286.877 151.698 287.249 151.47C287.621 151.23 287.963 150.918 288.275 150.534L289.499 151.47C288.599 152.634 287.339 153.216 285.719 153.216C285.047 153.216 284.435 153.102 283.883 152.874C283.343 152.646 282.881 152.334 282.497 151.938C282.125 151.53 281.837 151.056 281.633 150.516C281.429 149.964 281.327 149.37 281.327 148.734C281.327 148.098 281.435 147.51 281.651 146.97C281.879 146.418 282.185 145.944 282.569 145.548C282.965 145.14 283.433 144.822 283.973 144.594C284.513 144.366 285.101 144.252 285.737 144.252C286.493 144.252 287.129 144.384 287.645 144.648C288.173 144.912 288.605 145.26 288.941 145.692C289.277 146.112 289.517 146.592 289.661 147.132C289.817 147.66 289.895 148.2 289.895 148.752V149.328H283.055ZM288.167 148.032C288.155 147.672 288.095 147.342 287.987 147.042C287.891 146.742 287.741 146.484 287.537 146.268C287.333 146.04 287.075 145.866 286.763 145.746C286.463 145.614 286.109 145.548 285.701 145.548C285.305 145.548 284.939 145.626 284.603 145.782C284.279 145.926 284.003 146.118 283.775 146.358C283.547 146.598 283.367 146.868 283.235 147.168C283.115 147.456 283.055 147.744 283.055 148.032H288.167ZM291.833 144.468H293.453V145.782H293.489C293.597 145.554 293.741 145.35 293.921 145.17C294.101 144.978 294.299 144.816 294.515 144.684C294.743 144.552 294.989 144.45 295.253 144.378C295.517 144.294 295.781 144.252 296.045 144.252C296.309 144.252 296.549 144.288 296.765 144.36L296.693 146.106C296.561 146.07 296.429 146.04 296.297 146.016C296.165 145.992 296.033 145.98 295.901 145.98C295.109 145.98 294.503 146.202 294.083 146.646C293.663 147.09 293.453 147.78 293.453 148.716V153H291.833V144.468ZM114.903 171.736C114.603 171.424 114.285 171.19 113.949 171.034C113.625 170.866 113.235 170.782 112.779 170.782C112.335 170.782 111.945 170.866 111.609 171.034C111.285 171.19 111.009 171.412 110.781 171.7C110.565 171.976 110.397 172.3 110.277 172.672C110.169 173.032 110.115 173.41 110.115 173.806C110.115 174.202 110.181 174.58 110.313 174.94C110.445 175.288 110.631 175.594 110.871 175.858C111.111 176.122 111.399 176.332 111.735 176.488C112.071 176.632 112.449 176.704 112.869 176.704C113.325 176.704 113.715 176.626 114.039 176.47C114.363 176.302 114.663 176.062 114.939 175.75L116.091 176.902C115.671 177.37 115.179 177.706 114.615 177.91C114.063 178.114 113.475 178.216 112.851 178.216C112.191 178.216 111.585 178.108 111.033 177.892C110.493 177.676 110.025 177.376 109.629 176.992C109.233 176.596 108.927 176.128 108.711 175.588C108.495 175.036 108.387 174.43 108.387 173.77C108.387 173.11 108.495 172.504 108.711 171.952C108.927 171.4 109.227 170.926 109.611 170.53C110.007 170.134 110.475 169.828 111.015 169.612C111.567 169.384 112.179 169.27 112.851 169.27C113.475 169.27 114.069 169.384 114.633 169.612C115.209 169.828 115.707 170.164 116.127 170.62L114.903 171.736ZM118.798 173.734C118.798 174.166 118.864 174.568 118.996 174.94C119.128 175.3 119.314 175.612 119.554 175.876C119.794 176.128 120.088 176.332 120.436 176.488C120.784 176.632 121.174 176.704 121.606 176.704C122.038 176.704 122.428 176.632 122.776 176.488C123.124 176.332 123.418 176.128 123.658 175.876C123.898 175.612 124.084 175.3 124.216 174.94C124.348 174.568 124.414 174.166 124.414 173.734C124.414 173.302 124.348 172.906 124.216 172.546C124.084 172.174 123.898 171.862 123.658 171.61C123.418 171.346 123.124 171.142 122.776 170.998C122.428 170.842 122.038 170.764 121.606 170.764C121.174 170.764 120.784 170.842 120.436 170.998C120.088 171.142 119.794 171.346 119.554 171.61C119.314 171.862 119.128 172.174 118.996 172.546C118.864 172.906 118.798 173.302 118.798 173.734ZM117.07 173.734C117.07 173.11 117.184 172.528 117.412 171.988C117.652 171.448 117.976 170.974 118.384 170.566C118.792 170.158 119.272 169.84 119.824 169.612C120.376 169.372 120.97 169.252 121.606 169.252C122.242 169.252 122.836 169.372 123.388 169.612C123.94 169.84 124.42 170.158 124.828 170.566C125.236 170.974 125.554 171.448 125.782 171.988C126.022 172.528 126.142 173.11 126.142 173.734C126.142 174.358 126.022 174.946 125.782 175.498C125.554 176.038 125.236 176.512 124.828 176.92C124.42 177.316 123.94 177.634 123.388 177.874C122.836 178.102 122.242 178.216 121.606 178.216C120.97 178.216 120.376 178.102 119.824 177.874C119.272 177.634 118.792 177.316 118.384 176.92C117.976 176.512 117.652 176.038 117.412 175.498C117.184 174.946 117.07 174.358 117.07 173.734ZM128.172 169.468H129.684V170.8H129.72C129.756 170.68 129.846 170.53 129.99 170.35C130.146 170.17 130.338 170.002 130.566 169.846C130.806 169.678 131.082 169.54 131.394 169.432C131.718 169.312 132.072 169.252 132.456 169.252C133.092 169.252 133.626 169.384 134.058 169.648C134.49 169.912 134.844 170.308 135.12 170.836C135.396 170.308 135.786 169.912 136.29 169.648C136.794 169.384 137.304 169.252 137.82 169.252C138.48 169.252 139.02 169.36 139.44 169.576C139.86 169.792 140.19 170.08 140.43 170.44C140.67 170.788 140.832 171.19 140.916 171.646C141.012 172.09 141.06 172.552 141.06 173.032V178H139.44V173.248C139.44 172.924 139.416 172.612 139.368 172.312C139.332 172.012 139.248 171.748 139.116 171.52C138.984 171.292 138.798 171.112 138.558 170.98C138.318 170.836 138 170.764 137.604 170.764C136.824 170.764 136.266 171.004 135.93 171.484C135.594 171.964 135.426 172.582 135.426 173.338V178H133.806V173.536C133.806 173.128 133.782 172.756 133.734 172.42C133.698 172.084 133.614 171.796 133.482 171.556C133.362 171.304 133.182 171.112 132.942 170.98C132.714 170.836 132.402 170.764 132.006 170.764C131.718 170.764 131.436 170.824 131.16 170.944C130.896 171.052 130.662 171.22 130.458 171.448C130.254 171.676 130.092 171.97 129.972 172.33C129.852 172.678 129.792 173.092 129.792 173.572V178H128.172V169.468ZM144.724 174.328C144.724 174.7 144.802 175.042 144.958 175.354C145.126 175.654 145.342 175.912 145.606 176.128C145.87 176.344 146.176 176.512 146.524 176.632C146.872 176.752 147.232 176.812 147.604 176.812C148.108 176.812 148.546 176.698 148.918 176.47C149.29 176.23 149.632 175.918 149.944 175.534L151.168 176.47C150.268 177.634 149.008 178.216 147.388 178.216C146.716 178.216 146.104 178.102 145.552 177.874C145.012 177.646 144.55 177.334 144.166 176.938C143.794 176.53 143.506 176.056 143.302 175.516C143.098 174.964 142.996 174.37 142.996 173.734C142.996 173.098 143.104 172.51 143.32 171.97C143.548 171.418 143.854 170.944 144.238 170.548C144.634 170.14 145.102 169.822 145.642 169.594C146.182 169.366 146.77 169.252 147.406 169.252C148.162 169.252 148.798 169.384 149.314 169.648C149.842 169.912 150.274 170.26 150.61 170.692C150.946 171.112 151.186 171.592 151.33 172.132C151.486 172.66 151.564 173.2 151.564 173.752V174.328H144.724ZM149.836 173.032C149.824 172.672 149.764 172.342 149.656 172.042C149.56 171.742 149.41 171.484 149.206 171.268C149.002 171.04 148.744 170.866 148.432 170.746C148.132 170.614 147.778 170.548 147.37 170.548C146.974 170.548 146.608 170.626 146.272 170.782C145.948 170.926 145.672 171.118 145.444 171.358C145.216 171.598 145.036 171.868 144.904 172.168C144.784 172.456 144.724 172.744 144.724 173.032H149.836ZM158.038 171.61C157.846 171.37 157.606 171.172 157.318 171.016C157.042 170.848 156.7 170.764 156.292 170.764C155.908 170.764 155.572 170.848 155.284 171.016C155.008 171.172 154.87 171.406 154.87 171.718C154.87 171.97 154.948 172.174 155.104 172.33C155.272 172.486 155.464 172.612 155.68 172.708C155.908 172.804 156.148 172.876 156.4 172.924C156.652 172.972 156.868 173.014 157.048 173.05C157.396 173.134 157.72 173.236 158.02 173.356C158.332 173.476 158.596 173.632 158.812 173.824C159.04 174.016 159.214 174.25 159.334 174.526C159.466 174.802 159.532 175.138 159.532 175.534C159.532 176.014 159.43 176.428 159.226 176.776C159.022 177.112 158.758 177.388 158.434 177.604C158.11 177.82 157.738 177.976 157.318 178.072C156.91 178.168 156.496 178.216 156.076 178.216C155.368 178.216 154.744 178.108 154.204 177.892C153.676 177.676 153.202 177.28 152.782 176.704L154.006 175.696C154.27 175.96 154.564 176.194 154.888 176.398C155.212 176.602 155.608 176.704 156.076 176.704C156.28 176.704 156.484 176.686 156.688 176.65C156.904 176.602 157.09 176.536 157.246 176.452C157.414 176.356 157.546 176.242 157.642 176.11C157.75 175.966 157.804 175.804 157.804 175.624C157.804 175.384 157.726 175.186 157.57 175.03C157.426 174.874 157.246 174.754 157.03 174.67C156.826 174.574 156.604 174.502 156.364 174.454C156.136 174.394 155.932 174.346 155.752 174.31C155.404 174.226 155.074 174.13 154.762 174.022C154.45 173.914 154.174 173.77 153.934 173.59C153.694 173.41 153.502 173.182 153.358 172.906C153.214 172.63 153.142 172.288 153.142 171.88C153.142 171.436 153.232 171.052 153.412 170.728C153.604 170.392 153.85 170.116 154.15 169.9C154.462 169.684 154.81 169.522 155.194 169.414C155.59 169.306 155.986 169.252 156.382 169.252C156.958 169.252 157.51 169.36 158.038 169.576C158.566 169.792 158.986 170.152 159.298 170.656L158.038 171.61ZM171.082 170.872H168.76V174.742C168.76 174.982 168.766 175.222 168.778 175.462C168.79 175.69 168.832 175.9 168.904 176.092C168.988 176.272 169.108 176.422 169.264 176.542C169.432 176.65 169.672 176.704 169.984 176.704C170.176 176.704 170.374 176.686 170.578 176.65C170.782 176.614 170.968 176.548 171.136 176.452V177.928C170.944 178.036 170.692 178.108 170.38 178.144C170.08 178.192 169.846 178.216 169.678 178.216C169.054 178.216 168.568 178.132 168.22 177.964C167.884 177.784 167.632 177.556 167.464 177.28C167.308 177.004 167.212 176.698 167.176 176.362C167.152 176.014 167.14 175.666 167.14 175.318V170.872H165.268V169.468H167.14V167.074H168.76V169.468H171.082V170.872ZM173.172 164.392H174.792V170.782H174.828C175.032 170.326 175.386 169.96 175.89 169.684C176.394 169.396 176.976 169.252 177.636 169.252C178.044 169.252 178.434 169.318 178.806 169.45C179.19 169.57 179.52 169.762 179.796 170.026C180.084 170.29 180.312 170.632 180.48 171.052C180.648 171.46 180.732 171.946 180.732 172.51V178H179.112V172.96C179.112 172.564 179.058 172.228 178.95 171.952C178.842 171.664 178.698 171.436 178.518 171.268C178.338 171.088 178.128 170.962 177.888 170.89C177.66 170.806 177.42 170.764 177.168 170.764C176.832 170.764 176.52 170.818 176.232 170.926C175.944 171.034 175.692 171.208 175.476 171.448C175.26 171.676 175.092 171.97 174.972 172.33C174.852 172.69 174.792 173.116 174.792 173.608V178H173.172V164.392ZM184.398 174.328C184.398 174.7 184.476 175.042 184.632 175.354C184.8 175.654 185.016 175.912 185.28 176.128C185.544 176.344 185.85 176.512 186.198 176.632C186.546 176.752 186.906 176.812 187.278 176.812C187.782 176.812 188.22 176.698 188.592 176.47C188.964 176.23 189.306 175.918 189.618 175.534L190.842 176.47C189.942 177.634 188.682 178.216 187.062 178.216C186.39 178.216 185.778 178.102 185.226 177.874C184.686 177.646 184.224 177.334 183.84 176.938C183.468 176.53 183.18 176.056 182.976 175.516C182.772 174.964 182.67 174.37 182.67 173.734C182.67 173.098 182.778 172.51 182.994 171.97C183.222 171.418 183.528 170.944 183.912 170.548C184.308 170.14 184.776 169.822 185.316 169.594C185.856 169.366 186.444 169.252 187.08 169.252C187.836 169.252 188.472 169.384 188.988 169.648C189.516 169.912 189.948 170.26 190.284 170.692C190.62 171.112 190.86 171.592 191.004 172.132C191.16 172.66 191.238 173.2 191.238 173.752V174.328H184.398ZM189.51 173.032C189.498 172.672 189.438 172.342 189.33 172.042C189.234 171.742 189.084 171.484 188.88 171.268C188.676 171.04 188.418 170.866 188.106 170.746C187.806 170.614 187.452 170.548 187.044 170.548C186.648 170.548 186.282 170.626 185.946 170.782C185.622 170.926 185.346 171.118 185.118 171.358C184.89 171.598 184.71 171.868 184.578 172.168C184.458 172.456 184.398 172.744 184.398 173.032H189.51ZM193.302 169.468H194.922V178H193.302V169.468ZM192.924 166.408C192.924 166.084 193.038 165.808 193.266 165.58C193.506 165.34 193.788 165.22 194.112 165.22C194.436 165.22 194.712 165.34 194.94 165.58C195.18 165.808 195.3 166.084 195.3 166.408C195.3 166.732 195.18 167.014 194.94 167.254C194.712 167.482 194.436 167.596 194.112 167.596C193.788 167.596 193.506 167.482 193.266 167.254C193.038 167.014 192.924 166.732 192.924 166.408ZM197.5 169.468H199.12V170.782H199.156C199.264 170.554 199.408 170.35 199.588 170.17C199.768 169.978 199.966 169.816 200.182 169.684C200.41 169.552 200.656 169.45 200.92 169.378C201.184 169.294 201.448 169.252 201.712 169.252C201.976 169.252 202.216 169.288 202.432 169.36L202.36 171.106C202.228 171.07 202.096 171.04 201.964 171.016C201.832 170.992 201.7 170.98 201.568 170.98C200.776 170.98 200.17 171.202 199.75 171.646C199.33 172.09 199.12 172.78 199.12 173.716V178H197.5V169.468ZM208.146 169.468H209.964L211.89 175.84H211.926L213.96 169.468H215.67L217.83 175.84H217.866L219.702 169.468H221.412L218.658 178H217.02L214.77 171.628H214.734L212.7 178H210.954L208.146 169.468ZM222.866 170.512C223.322 170.092 223.85 169.78 224.45 169.576C225.05 169.36 225.65 169.252 226.25 169.252C226.874 169.252 227.408 169.33 227.852 169.486C228.308 169.642 228.68 169.852 228.968 170.116C229.256 170.38 229.466 170.686 229.598 171.034C229.742 171.37 229.814 171.724 229.814 172.096V176.452C229.814 176.752 229.82 177.028 229.832 177.28C229.844 177.532 229.862 177.772 229.886 178H228.446C228.41 177.568 228.392 177.136 228.392 176.704H228.356C227.996 177.256 227.57 177.646 227.078 177.874C226.586 178.102 226.016 178.216 225.368 178.216C224.972 178.216 224.594 178.162 224.234 178.054C223.874 177.946 223.556 177.784 223.28 177.568C223.016 177.352 222.806 177.088 222.65 176.776C222.494 176.452 222.416 176.08 222.416 175.66C222.416 175.108 222.536 174.646 222.776 174.274C223.028 173.902 223.364 173.602 223.784 173.374C224.216 173.134 224.714 172.966 225.278 172.87C225.854 172.762 226.466 172.708 227.114 172.708H228.302V172.348C228.302 172.132 228.26 171.916 228.176 171.7C228.092 171.484 227.966 171.292 227.798 171.124C227.63 170.944 227.42 170.806 227.168 170.71C226.916 170.602 226.616 170.548 226.268 170.548C225.956 170.548 225.68 170.578 225.44 170.638C225.212 170.698 225.002 170.776 224.81 170.872C224.618 170.956 224.444 171.058 224.288 171.178C224.132 171.298 223.982 171.412 223.838 171.52L222.866 170.512ZM227.438 173.896C227.054 173.896 226.658 173.92 226.25 173.968C225.854 174.004 225.488 174.082 225.152 174.202C224.828 174.322 224.558 174.49 224.342 174.706C224.138 174.922 224.036 175.198 224.036 175.534C224.036 176.026 224.198 176.38 224.522 176.596C224.858 176.812 225.308 176.92 225.872 176.92C226.316 176.92 226.694 176.848 227.006 176.704C227.318 176.548 227.57 176.35 227.762 176.11C227.954 175.87 228.092 175.606 228.176 175.318C228.26 175.018 228.302 174.724 228.302 174.436V173.896H227.438ZM231.138 169.468H233.01L235.548 176.128H235.584L237.996 169.468H239.742L235.692 179.836C235.548 180.208 235.398 180.544 235.242 180.844C235.086 181.156 234.9 181.42 234.684 181.636C234.468 181.852 234.204 182.02 233.892 182.14C233.592 182.26 233.22 182.32 232.776 182.32C232.536 182.32 232.29 182.302 232.038 182.266C231.798 182.242 231.564 182.182 231.336 182.086L231.534 180.61C231.858 180.742 232.182 180.808 232.506 180.808C232.758 180.808 232.968 180.772 233.136 180.7C233.316 180.64 233.466 180.544 233.586 180.412C233.718 180.292 233.826 180.148 233.91 179.98C233.994 179.812 234.078 179.62 234.162 179.404L234.684 178.054L231.138 169.468ZM241.106 178.108C240.782 178.108 240.5 177.994 240.26 177.766C240.032 177.526 239.918 177.244 239.918 176.92C239.918 176.596 240.032 176.32 240.26 176.092C240.5 175.852 240.782 175.732 241.106 175.732C241.43 175.732 241.706 175.852 241.934 176.092C242.174 176.32 242.294 176.596 242.294 176.92C242.294 177.244 242.174 177.526 241.934 177.766C241.706 177.994 241.43 178.108 241.106 178.108Z" fill="#1A2E33"/>
<path d="M179.315 94.252H181.799V95.404H181.835C181.943 95.248 182.081 95.092 182.249 94.936C182.429 94.768 182.633 94.618 182.861 94.486C183.101 94.354 183.359 94.246 183.635 94.162C183.911 94.078 184.205 94.036 184.517 94.036C185.165 94.036 185.753 94.15 186.281 94.378C186.809 94.594 187.259 94.906 187.631 95.314C188.015 95.71 188.309 96.184 188.513 96.736C188.717 97.288 188.819 97.894 188.819 98.554C188.819 99.166 188.723 99.754 188.531 100.318C188.351 100.87 188.087 101.362 187.739 101.794C187.403 102.226 186.989 102.574 186.497 102.838C186.005 103.09 185.447 103.216 184.823 103.216C184.259 103.216 183.731 103.132 183.239 102.964C182.759 102.784 182.363 102.484 182.051 102.064H182.015V107.104H179.315V94.252ZM181.799 98.626C181.799 99.286 181.985 99.82 182.357 100.228C182.741 100.636 183.275 100.84 183.959 100.84C184.643 100.84 185.171 100.636 185.543 100.228C185.927 99.82 186.119 99.286 186.119 98.626C186.119 97.966 185.927 97.432 185.543 97.024C185.171 96.616 184.643 96.412 183.959 96.412C183.275 96.412 182.741 96.616 182.357 97.024C181.985 97.432 181.799 97.966 181.799 98.626ZM195.891 101.902H195.855C195.555 102.37 195.153 102.706 194.649 102.91C194.157 103.114 193.635 103.216 193.083 103.216C192.675 103.216 192.279 103.156 191.895 103.036C191.523 102.928 191.193 102.76 190.905 102.532C190.617 102.304 190.389 102.022 190.221 101.686C190.053 101.35 189.969 100.96 189.969 100.516C189.969 100.012 190.059 99.586 190.239 99.238C190.431 98.89 190.683 98.602 190.995 98.374C191.319 98.146 191.685 97.972 192.093 97.852C192.501 97.72 192.921 97.624 193.353 97.564C193.797 97.504 194.235 97.468 194.667 97.456C195.111 97.444 195.519 97.438 195.891 97.438C195.891 96.958 195.717 96.58 195.369 96.304C195.033 96.016 194.631 95.872 194.163 95.872C193.719 95.872 193.311 95.968 192.939 96.16C192.579 96.34 192.255 96.592 191.967 96.916L190.527 95.44C191.031 94.972 191.619 94.624 192.291 94.396C192.963 94.156 193.659 94.036 194.379 94.036C195.171 94.036 195.819 94.138 196.323 94.342C196.839 94.534 197.247 94.822 197.547 95.206C197.859 95.59 198.075 96.064 198.195 96.628C198.315 97.18 198.375 97.822 198.375 98.554V103H195.891V101.902ZM195.225 99.166C195.021 99.166 194.763 99.178 194.451 99.202C194.151 99.214 193.857 99.262 193.569 99.346C193.293 99.43 193.053 99.556 192.849 99.724C192.657 99.892 192.561 100.126 192.561 100.426C192.561 100.75 192.699 100.99 192.975 101.146C193.251 101.302 193.539 101.38 193.839 101.38C194.103 101.38 194.355 101.344 194.595 101.272C194.847 101.2 195.069 101.098 195.261 100.966C195.453 100.834 195.603 100.666 195.711 100.462C195.831 100.258 195.891 100.018 195.891 99.742V99.166H195.225ZM205.019 96.826C204.623 96.334 204.101 96.088 203.453 96.088C203.225 96.088 203.003 96.142 202.787 96.25C202.571 96.358 202.463 96.544 202.463 96.808C202.463 97.024 202.571 97.186 202.787 97.294C203.015 97.39 203.297 97.48 203.633 97.564C203.981 97.636 204.347 97.72 204.731 97.816C205.127 97.9 205.493 98.038 205.829 98.23C206.177 98.422 206.459 98.686 206.675 99.022C206.903 99.346 207.017 99.784 207.017 100.336C207.017 100.9 206.891 101.368 206.639 101.74C206.399 102.1 206.087 102.394 205.703 102.622C205.319 102.838 204.887 102.988 204.407 103.072C203.927 103.168 203.453 103.216 202.985 103.216C202.373 103.216 201.755 103.132 201.131 102.964C200.507 102.784 199.979 102.472 199.547 102.028L201.185 100.21C201.437 100.522 201.713 100.762 202.013 100.93C202.325 101.086 202.685 101.164 203.093 101.164C203.405 101.164 203.687 101.122 203.939 101.038C204.191 100.942 204.317 100.774 204.317 100.534C204.317 100.306 204.203 100.138 203.975 100.03C203.759 99.91 203.477 99.814 203.129 99.742C202.793 99.658 202.427 99.574 202.031 99.49C201.647 99.394 201.281 99.256 200.933 99.076C200.597 98.896 200.315 98.644 200.087 98.32C199.871 97.984 199.763 97.54 199.763 96.988C199.763 96.472 199.865 96.028 200.069 95.656C200.285 95.284 200.561 94.978 200.897 94.738C201.245 94.498 201.641 94.324 202.085 94.216C202.529 94.096 202.979 94.036 203.435 94.036C204.011 94.036 204.593 94.12 205.181 94.288C205.769 94.456 206.267 94.756 206.675 95.188L205.019 96.826ZM213.351 96.826C212.955 96.334 212.433 96.088 211.785 96.088C211.557 96.088 211.335 96.142 211.119 96.25C210.903 96.358 210.795 96.544 210.795 96.808C210.795 97.024 210.903 97.186 211.119 97.294C211.347 97.39 211.629 97.48 211.965 97.564C212.313 97.636 212.679 97.72 213.063 97.816C213.459 97.9 213.825 98.038 214.161 98.23C214.509 98.422 214.791 98.686 215.007 99.022C215.235 99.346 215.349 99.784 215.349 100.336C215.349 100.9 215.223 101.368 214.971 101.74C214.731 102.1 214.419 102.394 214.035 102.622C213.651 102.838 213.219 102.988 212.739 103.072C212.259 103.168 211.785 103.216 211.317 103.216C210.705 103.216 210.087 103.132 209.463 102.964C208.839 102.784 208.311 102.472 207.879 102.028L209.517 100.21C209.769 100.522 210.045 100.762 210.345 100.93C210.657 101.086 211.017 101.164 211.425 101.164C211.737 101.164 212.019 101.122 212.271 101.038C212.523 100.942 212.649 100.774 212.649 100.534C212.649 100.306 212.535 100.138 212.307 100.03C212.091 99.91 211.809 99.814 211.461 99.742C211.125 99.658 210.759 99.574 210.363 99.49C209.979 99.394 209.613 99.256 209.265 99.076C208.929 98.896 208.647 98.644 208.419 98.32C208.203 97.984 208.095 97.54 208.095 96.988C208.095 96.472 208.197 96.028 208.401 95.656C208.617 95.284 208.893 94.978 209.229 94.738C209.577 94.498 209.973 94.324 210.417 94.216C210.861 94.096 211.311 94.036 211.767 94.036C212.343 94.036 212.925 94.12 213.513 94.288C214.101 94.456 214.599 94.756 215.007 95.188L213.351 96.826ZM216.769 94.252H219.469V103H216.769V94.252ZM216.553 91.498C216.553 91.066 216.703 90.7 217.003 90.4C217.315 90.088 217.687 89.932 218.119 89.932C218.551 89.932 218.917 90.088 219.217 90.4C219.529 90.7 219.685 91.066 219.685 91.498C219.685 91.93 219.529 92.302 219.217 92.614C218.917 92.914 218.551 93.064 218.119 93.064C217.687 93.064 217.315 92.914 217.003 92.614C216.703 92.302 216.553 91.93 216.553 91.498ZM221.085 98.626C221.085 97.93 221.211 97.3 221.463 96.736C221.715 96.172 222.057 95.692 222.489 95.296C222.933 94.888 223.449 94.576 224.037 94.36C224.637 94.144 225.273 94.036 225.945 94.036C226.617 94.036 227.247 94.144 227.835 94.36C228.435 94.576 228.951 94.888 229.383 95.296C229.827 95.692 230.175 96.172 230.427 96.736C230.679 97.3 230.805 97.93 230.805 98.626C230.805 99.322 230.679 99.952 230.427 100.516C230.175 101.08 229.827 101.566 229.383 101.974C228.951 102.37 228.435 102.676 227.835 102.892C227.247 103.108 226.617 103.216 225.945 103.216C225.273 103.216 224.637 103.108 224.037 102.892C223.449 102.676 222.933 102.37 222.489 101.974C222.057 101.566 221.715 101.08 221.463 100.516C221.211 99.952 221.085 99.322 221.085 98.626ZM223.785 98.626C223.785 99.286 223.971 99.82 224.343 100.228C224.727 100.636 225.261 100.84 225.945 100.84C226.629 100.84 227.157 100.636 227.529 100.228C227.913 99.82 228.105 99.286 228.105 98.626C228.105 97.966 227.913 97.432 227.529 97.024C227.157 96.616 226.629 96.412 225.945 96.412C225.261 96.412 224.727 96.616 224.343 97.024C223.971 97.432 223.785 97.966 223.785 98.626ZM232.395 94.252H234.987V95.44H235.023C235.107 95.272 235.227 95.104 235.383 94.936C235.539 94.768 235.725 94.618 235.941 94.486C236.157 94.354 236.403 94.246 236.679 94.162C236.955 94.078 237.255 94.036 237.579 94.036C238.263 94.036 238.815 94.144 239.235 94.36C239.655 94.564 239.979 94.852 240.207 95.224C240.447 95.596 240.609 96.034 240.693 96.538C240.777 97.042 240.819 97.588 240.819 98.176V103H238.119V98.716C238.119 98.464 238.107 98.206 238.083 97.942C238.071 97.666 238.017 97.414 237.921 97.186C237.837 96.958 237.699 96.772 237.507 96.628C237.327 96.484 237.063 96.412 236.715 96.412C236.367 96.412 236.085 96.478 235.869 96.61C235.653 96.73 235.485 96.898 235.365 97.114C235.257 97.318 235.185 97.552 235.149 97.816C235.113 98.08 235.095 98.356 235.095 98.644V103H232.395V94.252ZM248.221 101.902H248.185C247.885 102.37 247.483 102.706 246.979 102.91C246.487 103.114 245.965 103.216 245.413 103.216C245.005 103.216 244.609 103.156 244.225 103.036C243.853 102.928 243.523 102.76 243.235 102.532C242.947 102.304 242.719 102.022 242.551 101.686C242.383 101.35 242.299 100.96 242.299 100.516C242.299 100.012 242.389 99.586 242.569 99.238C242.761 98.89 243.013 98.602 243.325 98.374C243.649 98.146 244.015 97.972 244.423 97.852C244.831 97.72 245.251 97.624 245.683 97.564C246.127 97.504 246.565 97.468 246.997 97.456C247.441 97.444 247.849 97.438 248.221 97.438C248.221 96.958 248.047 96.58 247.699 96.304C247.363 96.016 246.961 95.872 246.493 95.872C246.049 95.872 245.641 95.968 245.269 96.16C244.909 96.34 244.585 96.592 244.297 96.916L242.857 95.44C243.361 94.972 243.949 94.624 244.621 94.396C245.293 94.156 245.989 94.036 246.709 94.036C247.501 94.036 248.149 94.138 248.653 94.342C249.169 94.534 249.577 94.822 249.877 95.206C250.189 95.59 250.405 96.064 250.525 96.628C250.645 97.18 250.705 97.822 250.705 98.554V103H248.221V101.902ZM247.555 99.166C247.351 99.166 247.093 99.178 246.781 99.202C246.481 99.214 246.187 99.262 245.899 99.346C245.623 99.43 245.383 99.556 245.179 99.724C244.987 99.892 244.891 100.126 244.891 100.426C244.891 100.75 245.029 100.99 245.305 101.146C245.581 101.302 245.869 101.38 246.169 101.38C246.433 101.38 246.685 101.344 246.925 101.272C247.177 101.2 247.399 101.098 247.591 100.966C247.783 100.834 247.933 100.666 248.041 100.462C248.161 100.258 248.221 100.018 248.221 99.742V99.166H247.555ZM258.357 96.412H255.981V99.328C255.981 99.568 255.993 99.79 256.017 99.994C256.041 100.186 256.095 100.354 256.179 100.498C256.263 100.642 256.389 100.756 256.557 100.84C256.737 100.912 256.971 100.948 257.259 100.948C257.403 100.948 257.589 100.936 257.817 100.912C258.057 100.876 258.237 100.804 258.357 100.696V102.946C258.057 103.054 257.745 103.126 257.421 103.162C257.097 103.198 256.779 103.216 256.467 103.216C256.011 103.216 255.591 103.168 255.207 103.072C254.823 102.976 254.487 102.826 254.199 102.622C253.911 102.406 253.683 102.13 253.515 101.794C253.359 101.458 253.281 101.05 253.281 100.57V96.412H251.553V94.252H253.281V91.66H255.981V94.252H258.357V96.412ZM268.009 101.488C267.577 102.04 267.031 102.466 266.371 102.766C265.711 103.066 265.027 103.216 264.319 103.216C263.647 103.216 263.011 103.108 262.411 102.892C261.823 102.676 261.307 102.37 260.863 101.974C260.431 101.566 260.089 101.08 259.837 100.516C259.585 99.952 259.459 99.322 259.459 98.626C259.459 97.93 259.585 97.3 259.837 96.736C260.089 96.172 260.431 95.692 260.863 95.296C261.307 94.888 261.823 94.576 262.411 94.36C263.011 94.144 263.647 94.036 264.319 94.036C264.943 94.036 265.507 94.144 266.011 94.36C266.527 94.576 266.959 94.888 267.307 95.296C267.667 95.692 267.943 96.172 268.135 96.736C268.327 97.3 268.423 97.93 268.423 98.626V99.472H262.159C262.267 99.988 262.501 100.402 262.861 100.714C263.221 101.014 263.665 101.164 264.193 101.164C264.637 101.164 265.009 101.068 265.309 100.876C265.621 100.672 265.891 100.414 266.119 100.102L268.009 101.488ZM265.723 97.636C265.735 97.18 265.585 96.79 265.273 96.466C264.961 96.142 264.559 95.98 264.067 95.98C263.767 95.98 263.503 96.028 263.275 96.124C263.047 96.22 262.849 96.346 262.681 96.502C262.525 96.646 262.399 96.82 262.303 97.024C262.219 97.216 262.171 97.42 262.159 97.636H265.723ZM71.7208 119.252H74.4208V128H71.7208V119.252ZM71.5048 116.498C71.5048 116.066 71.6548 115.7 71.9548 115.4C72.2668 115.088 72.6388 114.932 73.0708 114.932C73.5028 114.932 73.8688 115.088 74.1688 115.4C74.4808 115.7 74.6368 116.066 74.6368 116.498C74.6368 116.93 74.4808 117.302 74.1688 117.614C73.8688 117.914 73.5028 118.064 73.0708 118.064C72.6388 118.064 72.2668 117.914 71.9548 117.614C71.6548 117.302 71.5048 116.93 71.5048 116.498ZM65.9608 121.412H64.1788V119.252H65.9608V117.704C65.9608 117.224 66.0028 116.774 66.0868 116.354C66.1708 115.922 66.3328 115.544 66.5728 115.22C66.8128 114.896 67.1548 114.644 67.5988 114.464C68.0548 114.272 68.6488 114.176 69.3808 114.176C69.6568 114.176 69.9268 114.188 70.1908 114.212C70.4548 114.236 70.7128 114.278 70.9648 114.338L70.8388 116.624C70.6828 116.564 70.5388 116.522 70.4068 116.498C70.2748 116.462 70.1248 116.444 69.9568 116.444C69.5248 116.444 69.2008 116.54 68.9848 116.732C68.7688 116.912 68.6608 117.29 68.6608 117.866V119.252H70.6588V121.412H68.6608V128H65.9608V121.412ZM84.6427 126.488C84.2107 127.04 83.6647 127.466 83.0047 127.766C82.3447 128.066 81.6607 128.216 80.9527 128.216C80.2807 128.216 79.6447 128.108 79.0447 127.892C78.4567 127.676 77.9407 127.37 77.4967 126.974C77.0647 126.566 76.7227 126.08 76.4707 125.516C76.2187 124.952 76.0927 124.322 76.0927 123.626C76.0927 122.93 76.2187 122.3 76.4707 121.736C76.7227 121.172 77.0647 120.692 77.4967 120.296C77.9407 119.888 78.4567 119.576 79.0447 119.36C79.6447 119.144 80.2807 119.036 80.9527 119.036C81.5767 119.036 82.1407 119.144 82.6447 119.36C83.1607 119.576 83.5927 119.888 83.9407 120.296C84.3007 120.692 84.5767 121.172 84.7687 121.736C84.9607 122.3 85.0567 122.93 85.0567 123.626V124.472H78.7927C78.9007 124.988 79.1347 125.402 79.4947 125.714C79.8547 126.014 80.2987 126.164 80.8267 126.164C81.2707 126.164 81.6427 126.068 81.9427 125.876C82.2547 125.672 82.5247 125.414 82.7527 125.102L84.6427 126.488ZM82.3567 122.636C82.3687 122.18 82.2187 121.79 81.9067 121.466C81.5947 121.142 81.1927 120.98 80.7007 120.98C80.4007 120.98 80.1367 121.028 79.9087 121.124C79.6807 121.22 79.4827 121.346 79.3147 121.502C79.1587 121.646 79.0327 121.82 78.9367 122.024C78.8527 122.216 78.8047 122.42 78.7927 122.636H82.3567ZM86.6986 119.252H89.3986V120.656H89.4346C89.7226 120.116 90.0646 119.714 90.4606 119.45C90.8566 119.174 91.3546 119.036 91.9546 119.036C92.1106 119.036 92.2666 119.042 92.4226 119.054C92.5786 119.066 92.7226 119.09 92.8546 119.126V121.592C92.6626 121.532 92.4706 121.49 92.2786 121.466C92.0986 121.43 91.9066 121.412 91.7026 121.412C91.1866 121.412 90.7786 121.484 90.4786 121.628C90.1786 121.772 89.9446 121.976 89.7766 122.24C89.6206 122.492 89.5186 122.798 89.4706 123.158C89.4226 123.518 89.3986 123.914 89.3986 124.346V128H86.6986V119.252ZM99.0687 129.422C98.8887 129.89 98.7147 130.304 98.5467 130.664C98.3787 131.024 98.1627 131.324 97.8987 131.564C97.6467 131.816 97.3227 132.002 96.9267 132.122C96.5307 132.254 96.0087 132.32 95.3607 132.32C94.6647 132.32 93.9927 132.212 93.3447 131.996L93.7047 129.782C94.1127 129.962 94.5327 130.052 94.9647 130.052C95.2647 130.052 95.5107 130.016 95.7027 129.944C95.8947 129.884 96.0507 129.788 96.1707 129.656C96.3027 129.536 96.4107 129.386 96.4947 129.206C96.5787 129.026 96.6687 128.816 96.7647 128.576L96.9627 128.072L93.1287 119.252H96.0447L98.2947 125.03H98.3307L100.257 119.252H103.029L99.0687 129.422Z" fill="#FF3E46"/>
<defs>
<filter id="filter0_d_274_327" x="0" y="-0.000976562" width="357.097" height="247.236" filterUnits="userSpaceOnUse" color-interpolation-filters="sRGB">
<feFlood flood-opacity="0" result="BackgroundImageFix"/>
<feColorMatrix in="SourceAlpha" type="matrix" values="0 0 0 0 0 0 0 0 0 0 0 0 0 0 0 0 0 0 127 0" result="hardAlpha"/>
<feOffset dx="4" dy="4"/>
<feComposite in2="hardAlpha" operator="out"/>
<feColorMatrix type="matrix" values="0 0 0 0 0.47451 0 0 0 0 0.0941176 0 0 0 0 0.0431373 0 0 0 1 0"/>
<feBlend mode="normal" in2="BackgroundImageFix" result="effect1_dropShadow_274_327"/>
<feBlend mode="normal" in="SourceGraphic" in2="effect1_dropShadow_274_327" result="shape"/>
</filter>
</defs>
</svg>
